<?xml version="1.0" encoding="iso-8859-1"?>
<!-- Generator: Adobe Illustrator 19.0.0, SVG Export Plug-In . SVG Version: 6.00 Build 0)  -->
<svg version="1.1" id="Layer_1" xmlns="http://www.w3.org/2000/svg" xmlns:xlink="http://www.w3.org/1999/xlink" x="0px" y="0px"
	 viewBox="0 0 489.4 489.4" style="enable-background:new 0 0 489.4 489.4;" xml:space="preserve">
<g>
	<g>
		<rect id="XMLID_860_" x="105.5" y="9.1" style="fill:#A7A9AC;" width="374.8" height="374.8"/>
		<path d="M393,480.3c0-5-4.1-9.1-9.1-9.1H18.2V105.5c0-5-4.1-9.1-9.1-9.1S0,100.5,0,105.5v374.8c0,5,4.1,9.1,9.1,9.1h374.8
			C388.9,489.4,393,485.3,393,480.3z"/>
		<path d="M373.9,187.5H302v-71.9c0-5-4.1-9.1-9.1-9.1s-9.1,4.1-9.1,9.1v71.9h-71.9c-5,0-9.1,4.1-9.1,9.1s4.1,9.1,9.1,9.1h71.9v71.9
			c0,5,4.1,9.1,9.1,9.1s9.1-4.1,9.1-9.1v-71.9h71.9c5,0,9.1-4.1,9.1-9.1C382.9,191.5,378.9,187.5,373.9,187.5z"/>
		<path d="M105.5,393h374.8c5,0,9.1-4.1,9.1-9.1V9.1c0-5-4.1-9.1-9.1-9.1H105.5c-5,0-9.1,4.1-9.1,9.1v374.8
			C96.4,388.9,100.5,393,105.5,393z M114.5,18.2h356.7v356.7H114.5V18.2z"/>
	</g>
</g>
<g>
</g>
<g>
</g>
<g>
</g>
<g>
</g>
<g>
</g>
<g>
</g>
<g>
</g>
<g>
</g>
<g>
</g>
<g>
</g>
<g>
</g>
<g>
</g>
<g>
</g>
<g>
</g>
<g>
</g>
</svg>
