<?xml version="1.0" encoding="iso-8859-1"?>
<!-- Generator: Adobe Illustrator 19.0.0, SVG Export Plug-In . SVG Version: 6.00 Build 0)  -->
<svg version="1.1" id="Layer_1" xmlns="http://www.w3.org/2000/svg" xmlns:xlink="http://www.w3.org/1999/xlink" x="0px" y="0px"
	 viewBox="0 0 490.2 490.2" style="enable-background:new 0 0 490.2 490.2;" xml:space="preserve">
<g>
	<g>
		<path id="XMLID_2077_" style="fill:#3C92CA;" d="M352.9,256.45H139.1c-6.4,0-11.7-5.2-11.7-11.7v-51.1c0-6.4,5.2-11.7,11.7-11.7
			h213.8c6.4,0,11.7,5.2,11.7,11.7v51.1C364.6,251.25,359.3,256.45,352.9,256.45z"/>
		<path d="M204.2,36.55h-78.5c-13,0-23.5,10.5-23.5,23.5v30.3H86.3c-4.8,0-8.7,3.7-9,8.5l-7.7,119.2c-16.9,3.7-30.1,18.3-31.5,36.2
			l-12.3,160.7H9.1c-5,0-9.1,4.1-9.1,9.1v36.1c0,15.7,12.8,28.5,28.5,28.5h165.3c15.7,0,28.5-12.8,28.5-28.5v-36.1
			c0-5-4.1-9.1-9.1-9.1H44l12.1-159.3c0.9-11.4,10.5-20.4,22-20.4c4.8,0,8.7-3.7,9-8.5l7.7-118.2h16.5h107.4h53h107.4h16.5
			l7.7,118.2c0.3,4.8,4.3,8.5,9,8.5h0.2c11.4,0,21,8.9,22,20.2l13.5,159.5H277c-5,0-9.1,4.1-9.1,9.1v36.1
			c0,15.7,12.8,28.5,28.5,28.5h165.3c15.7,0,28.5-12.8,28.5-28.5v-36.1c0-5-4.1-9.1-9.1-9.1h-14.9l-13.6-161
			c-1.5-17.8-14.8-32.3-31.7-35.9l-7.7-119.2c-0.3-4.8-4.3-8.5-9-8.5h-16v-30.3c0-13-10.5-23.5-23.5-23.5h-78.5
			c-13,0-23.5,10.5-23.5,23.5v30.3h-34.9v-30.3C227.7,47.15,217.2,36.55,204.2,36.55z M204.4,460.15c0,5.7-4.7,10.4-10.4,10.4H28.6
			c-5.7,0-10.4-4.7-10.4-10.4v-27.1h186.1v27.1H204.4z M472.2,460.15c0,5.7-4.7,10.4-10.4,10.4H296.5c-5.7,0-10.4-4.7-10.4-10.4
			v-27.1h186.1V460.15z M120.3,90.35v-30.3c0-3,2.4-5.4,5.4-5.4h78.5c3,0,5.4,2.4,5.4,5.4v30.3H120.3z M280.8,60.05
			c0-3,2.4-5.4,5.4-5.4h78.5c3,0,5.4,2.4,5.4,5.4v30.3h-89.3V60.05L280.8,60.05z"/>
		<path d="M104.1,10.75c0,5,4.1,9.1,9.1,9.1h102.7c5,0,9.1-4.1,9.1-9.1s-4.1-9.1-9.1-9.1H113.2C108.2,1.65,104.1,5.75,104.1,10.75z"
			/>
		<path d="M270.3,19.75H375c5,0,9.1-4.1,9.1-9.1s-4.1-9.1-9.1-9.1H270.3c-5,0-9.1,4.1-9.1,9.1S265.3,19.75,270.3,19.75z"/>
		<path d="M192.7,397.45c5,0,9.1-4.1,9.1-9.1v-122.9h80.6v122.9c0,5,4.1,9.1,9.1,9.1s9.1-4.1,9.1-9.1v-122.9h40.6
			c17.9,0,32.5-14.6,32.5-32.5v-27.4c0-17.9-14.6-32.5-32.5-32.5H151c-17.9,0-32.5,14.6-32.5,32.5v27.4c0,17.9,14.6,32.5,32.5,32.5
			h32.7v122.9C183.7,393.35,187.7,397.45,192.7,397.45z M136.5,232.95v-27.4c0-7.9,6.5-14.4,14.4-14.4H341c7.9,0,14.4,6.5,14.4,14.4
			v27.4c0,7.9-6.5,14.4-14.4,14.4H151C143,247.35,136.5,240.85,136.5,232.95z"/>
	</g>
</g>
<g>
</g>
<g>
</g>
<g>
</g>
<g>
</g>
<g>
</g>
<g>
</g>
<g>
</g>
<g>
</g>
<g>
</g>
<g>
</g>
<g>
</g>
<g>
</g>
<g>
</g>
<g>
</g>
<g>
</g>
</svg>
