<?xml version="1.0" encoding="iso-8859-1"?>
<!-- Generator: Adobe Illustrator 19.0.0, SVG Export Plug-In . SVG Version: 6.00 Build 0)  -->
<svg version="1.1" id="Layer_1" xmlns="http://www.w3.org/2000/svg" xmlns:xlink="http://www.w3.org/1999/xlink" x="0px" y="0px"
	 viewBox="0 0 489.6 489.6" style="enable-background:new 0 0 489.6 489.6;" xml:space="preserve">
<g>
	<g>
		<g>
			<path style="fill:#A7A9AC;" d="M373.6,391.65h24.5c6,0,10.8-4.8,10.8-10.8v-29.5c0-6-4.8-10.8-10.8-10.8h-24.5
				c-3.4-17.3-10.2-33.3-19.6-47.4l17.4-17.4c4.2-4.2,4.2-11.1,0-15.3l-20.9-20.9c-4.2-4.2-11.1-4.2-15.3,0l-17.4,17.3
				c-14.1-9.5-30.1-16.2-47.4-19.6v-24.5c0-6-4.8-10.8-10.8-10.8h-29.5c-6,0-10.8,4.8-10.8,10.8v24.5c-17.3,3.4-33.3,10.2-47.4,19.6
				l-17.4-17.4c-4.2-4.2-11.1-4.2-15.3,0l-20.9,20.9c-4.2,4.2-4.2,11.1,0,15.3l17.4,17.4c-9.5,14.1-16.2,30.1-19.6,47.4H91.6
				c-6,0-10.8,4.8-10.8,10.8v29.5c0,6,4.8,10.8,10.8,10.8h24.5l52.3-25.6c0-42.2,34.3-76.5,76.5-76.5s76.5,34.3,76.5,76.5"/>
		</g>
		<path d="M489.6,409.55V79.95c0-20.6-16.7-37.3-37.3-37.3h-415C16.7,42.65,0,59.35,0,79.95v329.7c0,20.6,16.7,37.3,37.3,37.3h415
			C472.9,446.95,489.6,430.15,489.6,409.55z M37.3,60.75h415c10.6,0,19.2,8.6,19.2,19.2v44.5H18.1v-44.5
			C18.1,69.35,26.7,60.75,37.3,60.75z M18.1,409.55v-267h453.4v267c0,10.6-8.6,19.2-19.2,19.2h-415
			C26.7,428.75,18.1,420.15,18.1,409.55z"/>
		<path d="M244.8,280.55c-47.2,0-85.5,38.4-85.5,85.5c0,5,4.1,9.1,9.1,9.1s9.1-4.1,9.1-9.1c0-37.2,30.2-67.4,67.4-67.4
			s67.4,30.2,67.4,67.4c0,5,4.1,9.1,9.1,9.1s9.1-4.1,9.1-9.1C330.3,318.85,292,280.55,244.8,280.55z"/>
		<path d="M398.2,331.45h-17.3c-3.3-13.1-8.5-25.5-15.4-37.1l12.2-12.2c3.8-3.8,5.8-8.8,5.8-14.1c0-5.3-2.1-10.3-5.8-14.1
			l-20.9-20.9c-7.8-7.8-20.4-7.8-28.1,0l-12.2,12.2c-11.6-6.9-24-12-37.1-15.4v-17.1c0-11-8.9-19.9-19.9-19.9H230
			c-11,0-19.9,8.9-19.9,19.9v17.3c-13.1,3.3-25.5,8.5-37.1,15.4l-12.2-12.2c-3.8-3.8-8.8-5.8-14.1-5.8s-10.3,2.1-14.1,5.8
			l-20.9,20.9c-3.8,3.8-5.8,8.8-5.8,14.1s2.1,10.3,5.8,14.1l12.2,12.2c-6.9,11.6-12,24-15.4,37.1H91.2c-11,0-19.9,8.9-19.9,19.9
			v29.5c0,11,8.9,19.9,19.9,19.9h24.5c5,0,9.1-4.1,9.1-9.1s-4.1-9.1-9.1-9.1H91.2c-1,0-1.8-0.8-1.8-1.8v-29.5c0-1,0.8-1.8,1.8-1.8
			h24.5c4.3,0,8.1-3.1,8.9-7.3c3.1-15.8,9.3-30.7,18.3-44.1c2.4-3.6,1.9-8.4-1.1-11.5l-17.4-17.4c-0.4-0.4-0.5-0.9-0.5-1.2
			c0-0.3,0.1-0.8,0.5-1.2l20.9-20.9c0.4-0.4,0.9-0.5,1.2-0.5s0.8,0.1,1.3,0.5l17.4,17.4c3.1,3.1,7.9,3.5,11.5,1.1
			c13.4-9,28.3-15.1,44.1-18.3c4.2-0.8,7.3-4.6,7.3-8.9v-24.6c0-1,0.8-1.8,1.8-1.8h29.5c1,0,1.8,0.8,1.8,1.8v24.5
			c0,4.3,3.1,8.1,7.3,8.9c15.8,3.1,30.7,9.3,44.1,18.3c3.6,2.4,8.4,1.9,11.5-1.1l17.4-17.4c0.7-0.7,1.8-0.7,2.5,0l20.9,20.9
			c0.4,0.4,0.5,0.9,0.5,1.2c0,0.3-0.1,0.8-0.5,1.3l-17.4,17.4c-3.1,3.1-3.5,7.9-1.1,11.5c9,13.4,15.1,28.3,18.3,44.1
			c0.8,4.2,4.6,7.3,8.9,7.3h24.5c1,0,1.8,0.8,1.8,1.8v29.5c0,1-0.8,1.8-1.8,1.8h-24.5c-5,0-9.1,4.1-9.1,9.1s4.1,9.1,9.1,9.1h24.5
			c11,0,19.9-8.9,19.9-19.9v-29.5C418,340.35,409.1,331.45,398.2,331.45z"/>
		<path d="M81.8,101.05c2.4,0,4.7-1,6.4-2.7s2.7-4,2.7-6.4s-1-4.7-2.7-6.4c-1.7-1.7-4-2.7-6.4-2.7s-4.7,1-6.4,2.7
			c-1.7,1.7-2.7,4-2.7,6.4s1,4.7,2.7,6.4C77.1,100.15,79.4,101.05,81.8,101.05z"/>
		<path d="M113.8,101.05c2.4,0,4.7-1,6.4-2.7s2.7-4,2.7-6.4s-1-4.7-2.7-6.4c-1.7-1.7-4-2.7-6.4-2.7s-4.7,1-6.4,2.7s-2.7,4-2.7,6.4
			s1,4.7,2.7,6.4C109.1,100.15,111.4,101.05,113.8,101.05z"/>
		<path d="M49.8,101.05c2.4,0,4.7-1,6.4-2.7s2.7-4,2.7-6.4s-1-4.7-2.7-6.4c-1.7-1.7-4-2.7-6.4-2.7s-4.7,1-6.4,2.7s-2.7,4-2.7,6.4
			s1,4.7,2.7,6.4C45.1,100.15,47.4,101.05,49.8,101.05z"/>
	</g>
</g>
<g>
</g>
<g>
</g>
<g>
</g>
<g>
</g>
<g>
</g>
<g>
</g>
<g>
</g>
<g>
</g>
<g>
</g>
<g>
</g>
<g>
</g>
<g>
</g>
<g>
</g>
<g>
</g>
<g>
</g>
</svg>
