<?xml version="1.0" encoding="iso-8859-1"?>
<!-- Generator: Adobe Illustrator 19.0.0, SVG Export Plug-In . SVG Version: 6.00 Build 0)  -->
<svg version="1.1" id="Layer_1" xmlns="http://www.w3.org/2000/svg" xmlns:xlink="http://www.w3.org/1999/xlink" x="0px" y="0px"
	 viewBox="0 0 489 489" style="enable-background:new 0 0 489 489;" xml:space="preserve">
<g>
	<g>
		<path style="fill:#A7A9AC;" d="M269.6,420.35h-50.2c-48,0-86.9-38.9-86.9-86.9v-143c0-3.9,3.2-7.1,7.1-7.1h209.8
			c3.9,0,7.1,3.2,7.1,7.1v143C356.5,381.45,317.6,420.35,269.6,420.35z"/>
		<path d="M168.9,135.15c0,5,4.1,9.1,9.1,9.1s9.1-4.1,9.1-9.1c0-31.7,25.8-57.5,57.5-57.5s57.5,25.8,57.5,57.5c0,5,4.1,9.1,9.1,9.1
			s9.1-4.1,9.1-9.1c0-41.7-33.9-75.6-75.6-75.6S168.9,93.45,168.9,135.15z"/>
		<path d="M479.9,274.45H365.6v-37h28.9c22.2,0,40.4-18.1,40.4-40.3v-45.1c0-5-4.1-9.1-9.1-9.1s-9.1,4.1-9.1,9.1v45.1
			c0,12.3-10,22.2-22.2,22.2h-28.9v-21.7c0-12.9-10.5-23.4-23.4-23.4H146.8c-12.9,0-23.4,10.5-23.4,23.4v21.8H94.5
			c-12.3,0-22.2-10-22.2-22.2v-45.1c0-5-4.1-9.1-9.1-9.1s-9.1,4.1-9.1,9.1v45.1c0,22.2,18.1,40.3,40.4,40.3h28.9v37H9.1
			c-5,0-9.1,4.1-9.1,9.1s4.1,9.1,9.1,9.1h114.3v36.7H94.5c-22.2,0-40.4,18.1-40.4,40.3v45.1c0,5,4.1,9.1,9.1,9.1s9.1-4.1,9.1-9.1
			v-45.1c0-12.3,10-22.2,22.2-22.2h30.1c7.4,46.4,47.6,81.9,96,81.9h47.7c48.4,0,88.7-35.6,96-81.9h30.2c12.3,0,22.2,10,22.2,22.2
			v45.1c0,5,4.1,9.1,9.1,9.1s9.1-4.1,9.1-9.1v-45.1c0-22.2-18.1-40.3-40.4-40.3h-28.9v-36.7h114.3c5,0,9.1-4.1,9.1-9.1
			C488.9,278.55,484.9,274.45,479.9,274.45z M141.6,332.15v-134.5c0-2.9,2.4-5.3,5.3-5.3h88.6v218.9h-14.8
			C177,411.25,141.6,375.75,141.6,332.15z M268.3,411.25h-14.8v-218.9h88.6c2.9,0,5.3,2.4,5.3,5.3v134.5
			C347.4,375.75,312,411.25,268.3,411.25z"/>
	</g>
</g>
<g>
</g>
<g>
</g>
<g>
</g>
<g>
</g>
<g>
</g>
<g>
</g>
<g>
</g>
<g>
</g>
<g>
</g>
<g>
</g>
<g>
</g>
<g>
</g>
<g>
</g>
<g>
</g>
<g>
</g>
</svg>
