<?xml version="1.0" encoding="iso-8859-1"?>
<!-- Generator: Adobe Illustrator 19.0.0, SVG Export Plug-In . SVG Version: 6.00 Build 0)  -->
<svg version="1.1" id="Layer_1" xmlns="http://www.w3.org/2000/svg" xmlns:xlink="http://www.w3.org/1999/xlink" x="0px" y="0px"
	 viewBox="0 0 489.3 489.3" style="enable-background:new 0 0 489.3 489.3;" xml:space="preserve">
<g>
	<g>
		<path id="XMLID_61_" style="fill:#A7A9AC;" d="M228.3,243.35h122.5l65.8,63v-63h27.9c19.6,0,35.6-16,35.6-35.6v-132
			c0-19.6-16-35.6-35.6-35.6H228.3c-19.6,0-35.6,16-35.6,35.6v132C192.7,227.35,208.7,243.35,228.3,243.35z"/>
		<path d="M68.5,457.55c1.1,0.5,2.4,0.7,3.6,0.7c2.3,0,4.6-0.9,6.3-2.5l62.7-60H259c24.5,0,44.4-19.9,44.4-44.4v-66.9
			c0-5-4.1-9.1-9.1-9.1s-9.1,4.1-9.1,9.1v66.9c0,14.5-11.8,26.2-26.2,26.2H137.4c-2.3,0-4.6,0.9-6.3,2.5l-50,47.8v-41.1
			c0-5-4.1-9.1-9.1-9.1H44.4c-14.5,0-26.2-11.8-26.2-26.2v-131c0-14.5,11.8-26.3,26.2-26.3h107.3c5,0,9.1-4.1,9.1-9.1
			s-4.1-9.1-9.1-9.1H44.4c-24.5,0-44.4,19.9-44.4,44.4v131c0,24.5,19.9,44.4,44.4,44.4H63v53.5C63,452.85,65.2,456.15,68.5,457.55z"
			/>
		<path d="M347.2,252.45l63.2,60.5c1.7,1.6,4,2.5,6.3,2.5c1.2,0,2.4-0.2,3.6-0.7c3.3-1.4,5.5-4.7,5.5-8.3v-54h18.8
			c24.6,0,44.7-20,44.7-44.7v-132c0-24.6-20-44.7-44.7-44.7H228.3c-24.6,0-44.7,20-44.7,44.7v132c0,24.6,20,44.7,44.7,44.7
			L347.2,252.45L347.2,252.45z M201.8,207.75v-132c0-14.6,11.9-26.5,26.5-26.5h216.2c14.6,0,26.5,11.9,26.5,26.5v132
			c0,14.6-11.9,26.5-26.5,26.5h-27.9c-5,0-9.1,4.1-9.1,9.1v41.8l-50.5-48.3c-1.7-1.6-3.9-2.5-6.3-2.5H228.3
			C213.7,234.35,201.8,222.45,201.8,207.75z"/>
		<path d="M336.4,152.65c2.4,0,4.7-1,6.4-2.7c1.7-1.7,2.7-4,2.7-6.4s-1-4.7-2.7-6.4s-4-2.7-6.4-2.7s-4.7,1-6.4,2.7
			c-1.7,1.7-2.7,4-2.7,6.4s1,4.7,2.7,6.4C331.7,151.75,334,152.65,336.4,152.65z"/>
		<path d="M370.2,152.65c2.4,0,4.7-1,6.4-2.7c1.7-1.7,2.7-4,2.7-6.4s-1-4.7-2.7-6.4s-4-2.7-6.4-2.7s-4.7,1-6.4,2.7
			c-1.7,1.7-2.7,4-2.7,6.4s1,4.7,2.7,6.4C365.4,151.75,367.8,152.65,370.2,152.65z"/>
		<path d="M302.7,152.65c2.4,0,4.7-1,6.4-2.7c1.7-1.7,2.7-4,2.7-6.4s-1-4.7-2.7-6.4s-4-2.7-6.4-2.7s-4.7,1-6.4,2.7
			c-1.7,1.7-2.7,4-2.7,6.4s1,4.7,2.7,6.4C298,151.75,300.3,152.65,302.7,152.65z"/>
	</g>
</g>
<g>
</g>
<g>
</g>
<g>
</g>
<g>
</g>
<g>
</g>
<g>
</g>
<g>
</g>
<g>
</g>
<g>
</g>
<g>
</g>
<g>
</g>
<g>
</g>
<g>
</g>
<g>
</g>
<g>
</g>
</svg>
