<?xml version="1.0" encoding="iso-8859-1"?>
<!-- Generator: Adobe Illustrator 19.0.0, SVG Export Plug-In . SVG Version: 6.00 Build 0)  -->
<svg version="1.1" id="Layer_1" xmlns="http://www.w3.org/2000/svg" xmlns:xlink="http://www.w3.org/1999/xlink" x="0px" y="0px"
	 viewBox="0 0 489.366 489.366" style="enable-background:new 0 0 489.366 489.366;" xml:space="preserve">
<g>
	<g>
		<g id="XMLID_1164_">
			<path id="XMLID_1165_" style="fill:#3C92CA;" d="M183.283,350.366c-18.8,14.6-40.3,18.1-54.4,15.9c-4.6-0.7-5.6-7-1.4-9
				c13.5-6.6,21.4-21.2,25.9-31.5c-42.7-48.3-41-122.1,5.2-168.3c48-48,125.8-48,173.8,0s48,125.8,0,173.8
				C291.983,371.766,230.383,378.066,183.283,350.366z"/>
		</g>
		<path d="M405.283,404.266l-0.3-27.4c-0.1-5-4.2-9.1-9.2-9s-9,4.2-9,9.2l0.6,49.3c0,2.4,1,4.7,2.7,6.4c1.7,1.7,4,2.6,6.3,2.6h0.1
			l49.3-0.6c5-0.1,9-4.2,9-9.2c-0.1-5-4.1-9-9.1-9h-0.1l-27.4,0.3l1.3-1.4c45.6-46.7,70.4-108.4,69.6-173.7s-26.9-126.4-73.6-172.1
			c-33.4-32.7-75.2-55-120.8-64.5c-44.4-9.2-90.3-6.1-132.9,9.2c-4.7,1.7-7.2,6.9-5.5,11.6s6.9,7.2,11.6,5.5
			c82.3-29.5,172.3-9.9,234.8,51.2c43.2,42.3,67.4,98.8,68.1,159.3s-22.2,117.6-64.5,160.8L405.283,404.266z"/>
		<path d="M327.583,474.766c4.7-1.7,7.2-6.9,5.5-11.6s-6.9-7.2-11.6-5.5c-82.3,29.5-172.3,9.9-234.8-51.2
			c-43.2-42.3-67.4-98.8-68.1-159.3c-0.8-60.4,22-117.5,64.3-160.7l1.3-1.4l0.3,27.4c0.1,5,4.1,9,9.1,9h0.1c5-0.1,9-4.2,9-9.2
			l-0.6-49.3c-0.1-5-4.1-9-9.1-9h-0.1l-49.3,0.6c-5,0.1-9,4.2-9,9.2c0.1,5,4.1,9,9.1,9h0.1l27.4-0.3l-1.3,1.4
			c-45.6,46.7-70.4,108.4-69.6,173.7c0.7,65.3,26.9,126.4,73.6,172.1c33.4,32.7,75.2,55,120.8,64.5c16.6,3.5,33.4,5.2,50.1,5.2
			C272.883,489.166,300.883,484.366,327.583,474.766z"/>
		<path d="M123.583,349.166c-5.4,2.7-8.5,8.5-7.6,14.5s5.6,10.7,11.6,11.6c3,0.5,6.2,0.7,9.5,0.7c16,0,32.8-5.4,46.9-14.9
			c18.9,10,40.1,15.2,61.6,15.2c35.2,0,68.4-13.7,93.3-38.6c51.4-51.4,51.4-135.2,0-186.6c-24.9-24.9-58.1-38.6-93.3-38.6
			s-68.4,13.7-93.3,38.6c-47.8,47.8-51.5,124-9.4,176.1C137.283,338.266,130.783,345.666,123.583,349.166z M165.083,163.966
			c21.5-21.5,50.1-33.3,80.5-33.3s59,11.8,80.5,33.3c44.4,44.4,44.4,116.6,0,161c-21.5,21.5-50.1,33.3-80.5,33.3
			c-20.3,0-40.2-5.4-57.6-15.6c-1.4-0.8-3-1.3-4.6-1.3c-2,0-3.9,0.6-5.6,1.9c-13.1,10.2-26.3,13.4-34.7,14.3
			c7.2-6.6,13.4-15.9,18.7-28.1c1.4-3.2,0.8-7-1.5-9.6C120.483,274.866,122.583,206.366,165.083,163.966z"/>
		<path d="M244.783,253.766c2.4,0,4.7-1,6.4-2.7s2.7-4,2.7-6.4s-1-4.7-2.7-6.4s-4-2.7-6.4-2.7s-4.7,1-6.4,2.7s-2.7,4-2.7,6.4
			s1,4.7,2.7,6.4C240.083,252.766,242.383,253.766,244.783,253.766z"/>
		<path d="M278.483,253.766c2.4,0,4.7-1,6.4-2.7c1.7-1.7,2.7-4,2.7-6.4s-1-4.7-2.7-6.4s-4-2.7-6.4-2.7s-4.7,1-6.4,2.7
			c-1.7,1.7-2.7,4-2.7,6.4s1,4.7,2.7,6.4C273.783,252.766,276.183,253.766,278.483,253.766z"/>
		<path d="M211.083,253.766c2.4,0,4.7-1,6.4-2.7s2.7-4,2.7-6.4s-1-4.7-2.7-6.4s-4-2.7-6.4-2.7s-4.7,1-6.4,2.7s-2.7,4-2.7,6.4
			s1,4.7,2.7,6.4C206.283,252.766,208.683,253.766,211.083,253.766z"/>
	</g>
</g>
<g>
</g>
<g>
</g>
<g>
</g>
<g>
</g>
<g>
</g>
<g>
</g>
<g>
</g>
<g>
</g>
<g>
</g>
<g>
</g>
<g>
</g>
<g>
</g>
<g>
</g>
<g>
</g>
<g>
</g>
</svg>
