<?xml version="1.0" encoding="iso-8859-1"?>
<!-- Generator: Adobe Illustrator 19.0.0, SVG Export Plug-In . SVG Version: 6.00 Build 0)  -->
<svg version="1.1" id="Layer_1" xmlns="http://www.w3.org/2000/svg" xmlns:xlink="http://www.w3.org/1999/xlink" x="0px" y="0px"
	 viewBox="0 0 488.6 488.6" style="enable-background:new 0 0 488.6 488.6;" xml:space="preserve">
<g>
	<g>
		<circle style="fill:#A7A9AC;" cx="101.55" cy="389.4" r="24.3"/>
		<circle style="fill:#A7A9AC;" cx="387.15" cy="389.4" r="24.3"/>
		<path d="M163.35,380.3h-29.8c-4-14-16.8-24.3-32.1-24.3c-18.4,0-33.3,15-33.3,33.3c0,18.4,15,33.3,33.3,33.3
			c15.2,0,28.1-10.3,32.1-24.3h29.8c20,0,36.3-16.3,36.3-36.3v-55.6c0-5-4.1-9.1-9.1-9.1s-9.1,4.1-9.1,9.1V362
			C181.55,372.1,173.45,380.3,163.35,380.3z M101.55,404.6c-8.4,0-15.2-6.8-15.2-15.2c0-8.4,6.8-15.2,15.2-15.2s15.2,6.8,15.2,15.2
			C116.75,397.7,109.85,404.6,101.55,404.6z"/>
		<path d="M298.05,297.5c-5,0-9.1,4.1-9.1,9.1v55.6c0,20,16.3,36.3,36.3,36.3h29.8c4,14,16.8,24.3,32.1,24.3
			c18.4,0,33.3-15,33.3-33.3c0-18.4-15-33.3-33.3-33.3c-15.2,0-28.1,10.3-32.1,24.3h-29.7c-10,0-18.2-8.2-18.2-18.2v-55.6
			C307.15,301.5,303.05,297.5,298.05,297.5z M387.15,374.1c8.4,0,15.2,6.8,15.2,15.2c0,8.4-6.8,15.2-15.2,15.2
			c-8.4,0-15.2-6.8-15.2-15.2C371.95,381,378.85,374.1,387.15,374.1z"/>
		<circle style="fill:#3C92CA;" cx="244.35" cy="455.3" r="24.3"/>
		<path d="M254.25,0c-36.8,0-70.9,20.1-88.9,51.8c-3.7-0.8-7.4-1.1-11.3-1.1c-30.6,0-55.6,24.9-55.6,55.6c0,4.1,0.4,8.1,1.3,12.1
			c-20.1,14.2-32.4,37.7-32.4,62.7c0,41.8,33.5,79,73.2,81.2c0.2,0,0.3,0,0.5,0h197.8c0.2,0,0.4,0,0.6,0
			c45.9-3.2,81.8-42.6,81.8-89.5c0-41-28-77.3-66.2-87.1C347.25,36.4,304.95,0,254.25,0z M403.25,172.8c0,36.8-29,68.8-64.6,71.4
			h-197.3c-30.3-1.8-55.9-30.7-55.9-63.1c0-21,11.3-40.6,29.4-51.1c3.8-2.2,5.5-6.9,3.9-11c-1.5-4-2.2-8.3-2.2-12.8
			c0-20.7,16.8-37.5,37.5-37.5c4.4,0,8.7,0.8,12.8,2.2c4.4,1.6,9.3-0.4,11.4-4.6c13.8-29.3,43.7-48.2,76.1-48.2
			c43.6,0,79.6,32.6,83.7,75.9c0.4,4.1,3.5,7.4,7.5,8.1C378.35,107.7,403.25,138.1,403.25,172.8z"/>
		<path d="M244.35,297.5c-5,0-9.1,4.1-9.1,9.1v116.7c-13.7,3.9-23.9,16.4-24.3,31.2c-0.2,8.9,3.1,17.4,9.2,23.8
			c6.1,6.4,14.4,10.1,23.3,10.3h0.8l0,0c17.9,0,32.9-14.6,33.3-32.5c0.2-8.9-3.1-17.4-9.2-23.8c-4.2-4.4-9.4-7.5-15.1-9.1V306.5
			C253.45,301.5,249.35,297.5,244.35,297.5z M259.55,455.7c-0.2,8.2-7,14.8-15.2,14.8h-0.4c-4.1-0.1-7.8-1.8-10.6-4.7
			c-2.8-2.9-4.3-6.8-4.2-10.9c0.2-8.2,7-14.8,15.2-14.8h0.4c4.1,0.1,7.8,1.8,10.6,4.7C258.15,447.7,259.65,451.6,259.55,455.7z"/>
	</g>
</g>
<g>
</g>
<g>
</g>
<g>
</g>
<g>
</g>
<g>
</g>
<g>
</g>
<g>
</g>
<g>
</g>
<g>
</g>
<g>
</g>
<g>
</g>
<g>
</g>
<g>
</g>
<g>
</g>
<g>
</g>
</svg>
