<?xml version="1.0" encoding="iso-8859-1"?>
<!-- Generator: Adobe Illustrator 19.0.0, SVG Export Plug-In . SVG Version: 6.00 Build 0)  -->
<svg version="1.1" id="Layer_1" xmlns="http://www.w3.org/2000/svg" xmlns:xlink="http://www.w3.org/1999/xlink" x="0px" y="0px"
	 viewBox="0 0 489.3 489.3" style="enable-background:new 0 0 489.3 489.3;" xml:space="preserve">
<g>
	<g>
		<circle id="XMLID_1326_" style="fill:#A7A9AC;" cx="245.6" cy="442.5" r="37.8"/>
		<path d="M124.3,301.9c0.2,0,0.3,0,0.5,0h229.8c0.2,0,0.4,0,0.6,0c25.3-1.8,48.9-13.5,66.5-32.8c17.5-19.3,27.1-44,27.1-69.7
			c0-47.3-32.6-89.2-76.8-100.1C363.3,42.3,314.6,0,256.1,0C213.5,0,174,23.4,153.5,60.3c-4.5-1-9.1-1.5-13.8-1.5
			c-34.8,0-63.1,28.3-63.1,63.1c0,5,0.6,9.9,1.7,14.6c-23.5,16.4-37.8,43.6-37.8,72.5C40.6,256.9,79,299.4,124.3,301.9z M93.7,148.3
			c3.8-2.2,5.5-6.9,3.9-11c-1.8-4.8-2.7-10-2.7-15.4c0-24.8,20.2-45,45-45c5.3,0,10.5,0.9,15.3,2.7c4.4,1.6,9.3-0.4,11.4-4.6
			c16.3-34.6,51.5-56.9,89.7-56.9c51.4,0,93.8,38.5,98.7,89.5c0.4,4.1,3.5,7.4,7.5,8.1c39,6.7,68.4,42.6,68.4,83.6
			c0,43.5-34.3,81.3-76.5,84.5H125.1c-36-2.2-66.3-36.3-66.3-74.8C58.8,184.2,72.1,160.9,93.7,148.3z"/>
		<path d="M292.4,442.5c0-22.7-16.3-41.7-37.8-46v-46.6c0-5-4.1-9.1-9.1-9.1s-9.1,4.1-9.1,9.1v46.6c-21.5,4.2-37.8,23.2-37.8,46
			c0,25.8,21,46.8,46.8,46.8S292.4,468.4,292.4,442.5z M216.9,442.5c0-15.8,12.9-28.7,28.7-28.7s28.7,12.9,28.7,28.7
			c0,15.8-12.9,28.7-28.7,28.7C229.7,471.3,216.9,458.4,216.9,442.5z"/>
		<path d="M184.9,442.5c0-5-4.1-9.1-9.1-9.1s-9.1,4.1-9.1,9.1s4.1,9.1,9.1,9.1S184.9,447.6,184.9,442.5z"/>
		<path d="M121,442.5c0-5-4-9.1-9.1-9.1c-5,0-9.1,4.1-9.1,9.1s4.1,9.1,9.1,9.1S121,447.6,121,442.5z"/>
		<path d="M134.8,442.5c0,5,4.1,9.1,9.1,9.1s9.1-4,9.1-9.1c0-5-4-9.1-9.1-9.1C138.9,433.5,134.8,437.5,134.8,442.5z"/>
		<path d="M73.5,436.1c-1.7,1.7-2.6,4-2.6,6.4s1,4.7,2.6,6.4c1.7,1.7,4,2.7,6.4,2.7s4.7-1,6.4-2.7c1.7-1.7,2.7-4,2.7-6.4
			s-1-4.7-2.7-6.4c-1.7-1.7-4-2.7-6.4-2.7C77.6,433.5,75.2,434.4,73.5,436.1z"/>
		<path d="M417.6,448.9c1.7-1.7,2.7-4,2.7-6.4s-1-4.7-2.7-6.4c-1.7-1.7-4-2.7-6.4-2.7s-4.7,1-6.4,2.7c-1.7,1.7-2.7,4-2.7,6.4
			s1,4.7,2.7,6.4c1.7,1.7,4,2.7,6.4,2.7S415.9,450.6,417.6,448.9z"/>
		<path d="M388.3,442.5c0-5-4-9.1-9.1-9.1c-5,0-9.1,4.1-9.1,9.1s4.1,9.1,9.1,9.1S388.3,447.6,388.3,442.5z"/>
		<path d="M347.3,451.6c5,0,9.1-4,9.1-9.1c0-5-4-9.1-9.1-9.1c-5,0-9.1,4.1-9.1,9.1C338.2,447.6,342.3,451.6,347.3,451.6z"/>
		<path d="M324.4,442.5c0-5-4-9.1-9.1-9.1c-5,0-9,4.1-9,9.1s4,9.1,9,9.1S324.4,447.6,324.4,442.5z"/>
	</g>
</g>
<g>
</g>
<g>
</g>
<g>
</g>
<g>
</g>
<g>
</g>
<g>
</g>
<g>
</g>
<g>
</g>
<g>
</g>
<g>
</g>
<g>
</g>
<g>
</g>
<g>
</g>
<g>
</g>
<g>
</g>
</svg>
