<?xml version="1.0" encoding="iso-8859-1"?>
<!-- Generator: Adobe Illustrator 19.0.0, SVG Export Plug-In . SVG Version: 6.00 Build 0)  -->
<svg version="1.1" id="Layer_1" xmlns="http://www.w3.org/2000/svg" xmlns:xlink="http://www.w3.org/1999/xlink" x="0px" y="0px"
	 viewBox="0 0 489.701 489.701" style="enable-background:new 0 0 489.701 489.701;" xml:space="preserve">
<g>
	<g>
		<path style="fill:#3C92CA;" d="M327.201,251.85h-164.8c-4,0-7.2-3.2-7.2-7.2v-113.5c0-4,3.2-7.2,7.2-7.2h164.8
			c4,0,7.2,3.2,7.2,7.2v113.5C334.401,248.55,331.201,251.85,327.201,251.85z"/>
		<path d="M23.901,396.25h211.9v68.7h-91.8c-5,0-9.1,4.1-9.1,9.1s4.1,9.1,9.1,9.1h201.7c5,0,9.1-4.1,9.1-9.1s-4.1-9.1-9.1-9.1h-91.8
			v-68.7h211.9c13.2,0,23.9-10.7,23.9-23.9V87.95c0-13.2-10.7-23.9-23.9-23.9h-100.8c-5,0-9.1,4.1-9.1,9.1s4.1,9.1,9.1,9.1h100.7
			c3.2,0,5.8,2.6,5.8,5.8v284.4c0,3.2-2.6,5.8-5.8,5.8h-441.8c-3.2,0-5.8-2.6-5.8-5.8V87.95c0-3.2,2.6-5.8,5.8-5.8h101
			c5,0,9.1-4.1,9.1-9.1s-4.1-9.1-9.1-9.1h-101c-13.2,0-23.9,10.7-23.9,23.9v284.4C-0.099,385.55,10.701,396.25,23.901,396.25z"/>
		<path d="M169.701,260.85h150.2c13,0,23.6-10.6,23.6-23.6v-98.9c0-13-10.6-23.6-23.6-23.6h-2.8v-35.9c0-39.9-32.4-72.3-72.3-72.3
			s-72.3,32.4-72.3,72.3v36h-2.8c-13,0-23.6,10.6-23.6,23.6v98.9C146.201,250.35,156.701,260.85,169.701,260.85z M190.601,78.85
			c0-29.9,24.3-54.2,54.2-54.2s54.2,24.3,54.2,54.2v36h-108.4L190.601,78.85L190.601,78.85z M164.301,138.45c0-3,2.4-5.4,5.4-5.4
			h150.2c3,0,5.4,2.4,5.4,5.4v98.9c0,3-2.4,5.4-5.4,5.4h-150.2c-3,0-5.4-2.4-5.4-5.4L164.301,138.45L164.301,138.45z"/>
		<path d="M236.901,189.25c1,0.8,1.3,1.5,1.3,2.7c0,5.7,0,11.5,0,17.2l0,0c0,4.7,5,8.3,10,5.8c2.1-1.1,3.3-3.4,3.2-5.8l0,0
			c0-5.7,0-11.5,0-17.2c0-1.3,0.3-2.1,1.4-2.8c3.6-2.6,5.4-6.3,5.4-10.7c-0.1-6.5-4.6-11.7-11-13c-5.8-1.2-12,2.1-14.5,7.7
			C230.001,178.85,231.701,185.35,236.901,189.25z"/>
	</g>
</g>
<g>
</g>
<g>
</g>
<g>
</g>
<g>
</g>
<g>
</g>
<g>
</g>
<g>
</g>
<g>
</g>
<g>
</g>
<g>
</g>
<g>
</g>
<g>
</g>
<g>
</g>
<g>
</g>
<g>
</g>
</svg>
