<?xml version="1.0" encoding="iso-8859-1"?>
<!-- Generator: Adobe Illustrator 19.0.0, SVG Export Plug-In . SVG Version: 6.00 Build 0)  -->
<svg version="1.1" id="Layer_1" xmlns="http://www.w3.org/2000/svg" xmlns:xlink="http://www.w3.org/1999/xlink" x="0px" y="0px"
	 viewBox="0 0 490 490" style="enable-background:new 0 0 490 490;" xml:space="preserve">
<g>
	<g>
		<circle id="XMLID_4231_" style="fill:#A7A9AC;" cx="72" cy="376.65" r="63"/>
		<circle id="XMLID_4230_" style="fill:#A7A9AC;" cx="418" cy="376.65" r="63"/>
		<circle id="XMLID_4216_" style="fill:#A7A9AC;" cx="241.8" cy="75.15" r="63"/>
		<path d="M339.3,454.05c-2.2-4.5-7.6-6.4-12.1-4.2c-25.9,12.5-53.8,18.9-82.8,18.9c-43.9,0-86.2-15.1-120.1-42.6
			c12.2-12.9,19.7-30.3,19.7-49.4c0-39.7-32.3-72-72-72s-72,32.3-72,72s32.3,72,72,72c13.9,0,27-4,38-10.9c37.6,31.7,85,49,134.4,49
			c31.8,0,62.3-7,90.7-20.7C339.6,463.95,341.5,458.55,339.3,454.05z M18.1,376.65c0-29.7,24.2-53.9,53.9-53.9s53.9,24.2,53.9,53.9
			s-24.2,53.9-53.9,53.9S18.1,406.35,18.1,376.65z"/>
		<path d="M36.1,268.45c-0.2,5,3.7,9.2,8.8,9.4c0.1,0,0.2,0,0.3,0c4.9,0,8.9-3.9,9.1-8.8c2.2-64.9,36.7-123.6,92.2-157.1
			c8.7-5.2,17.8-9.8,27.1-13.6c9.7,28.3,36.6,48.8,68.1,48.8c39.7,0,72-32.3,72-72s-32.3-72-72-72s-72,32.3-72,72
			c0,1.8,0.1,3.5,0.2,5.2c-11.3,4.4-22.4,9.8-32.8,16.1C76.3,133.05,38.5,197.35,36.1,268.45z M241.8,21.25
			c29.7,0,53.9,24.2,53.9,53.9s-24.2,53.8-53.9,53.8s-53.9-24.2-53.9-53.9S212,21.25,241.8,21.25z"/>
		<path d="M418,304.65c-39.7,0-72,32.3-72,72s32.3,72,72,72s72-32.3,72-72c0-27.9-16-52.2-39.3-64.1c2-11.8,3.1-23.8,3.1-35.8
			c0-71-35.6-136.5-95.2-175.3c-4.2-2.7-9.8-1.5-12.5,2.7s-1.5,9.8,2.7,12.5c54.5,35.4,87,95.2,87,160.1c0,9.9-0.8,19.8-2.3,29.6
			C428.5,305.25,423.3,304.65,418,304.65z M471.9,376.65c0,29.7-24.2,53.9-53.9,53.9s-53.9-24.2-53.9-53.9
			c0-29.7,24.2-53.9,53.9-53.9C447.7,322.75,471.9,346.95,471.9,376.65z"/>
	</g>
</g>
<g>
</g>
<g>
</g>
<g>
</g>
<g>
</g>
<g>
</g>
<g>
</g>
<g>
</g>
<g>
</g>
<g>
</g>
<g>
</g>
<g>
</g>
<g>
</g>
<g>
</g>
<g>
</g>
<g>
</g>
</svg>
