<?xml version="1.0" encoding="iso-8859-1"?>
<!-- Generator: Adobe Illustrator 19.0.0, SVG Export Plug-In . SVG Version: 6.00 Build 0)  -->
<svg version="1.1" id="Layer_1" xmlns="http://www.w3.org/2000/svg" xmlns:xlink="http://www.w3.org/1999/xlink" x="0px" y="0px"
	 viewBox="0 0 487.4 487.4" style="enable-background:new 0 0 487.4 487.4;" xml:space="preserve">
<g>
	<g>
		<path id="XMLID_175_" style="fill:#A7A9AC;" d="M243.6,126.4L243.6,126.4c-32.4,0-58.7-26.3-58.7-58.7l0,0
			c0-32.4,26.3-58.7,58.7-58.7l0,0c32.4,0,58.7,26.3,58.7,58.7l0,0C302.3,100.1,276,126.4,243.6,126.4z"/>
		<path id="XMLID_171_" style="fill:#3C92CA;" d="M243.6,302.4L243.6,302.4c-32.4,0-58.7-26.3-58.7-58.7l0,0
			c0-32.4,26.3-58.7,58.7-58.7l0,0c32.4,0,58.7,26.3,58.7,58.7l0,0C302.3,276.1,276,302.4,243.6,302.4z"/>
		<path id="XMLID_169_" style="fill:#A7A9AC;" d="M243.6,478.4L243.6,478.4c-32.4,0-58.7-26.3-58.7-58.7l0,0
			c0-32.4,26.3-58.7,58.7-58.7l0,0c32.4,0,58.7,26.3,58.7,58.7l0,0C302.3,452.1,276,478.4,243.6,478.4z"/>
		<path d="M465.7,56.5h-95.4L409,17.8c3.5-3.5,3.5-9.3,0-12.8s-9.3-3.5-12.8,0L342,59.2c-1.7,1.7-2.7,4-2.7,6.4c0,2.4,1,4.7,2.7,6.4
			l54.2,54.2c1.8,1.8,4.1,2.7,6.4,2.7s4.6-0.9,6.4-2.7c3.5-3.5,3.5-9.3,0-12.8l-38.7-38.7h86.4v336h-146
			c-4.4-33.1-32.8-58.7-67.1-58.7c-37.3,0-67.7,30.4-67.7,67.7s30.4,67.7,67.7,67.7c34.3,0,62.7-25.6,67.1-58.7h155
			c5,0,9.1-4.1,9.1-9.1v-354C474.8,60.5,470.7,56.5,465.7,56.5z M243.6,469.3c-27.4,0-49.6-22.3-49.6-49.6
			c0-27.3,22.3-49.6,49.6-49.6s49.6,22.3,49.6,49.6S271,469.3,243.6,469.3z"/>
		<path d="M91.3,361.2c-3.5-3.5-9.3-3.5-12.8,0s-3.5,9.3,0,12.8l38.7,38.7H30.7v-336h145.8c4.4,33.1,32.8,58.7,67.1,58.7
			c37.3,0,67.7-30.4,67.7-67.7S280.9,0,243.6,0c-34.3,0-62.7,25.6-67.1,58.7H21.7c-5,0-9.1,4.1-9.1,9.1v354.1c0,5,4.1,9.1,9.1,9.1
			h95.6l-38.7,38.7c-3.5,3.5-3.5,9.3,0,12.8c1.8,1.8,4.1,2.7,6.4,2.7s4.6-0.9,6.4-2.7l54.2-54.2c1.7-1.7,2.7-4,2.7-6.4
			s-1-4.7-2.7-6.4L91.3,361.2z M243.6,18.1c27.4,0,49.6,22.3,49.6,49.6s-22.3,49.6-49.6,49.6S194,95,194,67.7S216.3,18.1,243.6,18.1
			z"/>
		<path d="M243.6,176c-37.3,0-67.7,30.4-67.7,67.7s30.4,67.7,67.7,67.7s67.7-30.4,67.7-67.7C311.4,206.4,281,176,243.6,176z
			 M243.6,293.3c-27.4,0-49.6-22.3-49.6-49.6s22.3-49.6,49.6-49.6s49.6,22.3,49.6,49.6S271,293.3,243.6,293.3z"/>
	</g>
</g>
<g>
</g>
<g>
</g>
<g>
</g>
<g>
</g>
<g>
</g>
<g>
</g>
<g>
</g>
<g>
</g>
<g>
</g>
<g>
</g>
<g>
</g>
<g>
</g>
<g>
</g>
<g>
</g>
<g>
</g>
</svg>
