<?xml version="1.0" encoding="iso-8859-1"?>
<!-- Generator: Adobe Illustrator 19.0.0, SVG Export Plug-In . SVG Version: 6.00 Build 0)  -->
<svg version="1.1" id="Layer_1" xmlns="http://www.w3.org/2000/svg" xmlns:xlink="http://www.w3.org/1999/xlink" x="0px" y="0px"
	 viewBox="0 0 491.1 491.1" style="enable-background:new 0 0 491.1 491.1;" xml:space="preserve">
<g>
	<g>
		<path id="XMLID_274_" style="fill:#3C92CA;" d="M340.1,265.95l-12.2-205.1c-1-16.9-15-30.1-32-30.1h-54.7h8.5H195
			c-16.9,0-31,13.2-32,30.1l-12.2,205.1"/>
		<path d="M96.5,256.95H9.1c-5,0-9.1,4.1-9.1,9.1s4.1,9.1,9.1,9.1h22v37.6c0,5,4.1,9.1,9.1,9.1h22.5v138.7c0,5,4.1,9.1,9.1,9.1h31.6
			c5,0,9.1-4.1,9.1-9.1s-4.1-9.1-9.1-9.1H80.8v-129.8h328.6v129.6h-22.5c-5,0-9.1,4.1-9.1,9.1s4.1,9.1,9.1,9.1h31.6
			c5,0,9.1-4.1,9.1-9.1v-138.7h23.3c5,0,9.1-4.1,9.1-9.1v-37.6h22c5,0,9.1-4.1,9.1-9.1s-4.1-9.1-9.1-9.1h-87.5l-10.7-59.2
			c-2.4-13.3-14-23-27.5-23h-12.5L337,60.05c-1.3-21.7-19.3-38.6-41-38.6H195.1c-21.7,0-39.7,17-41,38.6l-6.8,114.5h-12.5
			c-13.5,0-25.1,9.7-27.5,23L96.5,256.95z M441.7,303.55H49.3v-28.5h54.8l0,0l0,0h282.7l0,0l0,0h54.8v28.5H441.7z M356.2,192.85
			c4.8,0,8.8,3.4,9.7,8.1l10.1,55.9h-27.4l-3.8-64H356.2L356.2,192.85z M172.2,61.35c0.7-12.1,10.8-21.6,22.9-21.6h100.8
			c12.1,0,22.2,9.5,22.9,21.6l11.7,195.6h-170L172.2,61.35z M125.1,200.95c0.8-4.7,4.9-8.1,9.7-8.1h11.4l-3.8,64H115L125.1,200.95z"
			/>
		<path d="M202.1,129.65h84.6c5,0,9.1-4.1,9.1-9.1s-4.1-9.1-9.1-9.1h-84.6c-5,0-9.1,4.1-9.1,9.1S197.1,129.65,202.1,129.65z"/>
		<path d="M340.1,361.55c5,0,9.1-4.1,9.1-9.1s-4.1-9.1-9.1-9.1H150.9c-5,0-9.1,4.1-9.1,9.1s4.1,9.1,9.1,9.1h85.6v39.8h-41.6
			c-5,0-9.1,4.1-9.1,9.1v50c0,5,4.1,9.1,9.1,9.1s9.1-4.1,9.1-9.1v-40.9h32.6v40.9c0,5,4.1,9.1,9.1,9.1s9.1-4.1,9.1-9.1v-40.9h32.6
			v40.9c0,5,4.1,9.1,9.1,9.1s9.1-4.1,9.1-9.1v-50c0-5-4.1-9.1-9.1-9.1h-41.6v-39.8H340.1z"/>
	</g>
</g>
<g>
</g>
<g>
</g>
<g>
</g>
<g>
</g>
<g>
</g>
<g>
</g>
<g>
</g>
<g>
</g>
<g>
</g>
<g>
</g>
<g>
</g>
<g>
</g>
<g>
</g>
<g>
</g>
<g>
</g>
</svg>
