<?xml version="1.0" encoding="iso-8859-1"?>
<!-- Generator: Adobe Illustrator 19.0.0, SVG Export Plug-In . SVG Version: 6.00 Build 0)  -->
<svg version="1.1" id="Layer_1" xmlns="http://www.w3.org/2000/svg" xmlns:xlink="http://www.w3.org/1999/xlink" x="0px" y="0px"
	 viewBox="0 0 489.925 489.925" style="enable-background:new 0 0 489.925 489.925;" xml:space="preserve">
<g>
	<g>
		<circle style="fill:#3C92CA;" cx="244.963" cy="244.925" r="58.8"/>
		<g>
			<path d="M244.963,312.725c-37.4,0-67.8-30.4-67.8-67.8s30.4-67.8,67.8-67.8s67.8,30.4,67.8,67.8S282.363,312.725,244.963,312.725
				z M244.963,195.225c-27.4,0-49.7,22.3-49.7,49.7s22.3,49.7,49.7,49.7s49.7-22.3,49.7-49.7S272.363,195.225,244.963,195.225z"/>
		</g>
		<path d="M244.963,137.325c5,0,9.1-4.1,9.1-9.1v-97.3l20.2,20.2c1.8,1.8,4.1,2.7,6.4,2.7s4.6-0.9,6.4-2.7c3.5-3.5,3.5-9.3,0-12.8
			l-35.7-35.7c-3.5-3.5-9.3-3.5-12.8,0l-35.7,35.7c-3.5,3.5-3.5,9.3,0,12.8s9.3,3.5,12.8,0l20.2-20.2v97.3
			C235.863,133.325,239.963,137.325,244.963,137.325z"/>
		<path d="M202.863,451.525l35.7,35.7c1.8,1.8,4.1,2.7,6.4,2.7c2.3,0,4.6-0.9,6.4-2.7l35.7-35.7c3.5-3.5,3.5-9.3,0-12.8
			s-9.3-3.5-12.8,0l-20.2,20.2v-97.3c0-5-4.1-9.1-9.1-9.1s-9.1,4.1-9.1,9.1v97.3l-20.2-20.2c-3.5-3.5-9.3-3.5-12.8,0
			S199.363,447.925,202.863,451.525z"/>
		<path d="M38.363,287.025c1.8,1.8,4.1,2.7,6.4,2.7c2.3,0,4.6-0.9,6.4-2.7c3.5-3.5,3.5-9.3,0-12.8l-20.2-20.2h97.3
			c5,0,9.1-4.1,9.1-9.1s-4.1-9.1-9.1-9.1h-97.3l20.2-20.2c3.5-3.5,3.5-9.3,0-12.8s-9.3-3.5-12.8,0l-35.7,35.7
			c-3.5,3.5-3.5,9.3,0,12.8L38.363,287.025z"/>
		<path d="M352.563,244.925c0,5,4.1,9.1,9.1,9.1h97.3l-20.2,20.2c-3.5,3.5-3.5,9.3,0,12.8c1.8,1.8,4.1,2.7,6.4,2.7s4.6-0.9,6.4-2.7
			l35.7-35.7c3.5-3.5,3.5-9.3,0-12.8l-35.7-35.7c-3.5-3.5-9.3-3.5-12.8,0s-3.5,9.3,0,12.8l20.2,20.2h-97.3
			C356.563,235.825,352.563,239.925,352.563,244.925z"/>
		<path d="M137.763,78.125c0-5-4.1-9.1-9.1-9.1h-50.5c-5,0-9.1,4.1-9.1,9.1v50.5c0,5,4.1,9.1,9.1,9.1s9.1-4.1,9.1-9.1v-28.6
			l68.8,68.8c1.8,1.8,4.1,2.7,6.4,2.7s4.6-0.9,6.4-2.7c3.5-3.5,3.5-9.3,0-12.8l-68.8-68.8h28.6
			C133.663,87.225,137.763,83.125,137.763,78.125z"/>
		<path d="M321.063,333.825l68.8,68.8h-28.6c-5,0-9.1,4.1-9.1,9.1s4.1,9.1,9.1,9.1h50.5c5,0,9.1-4.1,9.1-9.1v-50.5
			c0-5-4.1-9.1-9.1-9.1s-9.1,4.1-9.1,9.1v28.6l-68.8-68.8c-3.5-3.5-9.3-3.5-12.8,0C317.463,324.525,317.463,330.225,321.063,333.825
			z"/>
		<path d="M78.163,352.125c-5,0-9.1,4.1-9.1,9.1v50.5c0,5,4.1,9.1,9.1,9.1h50.5c5,0,9.1-4.1,9.1-9.1s-4.1-9.1-9.1-9.1h-28.6
			l68.8-68.8c3.5-3.5,3.5-9.3,0-12.8s-9.3-3.5-12.8,0l-68.8,68.8v-28.6C87.263,356.225,83.163,352.125,78.163,352.125z"/>
		<path d="M321.063,168.825c1.8,1.8,4.1,2.7,6.4,2.7s4.6-0.9,6.4-2.7l68.8-68.8v28.6c0,5,4.1,9.1,9.1,9.1s9.1-4.1,9.1-9.1v-50.5
			c0-5-4.1-9.1-9.1-9.1h-50.5c-5,0-9.1,4.1-9.1,9.1s4.1,9.1,9.1,9.1h28.6l-68.8,68.8
			C317.463,159.625,317.463,165.325,321.063,168.825z"/>
	</g>
</g>
<g>
</g>
<g>
</g>
<g>
</g>
<g>
</g>
<g>
</g>
<g>
</g>
<g>
</g>
<g>
</g>
<g>
</g>
<g>
</g>
<g>
</g>
<g>
</g>
<g>
</g>
<g>
</g>
<g>
</g>
</svg>
