<?xml version="1.0" encoding="iso-8859-1"?>
<!-- Generator: Adobe Illustrator 19.0.0, SVG Export Plug-In . SVG Version: 6.00 Build 0)  -->
<svg version="1.1" id="Layer_1" xmlns="http://www.w3.org/2000/svg" xmlns:xlink="http://www.w3.org/1999/xlink" x="0px" y="0px"
	 viewBox="0 0 485.027 485.027" style="enable-background:new 0 0 485.027 485.027;" xml:space="preserve">
<g>
	<g>
		<path id="XMLID_113_" style="fill:#A7A9AC;" d="M375.627,25.064h96.4c2.1,0,3.9,1.8,3.9,3.9v248.4c0,2.1-1.8,3.9-3.9,3.9h-96.4
			c-2.1,0-3.9-1.8-3.9-3.9v-248.4C371.727,26.864,373.427,25.064,375.627,25.064z"/>
		<path d="M200.427,464.664c13,9.5,28.2,12.1,41.1,12.1c15.1,0,26.8-3.6,27.7-3.9c3.8-1.2,6.3-4.7,6.3-8.6v-85.7
			c0-29.1,13.8-53.7,41.1-73.2c21.1-15.1,42.7-21.3,42.9-21.4c0.2,0,0.3-0.1,0.5-0.2l5.1-1.7c3,4.9,8.3,8.2,14.5,8.2h88.5
			c9.3,0,16.9-7.6,16.9-16.9v-240.5c0-9.3-7.6-16.9-16.9-16.9h-88.6c-8,0-14.7,5.6-16.4,13c-11.9-12.7-28.8-20.7-47.6-20.7h-209.8
			c-44.6,0-73.1,23.3-78.1,64l-26.8,170.2c-3.9,24.7,6.2,49.7,25.8,63.7c11.1,8,24.2,12.2,37.9,12.2h109.1v79.6
			C173.627,429.164,182.627,451.564,200.427,464.664z M380.827,34.164h86.1v238.1h-86.1V34.164z M64.527,300.264
			c-9.9,0-19.3-3-27.3-8.8c-14-10.1-21.3-28.2-18.4-46.2l26.7-170.3c0-0.1,0-0.2,0-0.3c4.9-39.8,35.4-48.2,60.2-48.2h209.8
			c26,0,47.1,21.1,47.1,47.1v190.2l-8.3,2.8c-2.9,0.8-25.2,7.6-47.8,23.7c-32.1,22.8-49.1,53.3-49.1,88.2v78.6
			c-10.3,2-31.1,4.1-46.3-7.1c-12.8-9.4-19.3-26.9-19.3-52v-88.7c0-5-4.1-9.1-9.1-9.1h-118.2L64.527,300.264L64.527,300.264z"/>
	</g>
</g>
<g>
</g>
<g>
</g>
<g>
</g>
<g>
</g>
<g>
</g>
<g>
</g>
<g>
</g>
<g>
</g>
<g>
</g>
<g>
</g>
<g>
</g>
<g>
</g>
<g>
</g>
<g>
</g>
<g>
</g>
</svg>
