<?xml version="1.0" encoding="iso-8859-1"?>
<!-- Generator: Adobe Illustrator 19.0.0, SVG Export Plug-In . SVG Version: 6.00 Build 0)  -->
<svg version="1.1" id="Layer_1" xmlns="http://www.w3.org/2000/svg" xmlns:xlink="http://www.w3.org/1999/xlink" x="0px" y="0px"
	 viewBox="0 0 488.6 488.6" style="enable-background:new 0 0 488.6 488.6;" xml:space="preserve">
<g>
	<g>
		<circle id="XMLID_1909_" style="fill:#A7A9AC;" cx="244.3" cy="444.2" r="35.3"/>
		<circle id="XMLID_1907_" style="fill:#A7A9AC;" cx="244.3" cy="44.4" r="35.3"/>
		<circle id="XMLID_1905_" style="fill:#A7A9AC;" cx="444.2" cy="244.3" r="35.3"/>
		<circle id="XMLID_1903_" style="fill:#A7A9AC;" cx="44.4" cy="244.3" r="35.3"/>
		<path d="M244.3,346.8c-5,0-9.1,4.1-9.1,9.1v44.8c-20.1,4.2-35.3,22.1-35.3,43.5c0,24.5,19.9,44.4,44.4,44.4s44.4-19.9,44.4-44.4
			c0-21.4-15.2-39.3-35.3-43.5v-44.8C253.4,350.9,249.3,346.8,244.3,346.8z M270.6,444.2c0,14.5-11.8,26.3-26.3,26.3
			S218,458.7,218,444.2s11.8-26.3,26.3-26.3C258.8,417.9,270.6,429.7,270.6,444.2z"/>
		<path d="M348.5,361.3c-4.7,7.2-7.3,15.5-7.3,24.3c0,11.9,4.6,23,13,31.4c8.4,8.4,19.5,13,31.4,13s23-4.6,31.4-13
			c8.4-8.4,13-19.5,13-31.4c0-11.9-4.6-23-13-31.4c-8.4-8.4-19.5-13-31.4-13c-8.8,0-17.2,2.5-24.3,7.3l-31.7-31.7
			c-3.5-3.5-9.3-3.5-12.8,0s-3.5,9.3,0,12.8L348.5,361.3z M404.2,367.1c10.2,10.2,10.2,26.9,0,37.2c-5,5-11.6,7.7-18.6,7.7
			s-13.6-2.7-18.6-7.7c-10.2-10.2-10.2-26.9,0-37.1l0,0l0,0c5-5,11.6-7.7,18.6-7.7C392.7,359.4,399.3,362.1,404.2,367.1z"/>
		<path d="M316.8,171.8c1.8,1.8,4.1,2.7,6.4,2.7s4.6-0.9,6.4-2.7l31.7-31.7c7.2,4.7,15.5,7.3,24.3,7.3c11.9,0,23-4.6,31.4-13
			s13-19.5,13-31.4s-4.6-23-13-31.4s-19.5-13-31.4-13s-23,4.6-31.4,13s-13,19.5-13,31.4c0,8.8,2.5,17.2,7.3,24.3L316.8,159
			C313.3,162.5,313.3,168.3,316.8,171.8z M367.1,84.4c5-5,11.6-7.7,18.6-7.7s13.6,2.7,18.6,7.7c10.2,10.2,10.2,26.9,0,37.2
			c-5,5-11.6,7.7-18.6,7.7s-13.6-2.7-18.6-7.7l0,0l0,0C356.8,111.3,356.8,94.6,367.1,84.4z"/>
		<path d="M171.8,316.8c-3.5-3.5-9.3-3.5-12.8,0l-31.7,31.7c-7.2-4.7-15.5-7.3-24.3-7.3c-11.9,0-23,4.6-31.4,13
			c-8.4,8.4-13,19.5-13,31.4c0,11.9,4.6,23,13,31.4c8.4,8.4,19.5,13,31.4,13s23-4.6,31.4-13c8.4-8.4,13-19.5,13-31.4
			c0-8.8-2.5-17.2-7.3-24.3l31.7-31.7C175.3,326.1,175.3,320.3,171.8,316.8z M121.5,404.2c-5,5-11.6,7.7-18.6,7.7
			s-13.6-2.7-18.6-7.7c-10.2-10.2-10.2-26.9,0-37.2c5-5,11.6-7.7,18.6-7.7s13.6,2.7,18.6,7.7l0,0l0,0
			C131.8,377.3,131.8,394,121.5,404.2z"/>
		<path d="M255.8,235h-23c-8.9,0-16.1-7.2-16.1-16.1c0-8.9,7.2-16.1,16.1-16.1h40.5c5,0,9.1-4.1,9.1-9.1s-4.1-9.1-9.1-9.1h-20v-15
			c0-5-4.1-9.1-9.1-9.1s-9.1,4.1-9.1,9.1v15h-2.4c-18.9,0-34.3,15.4-34.3,34.3s15.4,34.3,34.3,34.3h23c8.9,0,16.1,7.2,16.1,16.1
			c0,8.9-7.2,16.1-16.1,16.1h-41.3c-5,0-9.1,4.1-9.1,9.1s4.1,9.1,9.1,9.1h20.7v15.3c0,5,4.1,9.1,9.1,9.1s9.1-4.1,9.1-9.1v-15.3h2.4
			c18.9,0,34.3-15.4,34.3-34.3C290,250.4,274.7,235,255.8,235z"/>
		<path d="M199.9,44.4c0,21.4,15.2,39.3,35.3,43.5v44.8c0,5,4.1,9.1,9.1,9.1s9.1-4.1,9.1-9.1V87.9c20.1-4.2,35.3-22.1,35.3-43.5
			c0-24.5-19.9-44.4-44.4-44.4S199.9,19.9,199.9,44.4z M270.6,44.4c0,14.5-11.8,26.3-26.3,26.3S218,58.9,218,44.4
			s11.8-26.3,26.3-26.3C258.8,18.1,270.6,29.9,270.6,44.4z"/>
		<path d="M400.7,235.2h-44.8c-5,0-9.1,4.1-9.1,9.1s4.1,9.1,9.1,9.1h44.8c4.2,20.1,22.1,35.3,43.5,35.3c24.5,0,44.4-19.9,44.4-44.4
			s-19.9-44.4-44.4-44.4C422.8,199.9,404.9,215.1,400.7,235.2z M470.5,244.3c0,14.5-11.8,26.3-26.3,26.3s-26.3-11.8-26.3-26.3l0,0
			l0,0c0-14.5,11.8-26.3,26.3-26.3S470.5,229.8,470.5,244.3z"/>
		<path d="M44.4,288.7c21.4,0,39.3-15.2,43.5-35.3h44.8c5,0,9.1-4.1,9.1-9.1s-4.1-9.1-9.1-9.1H87.9c-4.2-20.1-22.1-35.3-43.5-35.3
			C19.9,199.9,0,219.8,0,244.3C0,268.8,19.9,288.7,44.4,288.7z M44.4,218c14.5,0,26.3,11.8,26.3,26.3l0,0l0,0
			c0,14.5-11.8,26.3-26.3,26.3s-26.3-11.8-26.3-26.3C18.1,229.8,29.9,218,44.4,218z"/>
		<path d="M134.3,71.5c-8.4-8.4-19.5-13-31.4-13s-23,4.6-31.4,13s-13,19.5-13,31.4s4.6,23,13,31.4s19.5,13,31.4,13
			c8.8,0,17.2-2.5,24.3-7.3l31.7,31.7c1.8,1.8,4.1,2.7,6.4,2.7c2.3,0,4.6-0.9,6.4-2.7c3.5-3.5,3.5-9.3,0-12.8l-31.6-31.6
			c4.7-7.2,7.3-15.5,7.3-24.3C147.3,91.1,142.7,79.9,134.3,71.5z M84.4,121.5c-10.2-10.2-10.2-26.9,0-37.2c5-5,11.6-7.7,18.6-7.7
			s13.6,2.7,18.6,7.7c10.2,10.2,10.2,26.9,0,37.1l0,0l0,0c-5,5-11.6,7.7-18.6,7.7C95.9,129.2,89.3,126.5,84.4,121.5z"/>
	</g>
</g>
<g>
</g>
<g>
</g>
<g>
</g>
<g>
</g>
<g>
</g>
<g>
</g>
<g>
</g>
<g>
</g>
<g>
</g>
<g>
</g>
<g>
</g>
<g>
</g>
<g>
</g>
<g>
</g>
<g>
</g>
</svg>
