<?xml version="1.0" encoding="iso-8859-1"?>
<!-- Generator: Adobe Illustrator 19.0.0, SVG Export Plug-In . SVG Version: 6.00 Build 0)  -->
<svg version="1.1" id="Layer_1" xmlns="http://www.w3.org/2000/svg" xmlns:xlink="http://www.w3.org/1999/xlink" x="0px" y="0px"
	 viewBox="0 0 489.4 489.4" style="enable-background:new 0 0 489.4 489.4;" xml:space="preserve">
<g>
	<g>
		<circle style="fill:#3C92CA;" cx="244.7" cy="244.5" r="133.9"/>
		<path d="M475.9,187.7c3-5.8,3.5-12.4,1.5-18.6c-2-6.2-6.3-11.2-12.1-14.2l-54.2-27.5c-1.8-0.9-3-2.6-3.3-4.6l-9.6-60.1
			c-1.9-11.9-12-20.6-24-20.6c-1.3,0-2.6,0.1-3.9,0.3l-60,9.6c-2,0.3-4-0.4-5.4-1.8l-43-43C257.3,2.6,251.2,0,244.7,0
			s-12.6,2.5-17.2,7.2l-43,43c-1.4,1.4-3.4,2.1-5.4,1.8l-60-9.6c-1.3-0.2-2.6-0.3-3.9-0.3c-12.1,0-22.2,8.7-24,20.6l-9.5,60.1
			c-0.3,2-1.6,3.7-3.3,4.6l-54.2,27.5c-5.8,3-10.1,8-12.1,14.2s-1.5,12.8,1.5,18.6l27.7,54.1c0.9,1.8,0.9,3.9,0,5.7l-27.8,54.2
			c-3,5.8-3.5,12.4-1.5,18.6s6.3,11.2,12.1,14.2L78.3,362c1.8,0.9,3,2.6,3.3,4.6l9.4,60.1c1.9,11.9,12,20.6,24,20.6
			c1.3,0,2.6-0.1,3.9-0.3l60-9.6c2-0.3,4,0.4,5.4,1.8l43,43c4.6,4.6,10.7,7.2,17.2,7.2s12.6-2.5,17.2-7.2l43-43
			c1.4-1.4,3.4-2.1,5.4-1.8l60,9.6c1.3,0.2,2.6,0.3,3.9,0.3c12.1,0,22.2-8.7,24-20.6l9.5-60.1c0.3-2,1.6-3.7,3.3-4.6l54.2-27.5
			c5.8-3,10.1-8,12.1-14.2s1.5-12.8-1.5-18.6l-27.7-54.1c-0.9-1.8-0.9-3.9,0-5.7L475.9,187.7z M432.1,255.8l27.7,54.1
			c0.8,1.5,0.9,3.2,0.4,4.8c-0.5,1.6-1.6,2.9-3.1,3.6l-54.2,27.6c-6.9,3.5-11.8,10.2-13,17.9l-9.5,60.1c-0.5,3.3-3.7,5.8-7.1,5.2
			l-60-9.6c-1.3-0.2-2.6-0.3-3.8-0.3c-6.5,0-12.6,2.5-17.2,7.2l-43,43c-2.4,2.4-6.5,2.4-8.8,0l-43-43c-4.5-4.5-10.8-7.2-17.2-7.2
			c-1.3,0-2.6,0.1-3.8,0.3l-60,9.6c-3.4,0.5-6.6-1.9-7.1-5.2l-9.4-60.1c-1.2-7.7-6.1-14.4-13-17.9l-54.2-27.5
			c-1.5-0.8-2.6-2-3.1-3.6s-0.4-3.3,0.4-4.8l27.7-54.1c3.5-6.9,3.5-15.2,0-22.2l-28.1-54.2c-0.8-1.5-0.9-3.2-0.4-4.8
			s1.6-2.9,3.1-3.6l54.2-27.5c6.9-3.5,11.8-10.2,13-17.9l9.4-60.1c0.5-3.3,3.8-5.7,7.1-5.2l60,9.6c1.3,0.2,2.6,0.3,3.8,0.3l0,0
			c6.5,0,12.6-2.5,17.2-7.2l43-43c2.4-2.4,6.5-2.4,8.8,0l43,43c5.4,5.5,13.5,8.1,21.1,6.8l60-9.6c3.4-0.5,6.6,1.9,7.1,5.2l9.5,60.1
			c1.2,7.7,6.1,14.4,13,17.9l54.2,27.5c1.5,0.8,2.6,2,3.1,3.6s0.4,3.3-0.4,4.8l-27.7,54.1C428.5,240.6,428.5,248.8,432.1,255.8z"/>
		<path d="M257.1,235.5h-24.9c-10,0-18.2-8.2-18.2-18.2s8.2-18.2,18.2-18.2H276c5,0,9.1-4.1,9.1-9.1s-4.1-9.1-9.1-9.1h-22.4V164
			c0-5-4.1-9.1-9.1-9.1s-9.1,4.1-9.1,9.1v16.9H232c-20,0-36.3,16.3-36.3,36.3s16.3,36.3,36.3,36.3h24.9c10,0,18.2,8.2,18.2,18.2
			s-8.2,18.2-18.2,18.2h-44.7c-5,0-9.1,4.1-9.1,9.1s4.1,9.1,9.1,9.1h23.2v17.2c0,5,4.1,9.1,9.1,9.1s9.1-4.1,9.1-9.1v-17.2h3.4
			c20,0,36.3-16.3,36.3-36.3C293.4,251.8,277.1,235.5,257.1,235.5z"/>
		<path d="M315.5,141.7c1.6,1.1,3.4,1.6,5.1,1.6c2.9,0,5.7-1.4,7.5-3.9c2.9-4.1,1.8-9.8-2.3-12.6c-4.1-2.8-9.8-1.8-12.6,2.3
			C310.4,133.2,311.4,138.9,315.5,141.7z"/>
		<path d="M344.8,164.7c2.1,0,4.3-0.7,6-2.3c3.7-3.3,4.1-9,0.8-12.8c-3.3-3.7-9.1-4.1-12.8-0.7c-3.7,3.3-4.1,9-0.7,12.8
			C339.8,163.7,342.3,164.7,344.8,164.7z"/>
		<path d="M289.2,361.2c-4.7,1.8-7,7-5.2,11.7c1.4,3.6,4.8,5.8,8.5,5.8c1.1,0,2.2-0.2,3.2-0.6c4.7-1.8,7-7,5.2-11.7
			C299.1,361.8,293.9,359.4,289.2,361.2z"/>
		<path d="M315.8,347.1c-4.1,2.9-5.1,8.5-2.3,12.6c1.8,2.5,4.6,3.9,7.5,3.9c1.8,0,3.6-0.5,5.2-1.6c4.1-2.9,5.1-8.5,2.3-12.6
			C325.6,345.3,319.9,344.3,315.8,347.1z"/>
		<path d="M200.7,361.4c-4.7-1.8-9.9,0.6-11.7,5.3c-1.8,4.7,0.6,9.9,5.3,11.7c1,0.4,2.1,0.6,3.2,0.6c3.7,0,7.1-2.2,8.5-5.9
			C207.7,368.4,205.4,363.1,200.7,361.4z"/>
		<path d="M260,368.4c-5,0.6-8.5,5.1-7.9,10.1c0.6,4.6,4.5,8,9,8c0.4,0,0.7,0,1.1-0.1c5-0.6,8.5-5.1,7.9-10.1
			C269.5,371.4,265,367.8,260,368.4z"/>
		<path d="M229.9,368.5L229.9,368.5c-5-0.6-9.5,3-10.1,8s3,9.5,7.9,10c0.4,0,0.7,0.1,1.1,0.1c4.5,0,8.4-3.4,9-8
			C238.5,373.6,234.9,369.1,229.9,368.5z"/>
		<path d="M365.9,214.5L365.9,214.5c1,4.1,4.7,6.9,8.8,6.9c0.7,0,1.5-0.1,2.2-0.3c4.9-1.2,7.8-6.1,6.6-11c-1.2-4.9-6.1-7.8-11-6.6
			C367.7,204.7,364.7,209.6,365.9,214.5z"/>
		<path d="M378.6,235.3c-5,0-9.1,4.1-9.1,9.1s4.1,9.1,9.1,9c5,0,9.1-4.1,9-9.1C387.7,239.3,383.6,235.3,378.6,235.3z"/>
		<path d="M376.9,267.6c-4.9-1.2-9.8,1.8-11,6.6c-1.2,4.9,1.8,9.8,6.6,11c0.7,0.2,1.4,0.3,2.2,0.3c4.1,0,7.8-2.8,8.8-6.9
			C384.8,273.6,381.8,268.8,376.9,267.6z"/>
		<path d="M363.2,191.2c1.4,0,2.9-0.3,4.2-1c4.4-2.3,6.1-7.8,3.8-12.2c-2.4-4.4-7.8-6.1-12.2-3.8c-4.4,2.3-6.1,7.8-3.8,12.2
			C356.8,189.5,360,191.2,363.2,191.2z"/>
		<path d="M338.3,327.1c-3.3,3.7-3,9.5,0.8,12.8c1.7,1.5,3.9,2.3,6,2.3c2.5,0,5-1,6.8-3.1c3.3-3.8,3-9.5-0.8-12.8
			S341.6,323.4,338.3,327.1z"/>
		<path d="M367.6,298.5c-4.4-2.3-9.9-0.6-12.2,3.8c-2.3,4.4-0.6,9.9,3.8,12.2c1.3,0.7,2.8,1,4.2,1c3.3,0,6.4-1.8,8-4.9
			C373.7,306.3,372,300.9,367.6,298.5z"/>
		<path d="M144.5,164.8c2.5,0,5-1,6.8-3c3.3-3.7,3-9.5-0.8-12.8s-9.5-3-12.8,0.8c-3.3,3.7-3,9.5,0.8,12.8
			C140.2,164.1,142.3,164.8,144.5,164.8z"/>
		<path d="M122,299c-4.4,2.4-6.1,7.8-3.8,12.3c1.6,3.1,4.8,4.8,8,4.8c1.4,0,2.9-0.3,4.2-1c4.4-2.3,6.1-7.8,3.8-12.2
			C131.9,298.4,126.5,296.7,122,299z"/>
		<path d="M123.5,274.7c-1.2-4.9-6.1-7.8-11-6.6c-4.9,1.2-7.8,6.1-6.6,11c1,4.1,4.7,6.9,8.8,6.9c0.7,0,1.5-0.1,2.2-0.3
			C121.8,284.5,124.8,279.6,123.5,274.7z"/>
		<path d="M112.5,221.3c0.7,0.2,1.5,0.3,2.2,0.3c4.1,0,7.8-2.8,8.8-6.9c1.2-4.9-1.8-9.8-6.6-11c-4.9-1.2-9.8,1.8-11,6.6
			C104.7,215.2,107.6,220.1,112.5,221.3z"/>
		<path d="M110.8,254c5,0,9-4.1,9-9.1c0-0.1,0-0.1,0-0.2c0-0.1,0-0.1,0-0.2c0-5-4.1-9.1-9.1-9.1s-9,4.1-9,9.1c0,0.1,0,0.1,0,0.2
			s0,0.1,0,0.2C101.8,249.9,105.8,254,110.8,254L110.8,254z"/>
		<path d="M121.9,190.3c1.4,0.7,2.8,1,4.2,1c3.3,0,6.4-1.8,8-4.8c2.3-4.4,0.6-9.9-3.8-12.2c-4.4-2.3-9.9-0.6-12.2,3.8
			C115.8,182.5,117.5,188,121.9,190.3z"/>
		<path d="M138.7,326.8c-3.7,3.3-4.1,9.1-0.7,12.8c1.8,2,4.3,3,6.8,3c2.2,0,4.3-0.7,6-2.3c3.7-3.3,4.1-9.1,0.7-12.8
			C148.1,323.8,142.4,323.5,138.7,326.8z"/>
		<path d="M228.4,120.7c0.4,0,0.7,0,1.1-0.1c5-0.6,8.5-5.1,7.9-10.1s-5.1-8.5-10.1-7.9s-8.5,5.1-7.9,10.1
			C220,117.3,223.9,120.7,228.4,120.7z"/>
		<path d="M259.6,120.6c0.4,0,0.7,0.1,1.1,0.1c4.5,0,8.4-3.4,9-8c0.6-5-3-9.5-7.9-10.1c-5-0.6-9.5,3-10.1,7.9
			C251.1,115.5,254.7,120,259.6,120.6z"/>
		<path d="M288.9,127.7c1,0.4,2.1,0.6,3.2,0.6c3.7,0,7.1-2.2,8.5-5.9c1.8-4.7-0.6-9.9-5.3-11.7c-4.7-1.8-9.9,0.6-11.7,5.3
			C281.8,120.7,284.2,126,288.9,127.7z"/>
		<path d="M197.1,128.4c1.1,0,2.2-0.2,3.2-0.6c4.7-1.8,7-7,5.3-11.7c-1.8-4.7-7-7-11.7-5.3l0,0c-4.7,1.8-7,7-5.2,11.7
			C190,126.2,193.5,128.4,197.1,128.4z"/>
		<path d="M174,347.4c-4.1-2.8-9.8-1.8-12.6,2.3c-2.8,4.1-1.8,9.8,2.3,12.6c1.6,1.1,3.4,1.6,5.1,1.6c2.9,0,5.7-1.4,7.5-3.9
			C179.2,355.9,178.2,350.3,174,347.4z"/>
		<path d="M168.6,143.4c1.8,0,3.6-0.5,5.2-1.6c4.1-2.8,5.1-8.5,2.3-12.6c-2.9-4.1-8.5-5.1-12.6-2.3c-4.1,2.9-5.1,8.5-2.3,12.6
			C162.9,142.1,165.7,143.4,168.6,143.4z"/>
	</g>
</g>
<g>
</g>
<g>
</g>
<g>
</g>
<g>
</g>
<g>
</g>
<g>
</g>
<g>
</g>
<g>
</g>
<g>
</g>
<g>
</g>
<g>
</g>
<g>
</g>
<g>
</g>
<g>
</g>
<g>
</g>
</svg>
