<?xml version="1.0" encoding="iso-8859-1"?>
<!-- Generator: Adobe Illustrator 19.0.0, SVG Export Plug-In . SVG Version: 6.00 Build 0)  -->
<svg version="1.1" id="Layer_1" xmlns="http://www.w3.org/2000/svg" xmlns:xlink="http://www.w3.org/1999/xlink" x="0px" y="0px"
	 viewBox="0 0 489.5 489.5" style="enable-background:new 0 0 489.5 489.5;" xml:space="preserve">
<g>
	<g>
		<path id="XMLID_1220_" style="fill:#A7A9AC;" d="M317.8,359.8H195.4c-22.2,0-40.3-18.1-40.3-40.3V170.1
			c0-22.2,18.1-40.3,40.3-40.3h244.8c22.2,0,40.3,18.1,40.3,40.3v149.4c0,22.2-18.1,40.3-40.3,40.3H301.5"/>
		<path d="M195.4,368.8h244.8c27.2,0,49.3-22.1,49.3-49.4V170.1c0-27.2-22.1-49.4-49.3-49.4H195.4c-27.2,0-49.3,22.1-49.3,49.4
			v149.4C146,346.7,168.2,368.8,195.4,368.8z M164.2,170.1c0-17.2,14-31.2,31.2-31.2h244.8c17.2,0,31.2,14,31.2,31.2v149.4
			c0,17.2-14,31.2-31.2,31.2H301.5H195.4c-17.2,0-31.2-14-31.2-31.2V170.1L164.2,170.1z"/>
		<path d="M195.7,319.8c1.8,2,4.3,3.1,6.8,3.1c2.1,0,4.3-0.7,6-2.3l78.3-69l25.4,19.7c1.6,1.3,3.6,1.9,5.6,1.9s3.9-0.6,5.6-1.9
			l26.2-20.3l77.5,69.5c1.7,1.6,3.9,2.3,6,2.3c2.5,0,5-1,6.8-3c3.3-3.7,3-9.5-0.7-12.8l-75-67.3l74.6-57.9c4-3.1,4.7-8.8,1.6-12.7
			c-3.1-4-8.8-4.7-12.7-1.6l-109.9,85.3L292,232.7l0,0l-83.9-65.1c-4-3.1-9.6-2.4-12.7,1.6c-3.1,4-2.4,9.6,1.6,12.7l75.3,58.5
			l-75.7,66.7C192.7,310.4,192.4,316.1,195.7,319.8z"/>
		<path d="M117.6,253.9c5,0,9.1-4.1,9.1-9.1s-4.1-9.1-9.1-9.1h-72c-5,0-9.1,4.1-9.1,9.1s4.1,9.1,9.1,9.1H117.6z"/>
		<path d="M9.1,206h108.5c5,0,9.1-4.1,9.1-9.1s-4.1-9.1-9.1-9.1H9.1c-5,0-9.1,4.1-9.1,9.1C0.1,201.9,4.1,206,9.1,206z"/>
		<path d="M126.7,292.7c0-5-4.1-9.1-9.1-9.1H70.2c-5,0-9.1,4.1-9.1,9.1s4.1,9.1,9.1,9.1h47.4C122.6,301.8,126.7,297.7,126.7,292.7z"
			/>
	</g>
</g>
<g>
</g>
<g>
</g>
<g>
</g>
<g>
</g>
<g>
</g>
<g>
</g>
<g>
</g>
<g>
</g>
<g>
</g>
<g>
</g>
<g>
</g>
<g>
</g>
<g>
</g>
<g>
</g>
<g>
</g>
</svg>
