<?xml version="1.0" encoding="iso-8859-1"?>
<!-- Generator: Adobe Illustrator 19.0.0, SVG Export Plug-In . SVG Version: 6.00 Build 0)  -->
<svg version="1.1" id="Layer_1" xmlns="http://www.w3.org/2000/svg" xmlns:xlink="http://www.w3.org/1999/xlink" x="0px" y="0px"
	 viewBox="0 0 489.836 489.836" style="enable-background:new 0 0 489.836 489.836;" xml:space="preserve">
<g>
	<g>
		<rect x="202.636" y="83.268" style="fill:#3C92CA;" width="85" height="178.7"/>
		<path d="M9.136,467.268h471.6l0,0c5,0,9.1-4.1,9.1-9.1c0-1.7-0.5-3.4-1.3-4.7l-45.7-92.7v-249.7c0-5-4.1-9.1-9.1-9.1h-100.5
			c-5,0-9.1,4.1-9.1,9.1s4.1,9.1,9.1,9.1h91.5v233.7h-359v-233.7h89.2c5,0,9.1-4.1,9.1-9.1s-4.1-9.1-9.1-9.1h-98.4
			c-5,0-9.1,4.1-9.1,9.1v249.7l-46.5,93.4c-1.4,2.8-1.2,6.1,0.4,8.8C3.036,465.668,6.036,467.268,9.136,467.268z M182.436,449.168
			l8-16h109.2l7.9,16H182.436z M62.136,371.968h365.9l38,77.1h-138.4l-14.3-29.1c-1.5-3.1-4.7-5.1-8.1-5.1h-120.5
			c-3.4,0-6.6,1.9-8.1,5l-14.5,29.1h-138.4L62.136,371.968z"/>
		<path d="M296.636,55.268c0-18-14.6-32.7-32.7-32.7h-37.8c-18,0-32.7,14.6-32.7,32.7v24.8c0,0.6,0.1,1.1,0.2,1.6
			c-0.1,0.5-0.2,1.1-0.2,1.6v178.7c0,0.1,0,0.2,0,0.2c0,0.4,0.1,0.9,0.1,1.3c0,0.1,0,0.2,0.1,0.4c0.1,0.5,0.3,1,0.5,1.5
			c0.1,0.1,0.1,0.2,0.2,0.4c0.2,0.4,0.4,0.7,0.6,1c0.1,0.1,0.2,0.3,0.3,0.4s0.1,0.2,0.2,0.3l42.5,55.7c1.7,2.2,4.4,3.6,7.2,3.6
			s5.5-1.3,7.2-3.6l42.5-55.7c0.1-0.1,0.1-0.2,0.2-0.3c0.1-0.1,0.2-0.3,0.3-0.4c0.2-0.3,0.4-0.7,0.6-1c0.1-0.1,0.1-0.2,0.2-0.4
			c0.2-0.5,0.3-1,0.5-1.5c0-0.1,0-0.2,0.1-0.4c0.1-0.4,0.1-0.9,0.1-1.3c0-0.1,0-0.2,0-0.2v-179c0-0.5-0.1-1-0.1-1.5
			c0.1-0.5,0.1-1,0.1-1.5v-24.7L296.636,55.268L296.636,55.268z M211.736,89.168h24.4v163.7h-24.4V89.168z M254.236,89.168h24.4
			v163.7h-24.4V89.168z M211.736,55.268c0-8,6.5-14.5,14.5-14.5h37.8c8,0,14.5,6.5,14.5,14.5v15.7h-66.8L211.736,55.268
			L211.736,55.268z M245.136,302.768l-24.2-31.7h48.3L245.136,302.768z"/>
	</g>
</g>
<g>
</g>
<g>
</g>
<g>
</g>
<g>
</g>
<g>
</g>
<g>
</g>
<g>
</g>
<g>
</g>
<g>
</g>
<g>
</g>
<g>
</g>
<g>
</g>
<g>
</g>
<g>
</g>
<g>
</g>
</svg>
