<?xml version="1.0" encoding="iso-8859-1"?>
<!-- Generator: Adobe Illustrator 19.0.0, SVG Export Plug-In . SVG Version: 6.00 Build 0)  -->
<svg version="1.1" id="Layer_1" xmlns="http://www.w3.org/2000/svg" xmlns:xlink="http://www.w3.org/1999/xlink" x="0px" y="0px"
	 viewBox="0 0 489.6 489.6" style="enable-background:new 0 0 489.6 489.6;" xml:space="preserve">
<g>
	<g>
		<circle style="fill:#3C92CA;" cx="244.8" cy="443.4" r="37.2"/>
		<path d="M122.6,252.8h80.3c2.6,8,9.5,13.8,17.6,13.8H269c8.1,0,15-5.7,17.6-13.8H367c5,0,9.1-4.1,9.1-9.1s-4.1-9.1-9.1-9.1h-88.4
			c-5,0-9.1,4.1-9.1,9.1v2.1c0,1.4-0.5,2.3-0.8,2.6h-47.8c-0.3-0.3-0.9-1.2-0.9-2.6v-2.1c0-5-4.1-9.1-9.1-9.1h-88.3
			c-5,0-9.1,4.1-9.1,9.1C113.6,248.7,117.6,252.8,122.6,252.8z"/>
		<path d="M57.8,314.7h374c23.2,0,42.1-18.9,42.1-42.1v-22c0-5-4.1-9.1-9.1-9.1h-24.5V27.9c0-0.3,0-0.6,0-0.9
			c-1.5-15.4-13.9-27-28.9-27H77C61.6,0,49.1,12.5,49.1,27.9v213.7H24.7c-5,0-9.1,4.1-9.1,9.1v22C15.6,295.8,34.5,314.7,57.8,314.7z
			 M33.7,259.7h24.4c5,0,9.1-4.1,9.1-9.1V27.9c0-5.4,4.4-9.8,9.8-9.8h334.5c5.4,0,10.1,4.5,10.8,10.3v222.2c0,5,4.1,9.1,9.1,9.1
			h24.4v12.9c0,13.2-10.8,24-24,24h-374c-13.2,0-24-10.8-24-24v-12.9L33.7,259.7L33.7,259.7z"/>
		<path d="M468.8,452.4c5,0,9.1-4.1,9.1-9.1s-4.1-9.1-9.1-9.1H290.2c-3.6-18.2-18-32.7-36.3-36.3v-42.1c0-5-4.1-9.1-9.1-9.1
			s-9.1,4.1-9.1,9.1v42.1c-18.2,3.6-32.7,18-36.3,36.3H20.8c-5,0-9.1,4.1-9.1,9.1s4.1,9.1,9.1,9.1h178.7c4.2,21.2,23,37.2,45.4,37.2
			s41.1-16,45.4-37.2H468.8z M244.8,471.5c-15.5,0-28.1-12.6-28.1-28.1s12.6-28.1,28.1-28.1s28.1,12.6,28.1,28.1
			S260.3,471.5,244.8,471.5z"/>
	</g>
</g>
<g>
</g>
<g>
</g>
<g>
</g>
<g>
</g>
<g>
</g>
<g>
</g>
<g>
</g>
<g>
</g>
<g>
</g>
<g>
</g>
<g>
</g>
<g>
</g>
<g>
</g>
<g>
</g>
<g>
</g>
</svg>
