<?xml version="1.0" encoding="iso-8859-1"?>
<!-- Generator: Adobe Illustrator 19.0.0, SVG Export Plug-In . SVG Version: 6.00 Build 0)  -->
<svg version="1.1" id="Layer_1" xmlns="http://www.w3.org/2000/svg" xmlns:xlink="http://www.w3.org/1999/xlink" x="0px" y="0px"
	 viewBox="0 0 489.1 489.1" style="enable-background:new 0 0 489.1 489.1;" xml:space="preserve">
<g>
	<g>
		<path id="XMLID_742_" style="fill:#3C92CA;" d="M143.25,474.4h-69.9c-2.1,0-3.9-1.8-3.9-3.9V287.3c0-2.1,1.8-3.9,3.9-3.9h69.9
			c2.1,0,3.9,1.8,3.9,3.9v183.2C147.15,472.6,145.35,474.4,143.25,474.4z"/>
		<path d="M255.75,78.9c-2.4,0-4.7,1-6.4,2.7s-2.6,4-2.6,6.4s1,4.7,2.6,6.4c1.7,1.7,4,2.7,6.4,2.7s4.7-1,6.4-2.7
			c1.7-1.7,2.7-4,2.7-6.4s-1-4.7-2.7-6.4C260.45,79.9,258.15,78.9,255.75,78.9z"/>
		<path d="M255.75,39.5c-5,0-9.1,4.1-9.1,9.1s4,9.1,9.1,9.1c5,0,9.1-4,9.1-9.1S260.75,39.5,255.75,39.5z"/>
		<path d="M262.15,2.7c-1.7-1.7-4-2.7-6.4-2.7s-4.7,1-6.4,2.7s-2.6,4-2.6,6.4s1,4.7,2.6,6.4c1.7,1.7,4,2.7,6.4,2.7s4.7-1,6.4-2.7
			c1.7-1.7,2.7-4,2.7-6.4S263.85,4.4,262.15,2.7z"/>
		<path d="M419.65,195.4c2.4,0,4.7-1,6.4-2.7c1.7-1.7,2.7-4,2.7-6.4s-1-4.7-2.7-6.4s-4-2.7-6.4-2.7s-4.7,1-6.4,2.7
			c-1.7,1.7-2.7,4-2.7,6.4s1,4.7,2.7,6.4C414.95,194.5,417.25,195.4,419.65,195.4z"/>
		<path d="M380.25,195.4c5,0,9.1-4.1,9.1-9.1s-4-9.1-9.1-9.1c-5,0-9.1,4.1-9.1,9.1C371.15,191.4,375.25,195.4,380.25,195.4z"/>
		<path d="M340.85,195.4c2.4,0,4.7-1,6.4-2.7c1.7-1.7,2.7-4,2.7-6.4s-1-4.7-2.7-6.4s-4-2.7-6.4-2.7s-4.7,1-6.4,2.7
			c-1.7,1.7-2.7,4-2.7,6.4s1,4.7,2.7,6.4S338.45,195.4,340.85,195.4z"/>
		<path d="M91.85,195.4c2.4,0,4.7-1,6.4-2.7s2.7-4,2.7-6.4s-1-4.7-2.7-6.4s-4-2.7-6.4-2.7c-2.4,0-4.7,1-6.4,2.7
			c-1.7,1.7-2.6,4-2.6,6.4s1,4.7,2.6,6.4C87.15,194.5,89.45,195.4,91.85,195.4z"/>
		<path d="M122.15,186.4c0,5,4,9.1,9.1,9.1c5,0,9.1-4.1,9.1-9.1s-4.1-9.1-9.1-9.1C126.25,177.3,122.15,181.4,122.15,186.4z"/>
		<path d="M164.25,192.8c1.7,1.7,4,2.7,6.4,2.7s4.7-1,6.4-2.7s2.7-4,2.7-6.4s-1-4.7-2.7-6.4s-4-2.7-6.4-2.7s-4.7,1-6.4,2.7
			s-2.6,4-2.6,6.4S162.55,191.1,164.25,192.8z"/>
		<path d="M125.45,63.4c2.4,0,4.7-1,6.4-2.7s2.7-4,2.7-6.4s-1-4.7-2.7-6.4s-4-2.7-6.4-2.7c-2.4,0-4.7,1-6.4,2.7
			c-1.7,1.7-2.7,4-2.7,6.4s1,4.7,2.7,6.4C120.65,62.5,123.05,63.4,125.45,63.4z"/>
		<path d="M153.35,91.3c2.3,0,4.6-0.9,6.4-2.7c3.5-3.5,3.5-9.3,0-12.8s-9.3-3.5-12.8,0s-3.5,9.3,0,12.8
			C148.65,90.4,150.95,91.3,153.35,91.3z"/>
		<path d="M181.15,119.2c2.4,0,4.7-1,6.4-2.6c1.7-1.7,2.7-4,2.7-6.4s-1-4.7-2.7-6.4c-1.7-1.7-4-2.7-6.4-2.7s-4.7,1-6.4,2.7
			s-2.7,4-2.7,6.4s1,4.7,2.7,6.4C176.45,118.2,178.85,119.2,181.15,119.2z"/>
		<path d="M384.15,66.5c1.7-1.7,2.7-4,2.7-6.4s-1-4.7-2.7-6.4s-4-2.7-6.4-2.7s-4.7,1-6.4,2.7c-1.7,1.7-2.7,4-2.7,6.4s1,4.7,2.7,6.4
			c1.7,1.7,4,2.7,6.4,2.7C380.05,69.2,382.45,68.2,384.15,66.5z"/>
		<path d="M356.25,81.6c-3.5-3.5-9.3-3.5-12.8,0s-3.5,9.3,0,12.8c1.8,1.8,4.1,2.7,6.4,2.7s4.6-0.9,6.4-2.7
			C359.75,90.8,359.75,85.1,356.25,81.6z"/>
		<path d="M321.95,106.8c-2.4,0-4.7,1-6.4,2.7c-1.7,1.7-2.7,4-2.7,6.4s1,4.7,2.7,6.4s4,2.7,6.4,2.7s4.7-1,6.4-2.7
			c1.7-1.7,2.7-4,2.7-6.4s-1-4.7-2.7-6.4C326.65,107.7,324.35,106.8,321.95,106.8z"/>
		<path d="M60.35,291.2v175.3c0,9.3,7.6,16.9,16.9,16.9h62c6.2,0,11.7-3.4,14.6-8.4c9.1,8.7,21.5,14.1,35.1,14.1h156.4
			c34.6,0,56.6-18.1,60.5-49.7l21-133.7c0.1-0.5,0.1-0.9,0.1-1.4c0-28.1-22.9-50.9-50.9-50.9h-79.1v-57c0-24-7-41.4-20.9-51.5
			c-21.9-16.1-52.1-6.9-53.4-6.5c-3.8,1.2-6.3,4.7-6.3,8.6v63.9c0,50.4-58.5,67.6-60.9,68.3c-1.2,0.3-2.2,0.9-3.1,1.6
			c-3.1-3.9-7.9-6.4-13.2-6.4h-62C67.95,274.3,60.35,281.9,60.35,291.2z M160.45,296.6c3-0.8,74.2-21.5,74.2-85.7v-56.6
			c7.8-1.2,21.2-1.9,30.9,5.2c8.9,6.6,13.5,19,13.5,36.9v66.1c0,5,4.1,9.1,9.1,9.1h88.1c17.9,0,32.5,14.4,32.8,32.2l-20.9,133.1
			c0,0.1,0,0.2,0,0.3c-2.7,22.5-17.1,33.9-42.6,33.9h-156.5c-18.1,0-32.8-14.7-32.8-32.8V296.7C157.55,297,159.05,297,160.45,296.6z
			 M78.45,292.4h59.6v172.9h-59.6C78.45,465.3,78.45,292.4,78.45,292.4z"/>
	</g>
</g>
<g>
</g>
<g>
</g>
<g>
</g>
<g>
</g>
<g>
</g>
<g>
</g>
<g>
</g>
<g>
</g>
<g>
</g>
<g>
</g>
<g>
</g>
<g>
</g>
<g>
</g>
<g>
</g>
<g>
</g>
</svg>
