<?xml version="1.0" encoding="iso-8859-1"?>
<!-- Generator: Adobe Illustrator 19.0.0, SVG Export Plug-In . SVG Version: 6.00 Build 0)  -->
<svg version="1.1" id="Layer_1" xmlns="http://www.w3.org/2000/svg" xmlns:xlink="http://www.w3.org/1999/xlink" x="0px" y="0px"
	 viewBox="0 0 489.9 489.9" style="enable-background:new 0 0 489.9 489.9;" xml:space="preserve">
<g>
	<g>
		<rect x="321.1" y="354.811" style="fill:#A7A9AC;" width="159.6" height="117.6"/>
		<path id="XMLID_1341_" style="fill:#3C92CA;" d="M96.4,412.011H15.7c-3.7,0-6.7-3-6.7-6.7v-217.7c0-3.7,3-6.7,6.7-6.7h80.6
			c3.7,0,6.7,3,6.7,6.7v217.7C103.1,409.011,100,412.011,96.4,412.011z"/>
		<path d="M341.4,315.111v30.6h-20.2c-5,0-9.1,4.1-9.1,9.1v117.6c0,5,4.1,9.1,9.1,9.1h159.6c5,0,9.1-4.1,9.1-9.1v-117.6
			c0-5-4.1-9.1-9.1-9.1h-20.2v-30.6c0-32.9-26.7-59.6-59.6-59.6S341.4,282.311,341.4,315.111z M471.7,463.311H330.2v-99.4h141.5
			V463.311z M442.4,315.111v30.6h-82.9v-30.6c0-22.9,18.6-41.5,41.5-41.5S442.4,292.311,442.4,315.111z"/>
		<path d="M403.1,393.911c-5.3-1.1-11,1.9-13.3,7c-2.4,5.2-0.8,11.2,3.9,14.7c0.9,0.7,1.2,1.4,1.2,2.5c0,5.3,0,10.5,0,15.8l0,0
			c0,4.3,4.6,7.6,9.2,5.3c1.9-1,3.1-3.1,2.9-5.3l0,0c0-5.2,0-10.5,0-15.7c0-1.2,0.3-1.9,1.3-2.6c3.3-2.4,5-5.8,4.9-9.8
			C413.1,399.811,409,395.011,403.1,393.911z"/>
		<path d="M0,194.411v204.2c0,12.4,10.1,22.5,22.5,22.5h67.1c7.7,0,14.4-3.8,18.5-9.7c11,13,27.4,21.3,45.7,21.3h60.1h6.2h54.8
			c5,0,9.1-4.1,9.1-9.1s-4.1-9.1-9.1-9.1h-55h-6.2h-60.1c-22.9,0-41.6-18.7-41.6-41.6v-173.8c1.3,0.6,2.7,1,4.1,1
			c0.8,0,1.6-0.1,2.4-0.3c0.9-0.3,22.2-6.3,43.7-21.6c29.2-20.7,44.7-48.5,44.7-80.3v-70.2c9.4-1.7,27.4-3.2,40.4,6.4
			c11.3,8.3,17,23.9,17,46.2v80c0,5,4.1,9.1,9.1,9.1h40.4h51.8H380c22.9,0,41.6,18.7,41.6,41.6c0,0.2,0.1,0.5,0.1,0.7l-1.5,9.7
			c-0.8,4.9,2.6,9.6,7.5,10.4c0.5,0.1,1,0.1,1.4,0.1c4.4,0,8.2-3.2,8.9-7.6l1.6-10c0.1-0.8,0.1-1.6,0-2.4c0-0.3,0.1-0.6,0.1-0.9
			c0-32.9-26.8-59.7-59.7-59.7h-14.4h-51.8h-31.4v-71c0-28.4-8.2-48.9-24.5-60.8c-25.8-18.9-61.4-8.1-62.9-7.6
			c-3.8,1.2-6.3,4.7-6.3,8.6v77.4c0,62.5-72,83.6-75.1,84.4c-1.5,0.4-2.9,1.3-3.9,2.3c-3.6-7.5-11.4-12.8-20.3-12.8H22.5
			C10.1,171.911,0,182.011,0,194.411z M18.1,194.411c0-2.4,2-4.4,4.4-4.4h67.1c2.4,0,4.4,2,4.4,4.4v204.2c0,2.4-2,4.4-4.4,4.4H22.5
			c-2.4,0-4.4-2-4.4-4.4V194.411z"/>
	</g>
</g>
<g>
</g>
<g>
</g>
<g>
</g>
<g>
</g>
<g>
</g>
<g>
</g>
<g>
</g>
<g>
</g>
<g>
</g>
<g>
</g>
<g>
</g>
<g>
</g>
<g>
</g>
<g>
</g>
<g>
</g>
</svg>
