<?xml version="1.0" encoding="iso-8859-1"?>
<!-- Generator: Adobe Illustrator 19.0.0, SVG Export Plug-In . SVG Version: 6.00 Build 0)  -->
<svg version="1.1" id="Layer_1" xmlns="http://www.w3.org/2000/svg" xmlns:xlink="http://www.w3.org/1999/xlink" x="0px" y="0px"
	 viewBox="0 0 490.358 490.358" style="enable-background:new 0 0 490.358 490.358;" xml:space="preserve">
<g>
	<g>
		<circle style="fill:#3C92CA;" cx="166.658" cy="164.129" r="137.1"/>
		<path d="M490.358,377.629c0-0.3,0-0.6-0.1-0.9c0-0.3-0.1-0.6-0.2-0.9s-0.1-0.6-0.2-0.8c-0.1-0.3-0.2-0.5-0.4-0.8
			c-0.1-0.3-0.2-0.5-0.4-0.8c-0.1-0.3-0.3-0.5-0.5-0.7s-0.3-0.5-0.5-0.7s-0.4-0.4-0.7-0.6c-0.2-0.2-0.4-0.4-0.6-0.6
			s-0.5-0.3-0.8-0.5c-0.2-0.1-0.4-0.3-0.7-0.4l-110.3-54.4c-0.3-0.2-0.6-0.3-1-0.4c-1.9-0.7-47.4-16.6-84.6,0.1l-82.1,29.7
			c-0.2,0.1-0.5,0.2-0.7,0.3c-11.8,5.4-18,17.5-15.5,30.2c2.5,12.6,12.7,21.5,25.5,22.1c0.1,0,0.1,0,0.2,0c0.8,0,4.4-0.2,41.8-2.6
			c16.3-1,33.1-2.1,34.6-2.2c4.7-0.2,8.6-4,8.7-8.8c0.1-5-3.8-9.2-8.9-9.3c-0.5,0-0.5,0-35.5,2.2c-17.5,1.1-37.1,2.4-40.4,2.6
			c-6.3-0.5-7.8-5.8-8.2-7.4c-0.7-3.4,0.3-7.9,5-10.2l82-29.7c0.2-0.1,0.4-0.2,0.7-0.3c28.8-13.1,66.4-1.3,70.9,0.1l49.1,24.2
			l-27,63.7c-13.3-8.2-29.5-10.4-44.5-5.9l-110.2,33.1c-13.1,4-27.6,2.5-39.7-4.1l-172.6-93.5c-6.2-3.4-4.2-9.3-3.7-10.5
			c0.6-1.6,3.2-6.6,9.5-4.9l134.1,44.7c4.7,1.6,9.9-1,11.5-5.7c1.6-4.8-1-9.9-5.7-11.5l-134.4-44.9c-0.2-0.1-0.3-0.1-0.5-0.1
			c-13.3-3.6-26.2,2.8-31.3,15.6c-5.2,12.9-0.3,26.5,11.9,33.2l172.7,93.8c16.3,8.9,35.8,10.9,53.5,5.5l110.2-33.1
			c10.1-3,21-1.6,29.9,4.1l56.2,35.4c0.3,0.2,0.5,0.3,0.8,0.4c0.1,0,0.1,0.1,0.2,0.1h0.1c0.1,0.1,0.2,0.1,0.4,0.1
			c0.2,0.1,0.5,0.2,0.7,0.3c0.1,0,0.3,0.1,0.4,0.1c0.2,0.1,0.5,0.1,0.7,0.2c0.1,0,0.3,0,0.4,0.1c0.4,0,0.7,0.1,1.1,0.1l0,0l0,0l0,0
			l0,0c0.4,0,0.8,0,1.2-0.1c0.1,0,0.3,0,0.4-0.1c0.3,0,0.5-0.1,0.8-0.2c0.1,0,0.3-0.1,0.4-0.1c0.2-0.1,0.5-0.2,0.7-0.3
			c0.1-0.1,0.3-0.1,0.4-0.2c0.2-0.1,0.4-0.2,0.7-0.4c0.1-0.1,0.3-0.2,0.4-0.2c0.2-0.1,0.4-0.3,0.6-0.4c0.1-0.1,0.3-0.2,0.4-0.3
			c0.2-0.2,0.3-0.3,0.5-0.5c0.1-0.1,0.2-0.2,0.4-0.4c0.2-0.2,0.3-0.4,0.4-0.6c0.1-0.1,0.2-0.3,0.3-0.4c0,0,0-0.1,0.1-0.1
			c0-0.1,0.1-0.2,0.1-0.2c0.1-0.2,0.3-0.5,0.4-0.8l40-85.2c0.1-0.3,0.2-0.5,0.3-0.8c0.1-0.3,0.2-0.6,0.3-0.8
			c0.1-0.3,0.1-0.6,0.1-0.9s0.1-0.6,0.1-0.9C490.358,378.229,490.358,377.929,490.358,377.629z M469.358,382.229l-31.9,67.9
			l-32.3-20.4l27.7-65.4L469.358,382.229z"/>
		<path d="M153.858,173.229h25.4c10.4,0,18.8,8.4,18.8,18.8c0,10.4-8.4,18.8-18.8,18.8h-45.7c-5,0-9.1,4.1-9.1,9.1s4.1,9.1,9.1,9.1
			h23.9v17.9c0,5,4.1,9.1,9.1,9.1s9.1-4.1,9.1-9.1v-17.9h3.7c20.4,0,37-16.6,37-37s-16.6-37-37-37h-25.4c-10.4,0-18.8-8.4-18.8-18.8
			s8.4-18.8,18.8-18.8h44.9c5,0,9.1-4.1,9.1-9.1s-4.1-9.1-9.1-9.1h-23.1v-17.5c0-5-4.1-9.1-9.1-9.1s-9.1,4.1-9.1,9.1v17.6h-3.7
			c-20.4,0-37,16.6-37,37C116.958,156.629,133.558,173.229,153.858,173.229z"/>
		<path d="M166.658,310.229c80.6,0,146.1-65.6,146.1-146.1s-65.6-146.2-146.1-146.2s-146.2,65.6-146.2,146.2
			S86.058,310.229,166.658,310.229z M166.658,36.129c70.6,0,128,57.4,128,128s-57.4,128-128,128s-128-57.4-128-128
			S96.058,36.129,166.658,36.129z"/>
	</g>
</g>
<g>
</g>
<g>
</g>
<g>
</g>
<g>
</g>
<g>
</g>
<g>
</g>
<g>
</g>
<g>
</g>
<g>
</g>
<g>
</g>
<g>
</g>
<g>
</g>
<g>
</g>
<g>
</g>
<g>
</g>
</svg>
