<?xml version="1.0" encoding="iso-8859-1"?>
<!-- Generator: Adobe Illustrator 19.0.0, SVG Export Plug-In . SVG Version: 6.00 Build 0)  -->
<svg version="1.1" id="Layer_1" xmlns="http://www.w3.org/2000/svg" xmlns:xlink="http://www.w3.org/1999/xlink" x="0px" y="0px"
	 viewBox="0 0 489.7 489.7" style="enable-background:new 0 0 489.7 489.7;" xml:space="preserve">
<g>
	<g>
		<path style="fill:#A7A9AC;" d="M261.9,480.7h-34c-35.3,0-64.1-28.9-64.1-64.1V302.7c0-35.3,28.9-64.1,64.1-64.1h34
			c35.3,0,64.1,28.9,64.1,64.1v113.9C326,451.8,297.2,480.7,261.9,480.7z"/>
		<path d="M224.5,229.5c-38.5,0-69.8,31.3-69.8,69.8v120.6c0,38.5,31.3,69.8,69.8,69.8h40.7c38.5,0,69.8-31.3,69.8-69.8V299.3
			c0-38.5-31.3-69.8-69.8-69.8H255v-44.4c0-16.4-13.3-29.7-29.7-29.7h-63.7c-8.6,0-15.6-7-15.6-15.6s7-15.6,15.6-15.6h167.6
			c18,0,32.7-14.7,32.7-32.7s-14.7-32.7-32.7-32.7h-61.6c-7,0-12.6-5.7-12.6-12.6V9.1c0-5-4.1-9.1-9.1-9.1s-9.1,4.1-9.1,9.1V46
			c0,16.9,13.8,30.7,30.7,30.7h61.6c8,0,14.6,6.5,14.6,14.6s-6.5,14.6-14.6,14.6H161.6c-18.6,0-33.8,15.2-33.8,33.8
			s15.1,33.8,33.8,33.8h63.7c6.4,0,11.6,5.2,11.6,11.6v44.4H224.5z M317,299.3v120.6c0,28.5-23.2,51.7-51.7,51.7h-40.7
			c-28.5,0-51.7-23.2-51.7-51.7V299.3c0-28.5,23.2-51.7,51.7-51.7h40.7C293.8,247.6,317,270.8,317,299.3z"/>
		<path d="M235.8,291.7v32.9c0,5,4.1,9.1,9.1,9.1s9.1-4.1,9.1-9.1v-32.9c0-5-4.1-9.1-9.1-9.1C239.9,282.7,235.8,286.7,235.8,291.7z"
			/>
	</g>
</g>
<g>
</g>
<g>
</g>
<g>
</g>
<g>
</g>
<g>
</g>
<g>
</g>
<g>
</g>
<g>
</g>
<g>
</g>
<g>
</g>
<g>
</g>
<g>
</g>
<g>
</g>
<g>
</g>
<g>
</g>
</svg>
