<?xml version="1.0" encoding="iso-8859-1"?>
<!-- Generator: Adobe Illustrator 19.0.0, SVG Export Plug-In . SVG Version: 6.00 Build 0)  -->
<svg version="1.1" id="Layer_1" xmlns="http://www.w3.org/2000/svg" xmlns:xlink="http://www.w3.org/1999/xlink" x="0px" y="0px"
	 viewBox="0 0 489.4 489.4" style="enable-background:new 0 0 489.4 489.4;" xml:space="preserve">
<g>
	<g>
		<path id="XMLID_7028_" style="fill:#A7A9AC;" d="M244.663,109.8L244.663,109.8c48.4,0,87.9,39.6,87.9,87.9v94
			c0,48.4-39.6,87.9-87.9,87.9l0,0c-48.4,0-87.9-39.6-87.9-87.9v-94C156.763,149.4,196.263,109.8,244.663,109.8z"/>
		<path d="M244.663,471.2c-40.3,0-80.5-10.3-119.5-30.7c-32.8-17.2-59.3-43.6-76.4-76.6c-53.6-102.8-35.8-216,45.2-288.3
			c3.7-3.3,4.1-9.1,0.7-12.8c-3.3-3.7-9.1-4.1-12.8-0.7c-40,35.7-67.5,84.2-77.5,136.6c-10.9,57.2-1.1,117.2,28.3,173.6
			c18.9,36.2,48,65.4,84.1,84.3c41.7,21.8,84.7,32.8,127.9,32.8c134.9,0,244.7-109.8,244.7-244.7S379.563,0,244.663,0
			c-5,0-9.1,4.1-9.1,9.1v92.1c-49.2,4.6-87.9,46.1-87.9,96.5v94c0,53.5,43.5,97,97,97s97-43.5,97-97v-94c0-50.4-38.7-91.9-87.9-96.5
			V18.4c120.7,4.7,217.4,104.4,217.4,226.3C471.163,369.6,369.563,471.2,244.663,471.2z M323.462,197.7v94
			c0,43.5-35.4,78.8-78.8,78.8s-78.8-35.4-78.8-78.8v-94c0-43.5,35.4-78.8,78.8-78.8S323.462,154.3,323.462,197.7z"/>
		<path d="M235.563,174.4V208c0,5,4.1,9.1,9.1,9.1s9.1-4.1,9.1-9.1v-33.6c0-5-4.1-9.1-9.1-9.1S235.563,169.4,235.563,174.4z"/>
	</g>
</g>
<g>
</g>
<g>
</g>
<g>
</g>
<g>
</g>
<g>
</g>
<g>
</g>
<g>
</g>
<g>
</g>
<g>
</g>
<g>
</g>
<g>
</g>
<g>
</g>
<g>
</g>
<g>
</g>
<g>
</g>
</svg>
