<?xml version="1.0" encoding="iso-8859-1"?>
<!-- Generator: Adobe Illustrator 19.0.0, SVG Export Plug-In . SVG Version: 6.00 Build 0)  -->
<svg version="1.1" id="Layer_1" xmlns="http://www.w3.org/2000/svg" xmlns:xlink="http://www.w3.org/1999/xlink" x="0px" y="0px"
	 viewBox="0 0 489.6 489.6" style="enable-background:new 0 0 489.6 489.6;" xml:space="preserve">
<g>
	<g>
		<path id="XMLID_2094_" style="fill:#A7A9AC;" d="M17.1,392.6h107.6c4.4,0,8.1,3.6,8.1,8.1v65.7c0,4.4-3.6,8.1-8.1,8.1H17.1
			c-4.4,0-8.1-3.6-8.1-8.1v-65.7C9,396.2,12.7,392.6,17.1,392.6z"/>
		<path id="XMLID_2093_" style="fill:#3C92CA;" d="M190.9,392.6h107.5c4.4,0,8.1,3.6,8.1,8.1v65.7c0,4.4-3.6,8.1-8.1,8.1H190.9
			c-4.4,0-8.1-3.6-8.1-8.1v-65.7C182.8,396.2,186.5,392.6,190.9,392.6z"/>
		<path id="XMLID_2092_" style="fill:#A7A9AC;" d="M364.7,392.6h107.5c4.4,0,8.1,3.6,8.1,8.1v65.7c0,4.4-3.6,8.1-8.1,8.1H364.7
			c-4.4,0-8.1-3.6-8.1-8.1v-65.7C356.7,396.2,360.3,392.6,364.7,392.6z"/>
		<path d="M25.3,483.5h91.2c14,0,25.3-11.4,25.3-25.3v-49.4c0-14-11.4-25.3-25.3-25.3H80v-56.4h126.5c3.4,14.4,14.8,25.8,29.2,29.2
			v27.2h-36.5c-14,0-25.3,11.4-25.3,25.3v49.3c0,14,11.4,25.3,25.3,25.3h91.2c14,0,25.3-11.4,25.3-25.3v-49.3
			c0-14-11.4-25.3-25.3-25.3h-36.5v-27.2c14.4-3.4,25.8-14.8,29.2-29.2h126.5v56.4h-36.5c-14,0-25.3,11.4-25.3,25.3v49.3
			c0,14,11.4,25.3,25.3,25.3h91.2c14,0,25.3-11.4,25.3-25.3v-49.3c0-14-11.4-25.3-25.3-25.3h-36.5v-65.4c0-5-4.1-9.1-9.1-9.1H283
			c-4.1-17.3-19.7-30.3-38.3-30.3s-34.2,13-38.3,30.3H70.9c-5,0-9.1,4.1-9.1,9.1v65.4H25.3c-14,0-25.3,11.4-25.3,25.3v49.3
			C0,472.1,11.3,483.5,25.3,483.5z M297.5,408.8v49.3c0,4-3.2,7.2-7.2,7.2h-91.2c-4,0-7.2-3.2-7.2-7.2v-49.3c0-4,3.2-7.2,7.2-7.2
			h91.2C294.3,401.6,297.5,404.9,297.5,408.8z M471.3,408.8v49.3c0,4-3.2,7.2-7.2,7.2h-91.2c-4,0-7.2-3.2-7.2-7.2v-49.3
			c0-4,3.2-7.2,7.2-7.2h91.2C468.1,401.6,471.3,404.9,471.3,408.8z M244.7,296.8c11.7,0,21.2,9.5,21.2,21.2s-9.5,21.2-21.2,21.2
			s-21.2-9.5-21.2-21.2S233,296.8,244.7,296.8z M18.1,408.8c0-4,3.2-7.2,7.2-7.2h91.2c4,0,7.2,3.2,7.2,7.2v49.3c0,4-3.2,7.2-7.2,7.2
			H25.3c-4,0-7.2-3.2-7.2-7.2C18.1,458.1,18.1,408.8,18.1,408.8z"/>
		<path d="M128.8,274.5c5,0,9.1-4.1,9.1-9.1v-32.6c0-4.2,1.9-8.2,5.1-10.8c28.8-23.7,60.1-39.4,66-42.4c3.9-1.9,6.3-5.7,6.3-10
			v-45.9c0-3-1.5-5.9-4-7.5c-3.5-2.3-5.6-6.2-5.6-10.3V58.1c0-18.7,15.2-33.9,33.9-33.9h10.3c18.7,0,33.9,15.2,33.9,33.9v47.6
			c0,4.2-2.1,8-5.6,10.3c-2.5,1.7-4,4.5-4,7.5v45.9c0,4.3,2.4,8.2,6.3,10.1c6,2.9,37.2,18.7,66,42.4c3.2,2.7,5.1,6.6,5.1,10.8v32.7
			c0,5,4.1,9.1,9.1,9.1s9.1-4.1,9.1-9.1v-32.6c0-9.7-4.3-18.7-11.7-24.8c-26.3-21.6-54.5-37-65.7-42.7V128
			c6.1-5.7,9.6-13.7,9.6-22.2V58.1c0-28.7-23.3-52-52-52h-10.3c-28.7,0-52,23.3-52,52v47.6c0,8.5,3.5,16.5,9.6,22.2v37.3
			c-11.2,5.7-39.4,21.1-65.7,42.7c-7.4,6.1-11.7,15.2-11.7,24.8v32.7C119.8,270.5,123.8,274.5,128.8,274.5z"/>
	</g>
</g>
<g>
</g>
<g>
</g>
<g>
</g>
<g>
</g>
<g>
</g>
<g>
</g>
<g>
</g>
<g>
</g>
<g>
</g>
<g>
</g>
<g>
</g>
<g>
</g>
<g>
</g>
<g>
</g>
<g>
</g>
</svg>
