<?xml version="1.0" encoding="iso-8859-1"?>
<!-- Generator: Adobe Illustrator 19.0.0, SVG Export Plug-In . SVG Version: 6.00 Build 0)  -->
<svg version="1.1" id="Layer_1" xmlns="http://www.w3.org/2000/svg" xmlns:xlink="http://www.w3.org/1999/xlink" x="0px" y="0px"
	 viewBox="0 0 489.4 489.4" style="enable-background:new 0 0 489.4 489.4;" xml:space="preserve">
<g>
	<g>
		<circle id="XMLID_496_" style="fill:#A7A9AC;" cx="140.8" cy="242.3" r="27.7"/>
		<circle id="XMLID_495_" style="fill:#A7A9AC;" cx="244.7" cy="242.3" r="27.7"/>
		<circle id="XMLID_491_" style="fill:#A7A9AC;" cx="348.6" cy="242.3" r="27.7"/>
		<path d="M36.8,419.3c20.3,0,36.8-16.5,36.8-36.8c0-16.9-11.5-31.2-27.1-35.4v-27.9H132v27.6c-16.1,3.9-28.1,18.4-28.1,35.7
			c0,20.3,16.5,36.8,36.8,36.8s36.8-16.5,36.8-36.8c0-17-11.7-31.4-27.4-35.5v-69.1c15.7-4.2,27.4-18.5,27.4-35.5
			s-11.7-31.4-27.4-35.5v-24h85.5v23.8c-15.9,4.1-27.7,18.5-27.7,35.6c0,20.3,16.5,36.8,36.8,36.8s36.8-16.5,36.8-36.8
			c0-17.2-11.8-31.6-27.7-35.6v-24h85.5v24c-15.7,4.2-27.4,18.5-27.4,35.5s11.7,31.4,27.4,35.5v23.2h-94.6c-5,0-9.1,4.1-9.1,9.1
			v36.8c-15.9,4.1-27.7,18.5-27.7,35.6c0,20.3,16.5,36.8,36.8,36.8s36.8-16.5,36.8-36.8c0-17.2-11.8-31.6-27.7-35.6v-27.7h85.5v27.8
			c-15.7,4.2-27.4,18.5-27.4,35.5c0,20.3,16.5,36.8,36.8,36.8s36.8-16.5,36.8-36.8c0-17.3-12-31.8-28.1-35.7v-27.6h85.5V347
			c-15.6,4.3-27.1,18.5-27.1,35.4c0,20.3,16.5,36.8,36.8,36.8s36.8-16.5,36.8-36.8c0-17.4-12.1-32-28.4-35.8V310
			c0-5-4.1-9.1-9.1-9.1h-94.5v-23.1c16.1-3.9,28.1-18.4,28.1-35.7c0-17.3-12-31.8-28.1-35.7v-32.7c0-5-4.1-9.1-9.1-9.1h-94.5v-22.1
			c15.9-4.1,27.7-18.5,27.7-35.6c0-20.3-16.5-36.8-36.8-36.8s-36.8,16.5-36.8,36.8c0,17.2,11.8,31.6,27.7,35.6v22.1h-94.5
			c-5,0-9.1,4.1-9.1,9.1v32.9c-16.1,3.9-28.1,18.4-28.1,35.7c0,17.3,12,31.8,28.1,35.7v23.1H37.5c-5,0-9.1,4.1-9.1,9.1v36.5
			C12.2,350.5,0,365.1,0,382.5C0,402.8,16.5,419.3,36.8,419.3z M263.4,242.3c0,10.3-8.4,18.7-18.7,18.7s-18.7-8.4-18.7-18.7
			c0-10.3,8.4-18.7,18.7-18.7S263.4,232,263.4,242.3z M263.4,382.5c0,10.3-8.4,18.7-18.7,18.7s-18.7-8.4-18.7-18.7
			c0-10.3,8.4-18.7,18.7-18.7S263.4,372.2,263.4,382.5z M471.2,382.5c0,10.3-8.4,18.7-18.7,18.7c-10.3,0-18.7-8.4-18.7-18.7
			c0-10.3,8.4-18.7,18.7-18.7C462.9,363.8,471.2,372.2,471.2,382.5z M367.3,382.5c0,10.3-8.4,18.7-18.7,18.7
			c-10.3,0-18.7-8.4-18.7-18.7c0-10.3,8.4-18.7,18.7-18.7S367.3,372.2,367.3,382.5z M367.3,242.3c0,10.3-8.4,18.7-18.7,18.7
			c-10.3,0-18.7-8.4-18.7-18.7c0-10.3,8.4-18.7,18.7-18.7S367.3,232,367.3,242.3z M226,106.9c0-10.3,8.4-18.7,18.7-18.7
			s18.7,8.4,18.7,18.7s-8.4,18.7-18.7,18.7C234.4,125.6,226,117.2,226,106.9z M159.4,382.5c0,10.3-8.4,18.7-18.7,18.7
			s-18.7-8.4-18.7-18.7c0-10.3,8.4-18.7,18.7-18.7S159.4,372.2,159.4,382.5z M122.1,242.3c0-10.3,8.4-18.7,18.7-18.7
			s18.7,8.4,18.7,18.7c0,10.3-8.4,18.7-18.7,18.7C130.5,260.9,122.1,252.6,122.1,242.3z M36.8,363.8c10.3,0,18.7,8.4,18.7,18.7
			c0,10.3-8.4,18.7-18.7,18.7s-18.7-8.4-18.7-18.7C18.2,372.2,26.5,363.8,36.8,363.8z"/>
	</g>
</g>
<g>
</g>
<g>
</g>
<g>
</g>
<g>
</g>
<g>
</g>
<g>
</g>
<g>
</g>
<g>
</g>
<g>
</g>
<g>
</g>
<g>
</g>
<g>
</g>
<g>
</g>
<g>
</g>
<g>
</g>
</svg>
