<?xml version="1.0" encoding="iso-8859-1"?>
<!-- Generator: Adobe Illustrator 19.0.0, SVG Export Plug-In . SVG Version: 6.00 Build 0)  -->
<svg version="1.1" id="Layer_1" xmlns="http://www.w3.org/2000/svg" xmlns:xlink="http://www.w3.org/1999/xlink" x="0px" y="0px"
	 viewBox="0 0 489.101 489.101" style="enable-background:new 0 0 489.101 489.101;" xml:space="preserve">
<g>
	<g>
		<path style="fill:#3C92CA;" d="M330.866,345.55h-165.3c-4,0-7.2-3.2-7.2-7.2v-113.9c0-4,3.2-7.2,7.2-7.2h165.3
			c4,0,7.2,3.2,7.2,7.2v113.9C338.066,342.35,334.766,345.55,330.866,345.55z"/>
		<path d="M22.966,333.35c1,0,2.1-0.2,3.1-0.5c4.7-1.7,7.2-6.9,5.5-11.6c-29.6-82.3-10-172.3,51.1-234.9
			c42.3-43.2,98.8-67.4,159.3-68.1c60.4-0.7,117.6,22.2,160.8,64.5l1.4,1.3l-27.4,0.3c-5,0.1-9,4.2-9,9.2c0.1,5,4.1,9,9.1,9h0.1
			l49.3-0.6c2.4,0,4.7-1,6.4-2.7s2.6-4,2.6-6.4l-0.6-49.3c-0.1-5-4.1-9.1-9.2-9c-5,0.1-9,4.2-9,9.2l0.3,27.4l-1.4-1.3
			c-46-45-106.6-69.6-170.8-69.6c-1,0-1.9,0-2.9,0c-65.3,0.7-126.4,26.9-172,73.6c-32.7,33.4-55,75.2-64.5,120.8
			c-9.2,44.4-6.1,90.3,9.2,132.9C15.766,331.05,19.266,333.35,22.966,333.35z"/>
		<path d="M474.666,161.85c-1.7-4.7-6.9-7.2-11.6-5.5s-7.2,6.9-5.5,11.6c29.5,82.3,9.9,172.3-51.2,234.8
			c-44.3,45.3-103.1,68-161.9,68c-57.1,0-114.2-21.4-158.2-64.4l-1.4-1.3l27.4-0.3c5-0.1,9-4.2,9-9.2c-0.1-5-4.1-9-9.1-9h-0.1
			l-49.3,0.6c-5,0.1-9,4.2-9,9.2l0.6,49.3c0.1,5,4.1,9,9.1,9h0.1c5-0.1,9-4.2,9-9.2l-0.3-27.4l1.4,1.3
			c47.5,46.4,109.2,69.5,170.9,69.5c63.5,0,127.1-24.6,174.9-73.5c32.7-33.4,55-75.2,64.5-120.8
			C493.166,250.35,489.966,204.45,474.666,161.85z"/>
		<path d="M248.166,99.55c-40,0-72.5,32.5-72.5,72.5v36.2h-2.9c-13,0-23.6,10.6-23.6,23.6v99.3c0,13,10.6,23.6,23.6,23.6h150.8
			c13,0,23.6-10.6,23.6-23.6v-99.3c0-13-10.6-23.6-23.6-23.6h-2.9v-36.2C320.666,132.05,288.166,99.55,248.166,99.55z
			 M193.866,172.05c0-30,24.4-54.4,54.4-54.4s54.4,24.4,54.4,54.4v36.2h-108.8L193.866,172.05L193.866,172.05z M328.966,231.75v99.3
			c0,3-2.4,5.4-5.4,5.4h-150.7c-3,0-5.4-2.4-5.4-5.4v-99.3c0-3,2.4-5.4,5.4-5.4h150.7C326.566,226.35,328.966,228.75,328.966,231.75
			z"/>
		<path d="M250.566,258.05c-6-1.2-12.4,2.2-15,8c-2.7,5.9-0.9,12.7,4.5,16.7c1.1,0.8,1.3,1.6,1.3,2.8c0,5.9,0,11.9,0,17.8l0,0
			c0,4.9,5.2,8.6,10.4,6c2.2-1.1,3.5-3.5,3.3-6l0,0c0-5.9,0-11.9,0-17.8c0-1.3,0.3-2.1,1.4-2.9c3.7-2.7,5.6-6.5,5.6-11.1
			C261.966,264.85,257.266,259.451,250.566,258.05z"/>
	</g>
</g>
<g>
</g>
<g>
</g>
<g>
</g>
<g>
</g>
<g>
</g>
<g>
</g>
<g>
</g>
<g>
</g>
<g>
</g>
<g>
</g>
<g>
</g>
<g>
</g>
<g>
</g>
<g>
</g>
<g>
</g>
</svg>
