<?xml version="1.0" encoding="iso-8859-1"?>
<!-- Generator: Adobe Illustrator 19.0.0, SVG Export Plug-In . SVG Version: 6.00 Build 0)  -->
<svg version="1.1" id="Layer_1" xmlns="http://www.w3.org/2000/svg" xmlns:xlink="http://www.w3.org/1999/xlink" x="0px" y="0px"
	 viewBox="0 0 489.82 489.82" style="enable-background:new 0 0 489.82 489.82;" xml:space="preserve">
<g>
	<g>
		<path style="fill:#A7A9AC;" d="M328.61,352.781h-167.4c-4,0-7.2-3.2-7.2-7.2v-115.4c0-4,3.2-7.2,7.2-7.2h167.5
			c4,0,7.2,3.2,7.2,7.2v115.4C335.81,349.581,332.61,352.781,328.61,352.781z"/>
		<path d="M23.01,333.781c1,0,2.1-0.2,3.1-0.5c4.7-1.7,7.2-6.9,5.5-11.6c-29.7-82.5-10-172.6,51.2-235.3
			c87.4-89.4,231.2-91.1,320.6-3.7l1.4,1.4l-27.4,0.3c-5,0.1-9,4.2-9,9.2c0.1,5,4.1,9,9.1,9h0.1l49.3-0.6c2.4,0,4.7-1,6.4-2.7
			s2.6-4,2.6-6.4l-0.6-49.3c-0.1-5-4.1-9.1-9.2-9c-5,0.1-9,4.2-9,9.2l0.3,27.4l-1.4-1.4c-96.6-94.4-251.9-92.6-346.2,4
			c-32.7,33.5-55.1,75.3-64.6,121c-9.3,44.4-6.1,90.4,9.2,133.1C15.81,331.481,19.31,333.781,23.01,333.781z"/>
		<path d="M407.01,403.381c-44.3,45.4-103.2,68.2-162.2,68.1c-57.2,0-114.4-21.4-158.4-64.5l-1.4-1.4l27.4-0.3c5-0.1,9-4.2,9-9.2
			c-0.1-5-4.1-9-9.1-9h-0.1l-49.3,0.7c-5,0.1-9,4.2-9,9.2l0.6,49.3c0.1,5,4.1,9,9.1,9h0.1c5-0.1,9-4.2,9-9.2l-0.3-27.4l1.4,1.4
			c47.6,46.5,109.3,69.6,171.1,69.6c63.6,0,127.2-24.6,175.1-73.6c32.7-33.5,55.1-75.3,64.6-121c9.3-44.4,6.1-90.4-9.2-133.1
			c-1.7-4.7-6.9-7.2-11.6-5.5s-7.2,6.9-5.5,11.6C487.91,250.581,468.21,340.681,407.01,403.381z"/>
		<path d="M244.91,103.981c-40.4,0-73.3,32.9-73.3,73.3v36.6h-3.2c-13,0-23.6,10.6-23.6,23.6v100.8c0,13,10.6,23.6,23.6,23.6h152.9
			c13,0,23.6-10.6,23.6-23.6v-100.8c0-13-10.6-23.6-23.6-23.6h-3.2v-36.7C318.21,136.781,285.31,103.981,244.91,103.981z
			 M189.81,177.181c0-30.4,24.7-55.1,55.1-55.1s55.1,24.7,55.1,55.1v36.7h-110.2L189.81,177.181L189.81,177.181z M326.81,237.481
			v100.8c0,3-2.4,5.4-5.4,5.4h-152.9c-3,0-5.4-2.4-5.4-5.4v-100.8c0-3,2.4-5.4,5.4-5.4h152.9
			C324.31,232.081,326.81,234.481,326.81,237.481z"/>
		<path d="M247.61,261.681c-6.7-1.3-13.8,2.4-16.7,8.9c-3,6.6-1,14.1,5,18.5c1.2,0.9,1.5,1.8,1.5,3.1c0,6.6,0,13.2,0,19.8l0,0
			c0,5.5,5.7,9.6,11.5,6.6c2.4-1.2,3.8-3.9,3.7-6.7l0,0c0-6.6,0-13.2,0-19.8c0-1.4,0.3-2.4,1.6-3.3c4.1-3,6.2-7.2,6.2-12.3
			C260.21,269.181,255.01,263.181,247.61,261.681z"/>
	</g>
</g>
<g>
</g>
<g>
</g>
<g>
</g>
<g>
</g>
<g>
</g>
<g>
</g>
<g>
</g>
<g>
</g>
<g>
</g>
<g>
</g>
<g>
</g>
<g>
</g>
<g>
</g>
<g>
</g>
<g>
</g>
</svg>
