<?xml version="1.0" encoding="iso-8859-1"?>
<!-- Generator: Adobe Illustrator 19.0.0, SVG Export Plug-In . SVG Version: 6.00 Build 0)  -->
<svg version="1.1" id="Layer_1" xmlns="http://www.w3.org/2000/svg" xmlns:xlink="http://www.w3.org/1999/xlink" x="0px" y="0px"
	 viewBox="0 0 492 492" style="enable-background:new 0 0 492 492;" xml:space="preserve">
<g>
	<g>
		<g id="XMLID_1292_">
			<path id="XMLID_1296_" style="fill:#3C92CA;" d="M292.9,10.5v190H317h39.2H483c0-48.2-18-92.3-47.6-125.8
				C400.5,35.3,349.6,10.5,292.9,10.5z"/>
		</g>
		<path d="M492,200.5c0-48.6-17.7-95.4-49.9-131.8C404.4,26,350,1.4,292.9,1.4c-5,0-9.1,4.1-9.1,9.1v190c0,5,4.1,9.1,9.1,9.1h190
			C488,209.6,492,205.5,492,200.5z M302,191.5V19.8c48.5,2.4,94.2,24.3,126.6,61c27.2,30.8,43,69.8,45.1,110.7H302z"/>
		<path d="M436.9,272.1c0-5-4.1-9.1-9.1-9.1s-9.1,4.1-9.1,9.1c0,110.5-89.9,200.3-200.3,200.3c-110.5,0-200.3-89.9-200.3-200.3
			S108,71.8,218.4,71.8c5,0,9.1-4.1,9.1-9.1s-4.1-9.1-9.1-9.1C98,53.7,0,151.7,0,272.1s98,218.5,218.5,218.5
			S436.9,392.6,436.9,272.1z"/>
		<path d="M218.4,143.4c-5,0-9.1,4-9.1,9.1c0,5,4.1,9.1,9.1,9.1s9.1-4.1,9.1-9.1C227.5,147.4,223.5,143.4,218.4,143.4z"/>
		<path d="M218.4,83.6c-5,0-9.1,4-9.1,9.1c0,5,4.1,9,9.1,9s9.1-4.1,9.1-9C227.5,87.6,223.5,83.6,218.4,83.6z"/>
		<path d="M218.4,173.3c-5,0-9.1,4.1-9.1,9.1s4.1,9.1,9.1,9.1s9.1-4,9.1-9.1C227.5,177.4,223.5,173.3,218.4,173.3z"/>
		<path d="M218.4,113.5c-5,0-9.1,4.1-9.1,9.1s4.1,9.1,9.1,9.1s9.1-4.1,9.1-9.1C227.5,117.5,223.5,113.5,218.4,113.5z"/>
		<path d="M218.4,233.1c-5,0-9.1,4.1-9.1,9.1s4.1,9.1,9.1,9.1s9.1-4,9.1-9.1C227.5,237.2,223.5,233.1,218.4,233.1z"/>
		<path d="M218.4,203.2c-5,0-9.1,4-9.1,9.1c0,5,4.1,9.1,9.1,9.1s9.1-4.1,9.1-9.1S223.5,203.2,218.4,203.2z"/>
		<path d="M218.4,263c-2.4,0-4.7,1-6.4,2.7s-2.7,4-2.7,6.4s1,4.7,2.7,6.4c1.7,1.7,4,2.6,6.4,2.6s4.7-1,6.4-2.6
			c1.7-1.7,2.7-4,2.7-6.4s-1-4.7-2.7-6.4C223.2,264,220.8,263,218.4,263z"/>
		<path d="M407,272.1c0-5-4-9.1-9.1-9.1c-5,0-9.1,4.1-9.1,9.1s4.1,9.1,9.1,9.1S407,277.1,407,272.1z"/>
		<path d="M287.3,272.1c0-5-4.1-9.1-9.1-9.1s-9.1,4.1-9.1,9.1s4,9.1,9.1,9.1S287.3,277.1,287.3,272.1z"/>
		<path d="M317.3,272.1c0-5-4.1-9.1-9.1-9.1s-9.1,4.1-9.1,9.1s4,9.1,9.1,9.1C313.2,281.2,317.3,277.1,317.3,272.1z"/>
		<path d="M347.2,272.1c0-5-4.1-9.1-9.1-9.1s-9.1,4.1-9.1,9.1s4,9.1,9.1,9.1C343.1,281.2,347.2,277.1,347.2,272.1z"/>
		<path d="M368,281.2c5,0,9.1-4,9.1-9.1c0-5-4.1-9.1-9.1-9.1s-9.1,4.1-9.1,9.1C359,277.1,363,281.2,368,281.2z"/>
		<path d="M257.4,272.1c0-5-4-9.1-9.1-9.1c-5,0-9.1,4.1-9.1,9.1s4.1,9.1,9.1,9.1C253.4,281.2,257.4,277.1,257.4,272.1z"/>
	</g>
</g>
<g>
</g>
<g>
</g>
<g>
</g>
<g>
</g>
<g>
</g>
<g>
</g>
<g>
</g>
<g>
</g>
<g>
</g>
<g>
</g>
<g>
</g>
<g>
</g>
<g>
</g>
<g>
</g>
<g>
</g>
</svg>
