<?xml version="1.0" encoding="iso-8859-1"?>
<!-- Generator: Adobe Illustrator 19.0.0, SVG Export Plug-In . SVG Version: 6.00 Build 0)  -->
<svg version="1.1" id="Layer_1" xmlns="http://www.w3.org/2000/svg" xmlns:xlink="http://www.w3.org/1999/xlink" x="0px" y="0px"
	 viewBox="0 0 489.4 489.4" style="enable-background:new 0 0 489.4 489.4;" xml:space="preserve">
<g>
	<g>
		<rect id="XMLID_1475_" x="331.4" y="341.881" style="fill:#3C92CA;" width="148.8" height="96"/>
		<path d="M299.1,437.881c0-5-4.1-9.1-9.1-9.1h-20.9c-1,0-1.8-0.8-1.8-1.8v-16.4c0-2.6-1.1-5.1-3.1-6.8c-2-1.7-4.6-2.5-7.2-2.2
			c-16.6,2.2-33.7,2.5-50.6,0.7c-2.6-0.3-5.1,0.6-7,2.3c-1.9,1.7-3,4.2-3,6.7v15.7c0,1-0.8,1.8-1.8,1.8h-66.5c-1,0-1.8-0.8-1.8-1.8
			v-16.4c0-0.1,0-0.1,0-0.2c-0.1-6.2-5.4-33.6-28.4-54.8c-22-19.6-37.8-43.8-45.9-70c-1.2-3.8-4.7-6.4-8.7-6.4h-14
			c-6.1,0-11.1-5-11.1-11.1v-49.7c0-6.1,5-11.1,11.1-11.1h14.6c3.9,0,7.6-2.4,8.8-6.2c9.1-27.8,26.9-53,51.5-72.9
			c2.1-1.7,3.3-4.1,3.4-6.8c0-0.3,0-0.5,0.1-0.8c5.1-17.8,1.6-37-10-55.5c-0.9-1.4-0.4-2.6,0-3.2c0.4-0.6,1.2-1.6,2.9-1.3
			c31,3.9,47.2,19,55.3,31.1c2.2,3.3,6.4,4.8,10.3,3.6c20-6.3,41.1-9.6,62.6-9.6c79.3,0,149.2,44,173.9,109.4
			c1.9,5.2,3.6,10.5,4.9,15.8c0.8,3.4,1.6,6.8,2.1,10.3c0.8,4.9,5.5,8.3,10.5,7.4c4.9-0.8,8.3-5.5,7.4-10.5
			c-0.7-3.9-1.5-7.8-2.4-11.6c-1.5-6-3.4-12-5.6-17.8c-27.4-72.5-104.1-121.2-190.9-121.2c-21.1,0-41.9,2.9-61.8,8.5
			c-11.2-14-30.8-29.3-64.1-33.5c-8.2-1-16,2.7-20.4,9.6s-4.4,15.6-0.1,22.6c8.9,14.2,11.6,28,7.9,40.9c-0.1,0.2-0.1,0.4-0.2,0.6
			c-24.1,20.2-42.1,45.2-52.4,72.8h-8.4c-16.1,0-29.2,13.1-29.2,29.2v49.7c0,16.1,13.1,29.2,29.2,29.2h7.5
			c9.5,26.9,26.4,51.6,48.9,71.7c17.8,16.3,22.3,38.1,22.4,41.7v16.3c0,11,9,20,20,20h66.5c11,0,20-9,20-20v-5.8
			c11.6,0.7,23.1,0.5,34.6-0.5v6.3c0,11,9,20,20,20H290C295.1,446.981,299.1,442.881,299.1,437.881z"/>
		<path d="M349.7,304.981v27.9h-18.2c-5,0-9.1,4.1-9.1,9.1v96c0,5,4.1,9.1,9.1,9.1h148.8c5,0,9.1-4.1,9.1-9.1v-96
			c0-5-4.1-9.1-9.1-9.1h-18.2v-27.9c0-31-25.2-56.2-56.2-56.2S349.7,273.981,349.7,304.981z M471.1,428.781H340.5v-77.9h130.7v77.9
			H471.1z M443.8,304.981v27.9h-76.1v-27.9c0-21,17.1-38,38-38C426.8,266.881,443.8,283.981,443.8,304.981z"/>
	</g>
</g>
<g>
</g>
<g>
</g>
<g>
</g>
<g>
</g>
<g>
</g>
<g>
</g>
<g>
</g>
<g>
</g>
<g>
</g>
<g>
</g>
<g>
</g>
<g>
</g>
<g>
</g>
<g>
</g>
<g>
</g>
</svg>
