<?xml version="1.0" encoding="iso-8859-1"?>
<!-- Generator: Adobe Illustrator 19.0.0, SVG Export Plug-In . SVG Version: 6.00 Build 0)  -->
<svg version="1.1" id="Layer_1" xmlns="http://www.w3.org/2000/svg" xmlns:xlink="http://www.w3.org/1999/xlink" x="0px" y="0px"
	 viewBox="0 0 489.617 489.617" style="enable-background:new 0 0 489.617 489.617;" xml:space="preserve">
<g>
	<g>
		<path style="fill:#3C92CA;" d="M362.81,220.117l-15.1-8.7c-3.2-1.8-5-5.3-4.8-8.9c0.3-5.3,0.1-10.5-0.5-15.7
			c-0.4-3.6,1.2-7.1,4.2-9.1l14.8-10c3.6-2.5,4.9-7.2,3.1-11.2l-4.9-10.6l-4.9-10.6c-1.8-4-6.2-6-10.5-4.9l-16.8,4.7
			c-3.6,1-7.3-0.2-9.8-2.9c-3.5-3.8-7.2-7.4-11.3-10.7c-2.8-2.3-4.2-5.9-3.6-9.4l3.4-17.6c0.8-4.3-1.6-8.6-5.7-10.2l-11-4.1l-11-4.1
			c-4.2-1.6-8.8,0.1-11,3.9l-8.7,15c-1.8,3.2-5.4,5-9.1,4.8c-5.5-0.3-10.9-0.1-16.2,0.5c-3.6,0.4-7.2-1.1-9.3-4.1l-9.9-14.6
			c-2.5-3.6-7.2-4.9-11.2-3.1l-10.6,4.9l-10.6,4.9c-4,1.8-6,6.2-4.9,10.5l4.6,17.1c0.9,3.5-0.2,7.2-2.9,9.7
			c-3.9,3.5-7.4,7.4-10.7,11.5c-2.3,2.9-5.9,4.3-9.5,3.6l-17.4-3.4c-4.2-0.8-8.5,1.6-10.2,5.5l-4.1,11l-4.1,11
			c-1.6,4.2,0.1,8.8,3.9,11l15.3,8.8c3.2,1.8,5,5.2,4.8,8.9c-0.2,5.3-0.1,10.5,0.6,15.7c0.4,3.6-1.1,7.2-4.1,9.2l-14.7,9.9
			c-3.6,2.5-4.9,7.2-3.1,11.2l4.9,10.6l4.9,10.6c1.8,4,6.2,6,10.5,4.9l17.2-4.8c3.5-0.9,7.2,0.2,9.7,2.9c3.5,3.9,7.4,7.4,11.5,10.7
			c2.9,2.3,4.3,5.9,3.6,9.5l-3.4,17.4c-0.8,4.3,1.6,8.6,5.7,10.2l11,4.1l11,4.1c4.2,1.6,8.8-0.1,11-3.9l8.8-15.3
			c1.8-3.2,5.3-5,8.9-4.8c5,0.2,10,0,14.9-0.5c3.6-0.4,7.2,1.2,9.2,4.2l10,14.8c2.5,3.6,7.2,4.9,11.2,3.1l10.6-4.9l10.6-4.9
			c4-1.8,6-6.2,4.9-10.5l-4.5-16.9c-1-3.5,0.2-7.3,2.9-9.7c3.8-3.5,7.4-7.3,10.7-11.4c2.3-2.8,5.9-4.2,9.4-3.6l17.6,3.4
			c4.3,0.8,8.6-1.6,10.2-5.7l4.1-11l4.1-11C368.31,226.817,366.61,222.317,362.81,220.117z M286.11,212.317
			c-6.2,17.4-22.8,29.1-41.2,29.1c-5,0-9.9-0.9-14.7-2.5c-22.7-8.1-34.7-33.1-26.6-55.9c6.2-17.4,22.8-29.1,41.2-29.1
			c5,0,9.9,0.9,14.6,2.5c11,3.9,19.8,11.9,24.9,22.4C289.41,189.417,290.01,201.317,286.11,212.317z"/>
		<path d="M436.91,232.517c2.3-12.1,3.5-24.5,3.5-36.9c0-110.2-91.6-199.3-202.6-195.5c-97.6,3.4-178.3,79.3-187.7,176.4
			c-1.8,18.8-0.9,37.6,2.6,56.1c0.1,0.7,0.5,2.8,1.3,6.2c3,13.3,7.4,26.3,13.1,38.7c21.2,49.9,67.8,126.8,170,209.4
			c2.2,1.8,4.9,2.7,7.7,2.7s5.5-1,7.7-2.7c102.2-82.6,148.8-159.4,170-209.4c5.7-12.4,10.1-25.4,13.1-38.6
			C436.51,235.117,436.91,232.917,436.91,232.517z M419.11,229.317c0,0.2-0.1,0.3-0.1,0.5c-0.1,0.5-0.4,2.3-1.1,5
			c-2.7,12.1-6.8,23.9-12,35.2c0,0.1-0.1,0.2-0.1,0.3c-20,47.5-64.2,120.3-161,199.5c-96.8-79.1-141-152-161-199.5
			c0-0.1-0.1-0.2-0.1-0.3c-5.2-11.3-9.2-23.1-12-35.3c-0.7-3.1-1-4.7-1.1-5c0-0.1,0-0.3-0.1-0.4c-3.2-16.8-4-33.9-2.4-51
			c8.5-88.2,81.7-157,170.3-160c100.7-3.5,183.8,77.4,183.8,177.4C422.31,206.917,421.21,218.217,419.11,229.317z"/>
		<path d="M262.51,147.917c-5.7-2-11.7-3.1-17.7-3.1c-22.3,0-42.3,14.1-49.8,35.1c-4.7,13.3-4,27.6,2.1,40.4
			c6.1,12.7,16.7,22.4,30,27.1c5.7,2,11.7,3.1,17.7,3.1c22.3,0,42.3-14.1,49.8-35.1C304.41,187.917,290.01,157.617,262.51,147.917z
			 M277.51,209.317c-4.9,13.8-18,23.1-32.7,23.1c-3.9,0-7.9-0.7-11.6-2c-18-6.4-27.5-26.3-21.1-44.3c4.9-13.8,18-23.1,32.7-23.1
			c3.9,0,7.9,0.7,11.6,2C274.51,171.317,283.91,191.217,277.51,209.317z"/>
		<path d="M346.71,120.917c-1.6,0-3.1,0.2-4.8,0.6l-16.9,4.7c-0.2,0-0.4-0.1-0.6-0.3c-3.9-4.3-8-8.2-12.4-11.6
			c-0.2-0.1-0.4-0.4-0.3-0.7l3.4-17.6c1.6-8.7-3.2-17.2-11.5-20.3l-22-8.2c-2-0.8-4.2-1.1-6.3-1.1c-6.4,0-12.4,3.5-15.6,9l-8.7,15
			c-0.1,0.2-0.4,0.3-0.7,0.3c-5.9-0.3-11.8-0.2-17.9,0.6c-0.1,0-0.4,0-0.6-0.2l-9.9-14.7c-3.4-4.9-9-7.9-14.9-7.9
			c-2.6,0-5.1,0.5-7.5,1.6l-21.3,9.7c-8,3.7-12.2,12.5-9.9,21.1l4.6,17.1c0.1,0.2-0.1,0.5-0.2,0.6c-4.2,3.8-8.1,8.1-11.7,12.6
			c-0.1,0.2-0.3,0.3-0.6,0.3l-17.4-3.4c-1.1-0.2-2.2-0.3-3.3-0.3c-7.3,0-14,4.4-16.9,11.1c-0.1,0.1-0.1,0.3-0.2,0.4l-8.2,22
			c-3.1,8.3,0.2,17.5,7.9,22l15.3,8.8c0.2,0.1,0.3,0.4,0.3,0.6c-0.3,5.8-0.1,11.6,0.6,17.2c0,0.2,0,0.5-0.2,0.6l-14.7,10
			c-7.3,5-9.9,14.4-6.3,22.4l9.7,21.3c2.9,6.4,9.4,10.5,16.4,10.5c1.6,0,3.1-0.2,4.7-0.6l17.2-4.6c0.2,0,0.4,0.1,0.5,0.3
			c3.8,4.2,8.1,8.1,12.6,11.7c0.2,0.1,0.3,0.4,0.3,0.6l-3.4,17.4c-1.7,8.7,3.2,17.2,11.5,20.3l22,8.2c2,0.8,4.2,1.1,6.3,1.1
			c6.4,0,12.4-3.5,15.6-9.1l8.8-15.3c0.1-0.2,0.4-0.3,0.7-0.3l0,0c5.4,0.2,10.9,0,16.5-0.6c0.1,0,0.4,0,0.6,0.2l10.1,14.8
			c3.4,4.9,9,7.9,14.9,7.9c2.6,0,5.1-0.5,7.5-1.6l21.3-9.7c8-3.7,12.2-12.5,9.9-21.1l-4.5-16.9c-0.1-0.3,0.1-0.5,0.3-0.7
			c4.3-3.9,8.2-8.1,11.7-12.4c0.2-0.2,0.4-0.3,0.7-0.3l17.6,3.3c1.1,0.2,2.2,0.3,3.4,0.3c7.5,0,14.4-4.7,17-11.8l8.2-22
			c3.1-8.3-0.2-17.5-7.9-22l-15.1-8.7c-0.2-0.1-0.3-0.4-0.3-0.6c0.3-5.7,0.1-11.4-0.5-17.1c0-0.3,0.1-0.5,0.2-0.6l14.9-10.1
			c7.3-5,9.9-14.4,6.3-22.4l-9.7-21.2C360.21,125.017,353.81,120.917,346.71,120.917z M341.61,170.117c-5.8,3.9-8.9,10.7-8.1,17.6
			c0.5,4.7,0.7,9.5,0.4,14.2c-0.4,7.1,3.2,13.7,9.3,17.3l15.1,8.7l-8.2,22l-17.6-3.3c-1.1-0.2-2.3-0.3-3.5-0.3
			c-5.7,0-11.1,2.6-14.7,7.1c-2.9,3.6-6.2,7.1-9.7,10.3c-5.3,4.8-7.4,12-5.6,18.8l4.6,16.8l-21.1,9.7l-10-14.8
			c-3.9-5.7-10.7-8.9-17.7-8.1c-4.5,0.5-9,0.7-13.5,0.5c-7.1-0.3-13.7,3.3-17.2,9.4l-8.8,15.3l-22-8.1l3.4-17.4
			c1.3-6.9-1.3-13.9-6.8-18.3c-3.8-3-7.3-6.2-10.5-9.7c-3.6-3.9-8.6-6.2-13.9-6.2c-1.6,0-3.2,0.2-4.8,0.6l-17,4.6l-9.7-21.1l14.7-10
			c5.8-3.9,8.9-10.7,8.1-17.8c-0.6-4.7-0.7-9.5-0.5-14.3c0.3-7.1-3.3-13.6-9.3-17.1l-15.3-8.8l8.1-21.6c0-0.1,0.1-0.1,0.1-0.1
			l17.4,3.4c1.2,0.2,2.4,0.3,3.5,0.3c5.8,0,11.1-2.6,14.7-7.2c3-3.8,6.2-7.3,9.7-10.5c5.2-4.8,7.3-11.9,5.5-18.7l-4.6-17l21.1-9.7
			l9.9,14.6c3.9,5.8,10.8,8.9,17.9,8.1c4.8-0.6,9.7-0.7,14.6-0.5c7.2,0.4,13.9-3.2,17.4-9.3l8.6-15l22,8.2l-3.4,17.6
			c-1.3,6.8,1.3,13.8,6.8,18.2c3.6,2.9,7,6.1,10.3,9.7c3.6,4,8.7,6.2,14,6.2c1.7,0,3.4-0.2,5-0.7l16.6-4.7l9.7,21.1L341.61,170.117z
			"/>
	</g>
</g>
<g>
</g>
<g>
</g>
<g>
</g>
<g>
</g>
<g>
</g>
<g>
</g>
<g>
</g>
<g>
</g>
<g>
</g>
<g>
</g>
<g>
</g>
<g>
</g>
<g>
</g>
<g>
</g>
<g>
</g>
</svg>
