<?xml version="1.0" encoding="iso-8859-1"?>
<!-- Generator: Adobe Illustrator 19.0.0, SVG Export Plug-In . SVG Version: 6.00 Build 0)  -->
<svg version="1.1" id="Layer_1" xmlns="http://www.w3.org/2000/svg" xmlns:xlink="http://www.w3.org/1999/xlink" x="0px" y="0px"
	 viewBox="0 0 489.8 489.8" style="enable-background:new 0 0 489.8 489.8;" xml:space="preserve">
<g>
	<g>
		<circle style="fill:#A7A9AC;" cx="245" cy="453.9" r="26.8"/>
		<circle style="fill:#A7A9AC;" cx="422.8" cy="453.9" r="26.8"/>
		<circle style="fill:#A7A9AC;" cx="67" cy="453.9" r="26.8"/>
		<path d="M442.9,30.5c0-16.8-13.7-30.5-30.5-30.5H77.6C60.8,0,47.1,13.7,47.1,30.5v69.1c0,8.3,3.4,15.9,8.8,21.4
			c-5.4,5.5-8.8,13.1-8.8,21.4v69.1c0,8.3,3.4,15.9,8.8,21.4c-5.4,5.5-8.8,13.1-8.8,21.4v69.1c0,16.8,13.7,30.5,30.5,30.5h334.8
			c16.8,0,30.5-13.7,30.5-30.5v-69.1c0-8.3-3.4-15.9-8.8-21.4c5.4-5.5,8.8-13.1,8.8-21.4v-69.1c0-8.3-3.4-15.9-8.8-21.4
			c5.4-5.5,8.8-13.1,8.8-21.4V30.5z M65.2,30.5c0-6.8,5.5-12.3,12.3-12.3h334.8c6.8,0,12.4,5.5,12.4,12.3v69.1
			c0,6.8-5.5,12.4-12.4,12.4H77.6c-6.8,0-12.3-5.5-12.3-12.4V30.5H65.2z M424.8,142.4v69.1c0,6.8-5.5,12.3-12.4,12.3H77.6
			c-6.8,0-12.3-5.5-12.3-12.3v-69.1c0-6.8,5.5-12.3,12.3-12.3h334.8C419.2,130.1,424.8,135.6,424.8,142.4z M424.8,323.4
			c0,6.8-5.5,12.3-12.4,12.3H77.6c-6.8,0-12.3-5.5-12.3-12.3v-69.1c0-6.8,5.5-12.3,12.3-12.3h334.8c6.8,0,12.4,5.5,12.4,12.3V323.4z
			"/>
		<path d="M241,74.1h113c5,0,9.1-4.1,9.1-9.1s-4.1-9.1-9.1-9.1H241c-5,0-9.1,4.1-9.1,9.1S236,74.1,241,74.1z"/>
		<circle cx="148.8" cy="65.1" r="10.8"/>
		<path d="M241,186h113c5,0,9.1-4.1,9.1-9.1s-4.1-9.1-9.1-9.1H241c-5,0-9.1,4.1-9.1,9.1C232,182,236,186,241,186z"/>
		<path d="M354,279.8H241c-5,0-9.1,4.1-9.1,9.1s4.1,9.1,9.1,9.1h113c5,0,9.1-4.1,9.1-9.1S359,279.8,354,279.8z"/>
		<circle cx="148.8" cy="177" r="10.8"/>
		<circle cx="148.8" cy="288.9" r="10.8"/>
		<path d="M422.8,418c-16.6,0-30.6,11.4-34.7,26.8H279.7c-3.3-12.5-13.1-22.3-25.6-25.6v-28.4c0-5-4.1-9.1-9.1-9.1s-9.1,4.1-9.1,9.1
			v28.4c-12.5,3.3-22.3,13.1-25.6,25.6H101.6c-4-15.4-18-26.8-34.7-26.8C47.1,418,31,434.1,31,453.9s16.1,35.9,35.9,35.9
			c16.6,0,30.6-11.4,34.7-26.8h108.7c4,15.4,18,26.8,34.7,26.8c16.7,0,30.6-11.4,34.7-26.8h108.5c4,15.4,18,26.8,34.7,26.8
			c19.8,0,35.9-16.1,35.9-35.9S442.6,418,422.8,418z M67,471.6c-9.8,0-17.8-8-17.8-17.8S57.2,436,67,436s17.8,8,17.8,17.8
			S76.7,471.6,67,471.6z M245,471.6c-9.8,0-17.8-8-17.8-17.8s8-17.8,17.8-17.8s17.8,8,17.8,17.8S254.8,471.6,245,471.6z
			 M422.8,471.6c-9.8,0-17.8-8-17.8-17.8s8-17.8,17.8-17.8s17.8,8,17.8,17.8S432.6,471.6,422.8,471.6z"/>
	</g>
</g>
<g>
</g>
<g>
</g>
<g>
</g>
<g>
</g>
<g>
</g>
<g>
</g>
<g>
</g>
<g>
</g>
<g>
</g>
<g>
</g>
<g>
</g>
<g>
</g>
<g>
</g>
<g>
</g>
<g>
</g>
</svg>
