<?xml version="1.0" encoding="iso-8859-1"?>
<!-- Generator: Adobe Illustrator 19.0.0, SVG Export Plug-In . SVG Version: 6.00 Build 0)  -->
<svg version="1.1" id="Layer_1" xmlns="http://www.w3.org/2000/svg" xmlns:xlink="http://www.w3.org/1999/xlink" x="0px" y="0px"
	 viewBox="0 0 491.4 491.4" style="enable-background:new 0 0 491.4 491.4;" xml:space="preserve">
<g>
	<g>
		<path style="fill:#A7A9AC;" d="M105.2,414.3h278.3v48c0,8.7-7,15.7-15.7,15.7H120.9c-8.7,0-15.7-7-15.7-15.7
			C105.2,462.3,105.2,414.3,105.2,414.3z"/>
		<path style="fill:#A7A9AC;" d="M384.8,72.6H106.5V29.3c0-11.2,9.1-20.3,20.3-20.3h237.7c11.2,0,20.3,9.1,20.3,20.3V72.6
			L384.8,72.6z"/>
		<path d="M226.6,457.2h40.3c5,0,9.1-4.1,9.1-9.1s-4.1-9.1-9.1-9.1h-40.3c-5,0-9.1,4.1-9.1,9.1C217.5,453.1,221.6,457.2,226.6,457.2
			z"/>
		<path d="M395.8,438V51.6c0-28.5-23.3-51.6-52-51.6H148.2c-29,0-52.5,23.2-52.5,51.6v325c0,5,4.1,9.1,9.1,9.1s9.1-4.1,9.1-9.1v-292
			h263.9v318.2H109.1l-2.3-0.6c-2.7-0.7-5.6,0-7.7,1.7c-2.2,1.7-3.5,4.3-3.5,7.1v26.9c0,29,24.1,53.5,52.5,53.5h195.6
			C371.9,491.4,395.8,467,395.8,438z M377.6,438c0,18.8-15.8,35.3-33.9,35.3H148.2c-18.3,0-34.4-16.5-34.4-35.3v-17h263.9v17H377.6z
			 M113.8,66.4V51.6c0-18.2,15.8-33.5,34.4-33.5h195.5c18.7,0,33.9,15,33.9,33.5v14.8H113.8z"/>
		<path d="M296.1,327.3c0-5-4.1-9.1-9.1-9.1h-80.6c-5,0-9.1,4.1-9.1,9.1s4.1,9.1,9.1,9.1H287C292,336.3,296.1,332.3,296.1,327.3z"/>
		<path d="M220.5,350.4c-5,0-9.1,4.1-9.1,9.1s4.1,9.1,9.1,9.1h54.4c5,0,9.1-4.1,9.1-9.1s-4.1-9.1-9.1-9.1H220.5z"/>
		<path d="M164.6,265.3c-5.8,4.8-9.2,11.9-9.2,19.5v22.9c0,5,4.1,9.1,9.1,9.1s9.1-4.1,9.1-9.1v-22.9c0-2.1,0.9-4.1,2.6-5.5
			c19.9-16.4,41.6-27.3,45.7-29.3c3.6-1.8,5.9-5.5,5.9-9.5v-32.2c0-3-1.5-5.9-4-7.5c-1.7-1.1-2.7-3-2.7-5v-33.4c0-11.6,9.4-21,21-21
			h7.2c11.6,0,21,9.4,21,21v33.4c0,2-1,3.9-2.7,5c-2.5,1.7-4,4.5-4,7.5v32.2c0,4,2.3,7.7,5.9,9.5c4.1,2,25.8,12.9,45.7,29.3
			c1.6,1.3,2.6,3.3,2.6,5.5v22.9c0,5,4.1,9.1,9.1,9.1s9.1-4.1,9.1-9.1v-22.9c0-7.6-3.3-14.7-9.2-19.5c-17.5-14.4-36.3-24.9-45-29.4
			v-23.4c4.3-4.4,6.7-10.4,6.7-16.7v-33.4c0-21.6-17.5-39.1-39.1-39.1h-7.2c-21.6,0-39.1,17.5-39.1,39.1v33.4
			c0,6.3,2.4,12.2,6.7,16.7v23.4C200.9,240.4,182.2,250.9,164.6,265.3z"/>
	</g>
</g>
<g>
</g>
<g>
</g>
<g>
</g>
<g>
</g>
<g>
</g>
<g>
</g>
<g>
</g>
<g>
</g>
<g>
</g>
<g>
</g>
<g>
</g>
<g>
</g>
<g>
</g>
<g>
</g>
<g>
</g>
</svg>
