<?xml version="1.0" encoding="iso-8859-1"?>
<!-- Generator: Adobe Illustrator 19.0.0, SVG Export Plug-In . SVG Version: 6.00 Build 0)  -->
<svg version="1.1" id="Layer_1" xmlns="http://www.w3.org/2000/svg" xmlns:xlink="http://www.w3.org/1999/xlink" x="0px" y="0px"
	 viewBox="0 0 489.7 489.7" style="enable-background:new 0 0 489.7 489.7;" xml:space="preserve">
<g>
	<g>
		<circle style="fill:#A7A9AC;" cx="245.6" cy="304.15" r="20"/>
		<path d="M175,344.75c1.7,2.9,4.7,4.5,7.9,4.5c1.5,0,3.1-0.4,4.5-1.2l37.1-21.4c5.5,5.1,12.9,8.3,21,8.3s15.5-3.2,21-8.3l37.1,21.4
			c1.4,0.8,3,1.2,4.5,1.2c3.1,0,6.2-1.6,7.9-4.5c2.5-4.3,1-9.9-3.3-12.4l-37.1-21.4c0.5-2.2,0.8-4.5,0.8-6.9
			c0-13.9-9.2-25.7-21.9-29.6v-42.8c0-5-4.1-9.1-9.1-9.1s-9.1,4.1-9.1,9.1v42.8c-12.7,3.9-21.9,15.7-21.9,29.6
			c0,2.4,0.3,4.7,0.8,6.9l-37.1,21.4C174,334.85,172.5,340.45,175,344.75z M245.6,291.25c7.1,0,12.8,5.7,12.8,12.8
			s-5.7,12.8-12.8,12.8s-12.8-5.7-12.8-12.8S238.5,291.25,245.6,291.25z"/>
		<path d="M157.6,234.95c5,0,9.1-4.1,9.1-9.1v-24.6c0-2.5,1.1-4.8,3-6.4c21.5-17.7,44.8-29.4,49.2-31.6c3.6-1.8,6-5.5,6-9.6v-34.6
			c0-3-1.5-5.9-4-7.5c-2-1.3-3.2-3.5-3.2-5.9v-35.8c0-12.8,10.4-23.2,23.2-23.2h7.7c12.8,0,23.2,10.4,23.2,23.2v35.8
			c0,2.4-1.2,4.6-3.2,5.9c-2.5,1.7-4,4.5-4,7.5v34.6c0,4.1,2.4,7.8,6,9.6c4.5,2.2,27.8,13.9,49.2,31.6c1.9,1.6,3,3.9,3,6.4v24.6
			c0,5,4.1,9.1,9.1,9.1s9.1-4.1,9.1-9.1v-24.6c0-8-3.5-15.4-9.6-20.4c-19-15.7-39.4-27-48.6-31.8v-25.8c4.6-4.7,7.2-11,7.2-17.7
			v-35.7c0-22.8-18.6-41.4-41.4-41.4h-7.7c-22.8,0-41.4,18.5-41.4,41.4v35.8c0,6.7,2.6,13,7.2,17.7v25.8
			c-9.2,4.8-29.5,16.1-48.6,31.8c-6.1,5-9.6,12.5-9.6,20.4v24.6C148.6,230.95,152.6,234.95,157.6,234.95z"/>
		<path d="M355.4,375.35c-9.2,4.8-29.5,16.1-48.6,31.8c-6.1,5-9.6,12.5-9.6,20.4v24.6c0,5,4.1,9.1,9.1,9.1s9.1-4.1,9.1-9.1v-24.6
			c0-2.5,1.1-4.8,3-6.4c21.5-17.7,44.8-29.4,49.2-31.6c3.7-1.8,6-5.5,6-9.6v-34.6c0-3-1.5-5.9-4-7.5c-2-1.3-3.2-3.5-3.2-5.9v-35.8
			c0-12.8,10.4-23.2,23.2-23.2h7.7c12.8,0,23.2,10.4,23.2,23.2v35.8c0,2.4-1.2,4.6-3.2,5.9c-2.5,1.7-4,4.5-4,7.5v34.6
			c0,4.1,2.3,7.8,6,9.6c4.5,2.2,27.8,13.9,49.2,31.6c1.9,1.6,3,3.9,3,6.4v24.6c0,5,4.1,9.1,9.1,9.1s9.1-4.1,9.1-9.1v-24.6
			c0-8-3.5-15.4-9.6-20.4c-19.1-15.7-39.4-27-48.6-31.8v-25.8c4.6-4.7,7.2-11,7.2-17.7v-35.8c0-22.8-18.6-41.4-41.4-41.4h-7.7
			c-22.8,0-41.4,18.6-41.4,41.4v35.8c0,6.7,2.6,13,7.2,17.7L355.4,375.35L355.4,375.35z"/>
		<path d="M9.1,461.15c5,0,9.1-4.1,9.1-9.1v-24.6c0-2.5,1.1-4.8,3-6.4c21.5-17.7,44.8-29.4,49.2-31.6c3.7-1.8,6-5.5,6-9.6v-34.6
			c0-3-1.5-5.9-4-7.5c-2-1.3-3.2-3.5-3.2-5.9v-35.8c0-12.8,10.4-23.2,23.2-23.2h7.7c12.8,0,23.2,10.4,23.2,23.2v35.8
			c0,2.4-1.2,4.6-3.2,5.9c-2.5,1.7-4,4.5-4,7.5v34.6c0,4.1,2.3,7.8,6,9.6c4.5,2.2,27.8,13.9,49.2,31.6c1.9,1.6,3,3.9,3,6.4v24.6
			c0,5,4.1,9.1,9.1,9.1s9.1-4.1,9.1-9.1v-24.6c0-8-3.5-15.4-9.6-20.4c-19.1-15.7-39.4-27-48.6-31.8v-25.8c4.6-4.7,7.2-11,7.2-17.7
			v-35.8c0-22.8-18.6-41.4-41.4-41.4h-7.7c-22.8,0-41.4,18.6-41.4,41.4v35.8c0,6.7,2.6,13,7.2,17.7v25.8
			c-9.2,4.8-29.5,16.1-48.6,31.8c-6.1,5-9.6,12.5-9.6,20.4v24.6C0,457.15,4.1,461.15,9.1,461.15z"/>
	</g>
</g>
<g>
</g>
<g>
</g>
<g>
</g>
<g>
</g>
<g>
</g>
<g>
</g>
<g>
</g>
<g>
</g>
<g>
</g>
<g>
</g>
<g>
</g>
<g>
</g>
<g>
</g>
<g>
</g>
<g>
</g>
</svg>
