<?xml version="1.0" encoding="iso-8859-1"?>
<!-- Generator: Adobe Illustrator 19.0.0, SVG Export Plug-In . SVG Version: 6.00 Build 0)  -->
<svg version="1.1" id="Layer_1" xmlns="http://www.w3.org/2000/svg" xmlns:xlink="http://www.w3.org/1999/xlink" x="0px" y="0px"
	 viewBox="0 0 489.4 489.4" style="enable-background:new 0 0 489.4 489.4;" xml:space="preserve">
<g>
	<g>
		<path style="fill:#3C92CA;" d="M221,155.3c0,10.1-8.2,18.2-18.2,18.2H27.2c-10.1,0-18.2-8.2-18.2-18.2V29.2
			C9,19.1,17.2,11,27.2,11h175.5c10.1,0,18.2,8.2,18.2,18.2v126.1H221z"/>
		<path d="M0,29.2v126.1c0,15,12.2,27.3,27.3,27.3H106v27.3H79.7c-5,0-9.1,4.1-9.1,9.1s4.1,9.1,9.1,9.1h70.6c5,0,9.1-4.1,9.1-9.1
			s-4.1-9.1-9.1-9.1H124v-27.3h78.7c15,0,27.3-12.2,27.3-27.3V29.2c0-15-12.2-27.3-27.3-27.3H27.2C12.2,1.9,0,14.2,0,29.2z
			 M211.9,29.2v126.1c0,5-4.1,9.1-9.1,9.1H27.2c-5,0-9.1-4.1-9.1-9.1V29.2c0-5,4.1-9.1,9.1-9.1h175.5
			C207.8,20.1,211.9,24.2,211.9,29.2z"/>
		<path d="M462.2,261.4H286.6c-15,0-27.3,12.2-27.3,27.3v126c0,15,12.2,27.3,27.3,27.3h78.7v27.3H339c-5,0-9.1,4.1-9.1,9.1
			s4.1,9.1,9.1,9.1h70.7c5,0,9.1-4.1,9.1-9.1s-4.1-9.1-9.1-9.1h-26.3V442h78.7c15,0,27.3-12.2,27.3-27.3V288.6
			C489.4,273.6,477.2,261.4,462.2,261.4z M471.3,414.7c0,5-4.1,9.1-9.1,9.1H286.6c-5,0-9.1-4.1-9.1-9.1V288.6c0-5,4.1-9.1,9.1-9.1
			h175.5c5,0,9.1,4.1,9.1,9.1v126.1H471.3z"/>
		<path d="M278.3,101.3h87v95.3c0,1.1,0.2,2.2,0.6,3.2l-16.7-16.7c-3.5-3.5-9.3-3.5-12.8,0s-3.5,9.3,0,12.8l31.6,31.6
			c1.8,1.8,4.1,2.7,6.4,2.7s4.6-0.9,6.4-2.7l31.6-31.6c3.5-3.5,3.5-9.3,0-12.8s-9.3-3.5-12.8,0l-16.7,16.7c0.4-1,0.6-2.1,0.6-3.2
			V92.3c0-5-4.1-9.1-9.1-9.1h-96.1c-5,0-9.1,4.1-9.1,9.1C269.3,97.3,273.3,101.3,278.3,101.3z"/>
		<path d="M105.9,402.4c0,5,4.1,9.1,9.1,9.1h96.1c5,0,9.1-4.1,9.1-9.1s-4.1-9.1-9.1-9.1h-87V298c0-1.1-0.2-2.2-0.6-3.2l16.7,16.7
			c1.8,1.8,4.1,2.7,6.4,2.7s4.6-0.9,6.4-2.7c3.5-3.5,3.5-9.3,0-12.8l-31.6-31.6c-3.5-3.5-9.3-3.5-12.8,0L77,298.7
			c-3.5,3.5-3.5,9.3,0,12.8s9.3,3.5,12.8,0l16.7-16.7c-0.4,1-0.6,2.1-0.6,3.2V402.4L105.9,402.4z"/>
	</g>
</g>
<g>
</g>
<g>
</g>
<g>
</g>
<g>
</g>
<g>
</g>
<g>
</g>
<g>
</g>
<g>
</g>
<g>
</g>
<g>
</g>
<g>
</g>
<g>
</g>
<g>
</g>
<g>
</g>
<g>
</g>
</svg>
