<?xml version="1.0" encoding="iso-8859-1"?>
<!-- Generator: Adobe Illustrator 19.0.0, SVG Export Plug-In . SVG Version: 6.00 Build 0)  -->
<svg version="1.1" id="Layer_1" xmlns="http://www.w3.org/2000/svg" xmlns:xlink="http://www.w3.org/1999/xlink" x="0px" y="0px"
	 viewBox="0 0 489 489" style="enable-background:new 0 0 489 489;" xml:space="preserve">
<g>
	<g>
		<rect x="261.65" y="263.1" style="fill:#A7A9AC;" width="216.8" height="216.8"/>
		<path d="M94.25,451.4h70.7l-22,22c-3.5,3.5-3.5,9.3,0,12.8c1.8,1.8,4.1,2.7,6.4,2.7s4.6-0.9,6.4-2.7l37.5-37.5
			c3.5-3.5,3.5-9.3,0-12.8l-37.5-37.5c-3.5-3.5-9.3-3.5-12.8,0s-3.5,9.3,0,12.8l22,22h-70.7c-41.7,0-75.6-33.9-75.6-75.6v-44.3
			c0-5-4.1-9.1-9.1-9.1s-9.1,4.1-9.1,9.1v44.3C0.45,409.3,42.45,451.4,94.25,451.4z"/>
		<path d="M16.85,2.8c-1.7-1.7-4-2.7-6.4-2.7s-4.7,1-6.4,2.7s-2.6,4-2.6,6.4s1,4.7,2.6,6.4c1.7,1.7,4,2.7,6.4,2.7s4.7-1,6.4-2.7
			s2.7-4,2.7-6.4S18.55,4.5,16.85,2.8z"/>
		<path d="M196.25,18.2c5,0,9.1-4,9.1-9.1c0-5-4-9.1-9.1-9.1c-5,0-9.1,4.1-9.1,9.1C187.15,14.2,191.25,18.2,196.25,18.2z"/>
		<path d="M165.25,0.1c-5,0-9.1,4.1-9.1,9.1s4,9.1,9.1,9.1c5,0,9.1-4,9.1-9.1C174.35,4.2,170.25,0.1,165.25,0.1z"/>
		<path d="M72.35,18.2c5,0,9.1-4,9.1-9.1c0-5-4-9.1-9.1-9.1c-5,0-9.1,4.1-9.1,9.1C63.35,14.2,67.35,18.2,72.35,18.2z"/>
		<path d="M41.45,0.1c-5,0-9.1,4.1-9.1,9.1s4,9.1,9.1,9.1s9.1-4,9.1-9.1C50.45,4.2,46.45,0.1,41.45,0.1z"/>
		<path d="M134.35,0.1c-5,0-9.1,4.1-9.1,9.1s4.1,9.1,9.1,9.1s9.1-4,9.1-9.1C143.35,4.2,139.35,0.1,134.35,0.1z"/>
		<path d="M103.35,0.1c-5,0-9.1,4.1-9.1,9.1s4,9.1,9.1,9.1c5,0,9.1-4,9.1-9.1C112.45,4.2,108.35,0.1,103.35,0.1z"/>
		<path d="M233.65,15.6c1.7-1.7,2.6-4,2.6-6.4s-1-4.7-2.6-6.4c-1.7-1.7-4-2.7-6.4-2.7s-4.7,1-6.4,2.7s-2.6,4-2.6,6.4s1,4.7,2.6,6.4
			c1.7,1.7,4,2.7,6.4,2.7C229.65,18.2,231.95,17.3,233.65,15.6z"/>
		<path d="M227.25,62c-5,0-9,4.1-9,9.1s4,9.1,9,9.1s9.1-4.1,9.1-9.1C236.25,66.1,232.25,62,227.25,62z"/>
		<path d="M227.25,185.9c-5,0-9,4-9,9.1c0,5,4,9.1,9,9.1s9.1-4.1,9.1-9.1C236.25,190,232.25,185.9,227.25,185.9z"/>
		<path d="M227.25,93c-5,0-9,4-9,9s4,9.1,9,9.1s9.1-4.1,9.1-9.1C236.25,97.1,232.25,93,227.25,93z"/>
		<path d="M227.25,154.9c-5,0-9,4.1-9,9.1s4,9.1,9,9.1s9.1-4,9.1-9.1C236.25,159,232.25,154.9,227.25,154.9z"/>
		<path d="M227.25,124c-5,0-9,4-9,9.1c0,5,4,9.1,9,9.1s9.1-4.1,9.1-9.1C236.25,128,232.25,124,227.25,124z"/>
		<path d="M227.25,31.1c-5,0-9,4-9,9.1c0,5,4,9.1,9,9.1s9.1-4.1,9.1-9.1C236.25,35.1,232.25,31.1,227.25,31.1z"/>
		<path d="M236.25,225.9c0-2.4-1-4.7-2.6-6.4c-1.7-1.7-4-2.7-6.4-2.7s-4.7,1-6.4,2.7s-2.7,4-2.7,6.4s1,4.7,2.7,6.4s4,2.7,6.4,2.7
			s4.7-1,6.4-2.7C235.35,230.7,236.25,228.3,236.25,225.9z"/>
		<path d="M103.35,216.9c-5,0-9.1,4.1-9.1,9.1s4,9.1,9.1,9.1c5,0,9.1-4,9.1-9.1S108.35,216.9,103.35,216.9z"/>
		<path d="M134.35,216.9c-5,0-9.1,4.1-9.1,9.1s4.1,9.1,9.1,9.1s9.1-4,9.1-9.1C143.35,220.9,139.35,216.9,134.35,216.9z"/>
		<path d="M165.25,216.9c-5,0-9.1,4.1-9.1,9.1s4,9.1,9.1,9.1c5,0,9.1-4,9.1-9.1S170.25,216.9,165.25,216.9z"/>
		<path d="M41.45,216.9c-5,0-9.1,4.1-9.1,9.1s4,9.1,9.1,9.1s9.1-4,9.1-9.1C50.45,220.9,46.45,216.9,41.45,216.9z"/>
		<path d="M72.35,235c5,0,9.1-4,9.1-9.1c0-5-4.1-9.1-9.1-9.1s-9.1,4.1-9.1,9.1C63.35,231,67.35,235,72.35,235z"/>
		<path d="M196.25,235c5,0,9.1-4,9.1-9.1c0-5-4-9.1-9.1-9.1c-5,0-9.1,4.1-9.1,9.1C187.15,231,191.25,235,196.25,235z"/>
		<path d="M4.05,219.5c-1.7,1.7-2.6,4-2.6,6.4s1,4.7,2.6,6.4c1.7,1.7,4,2.7,6.4,2.7s4.7-1,6.4-2.7s2.7-4,2.7-6.4s-1-4.7-2.7-6.4
			s-4-2.7-6.4-2.7C8.05,216.9,5.75,217.8,4.05,219.5z"/>
		<path d="M10.45,31.1c-5,0-9.1,4-9.1,9.1c0,5,4,9.1,9.1,9.1c5,0,9.1-4.1,9.1-9.1C19.55,35.1,15.45,31.1,10.45,31.1z"/>
		<path d="M10.45,62c-5,0-9.1,4.1-9.1,9.1s4,9.1,9.1,9.1c5,0,9.1-4.1,9.1-9.1S15.45,62,10.45,62z"/>
		<path d="M10.45,93c-5,0-9.1,4-9.1,9s4,9.1,9.1,9.1c5,0,9.1-4.1,9.1-9.1C19.55,97.1,15.45,93,10.45,93z"/>
		<path d="M10.45,154.9c-5,0-9.1,4.1-9.1,9.1s4,9.1,9.1,9.1c5,0,9.1-4,9.1-9.1C19.55,159,15.45,154.9,10.45,154.9z"/>
		<path d="M10.45,185.9c-5,0-9.1,4-9.1,9.1c0,5,4,9.1,9.1,9.1c5,0,9.1-4.1,9.1-9.1S15.45,185.9,10.45,185.9z"/>
		<path d="M10.45,124c-5,0-9.1,4-9.1,9.1c0,5,4,9.1,9.1,9.1c5,0,9.1-4.1,9.1-9.1C19.55,128,15.45,124,10.45,124z"/>
		<path d="M333.25,2.8l-37.5,37.5c-1.7,1.7-2.7,4-2.7,6.4s1,4.7,2.7,6.4l37.5,37.5c1.8,1.8,4.1,2.7,6.4,2.7s4.6-0.9,6.4-2.7
			c3.5-3.5,3.5-9.3,0-12.8l-22-22h70.7c41.7,0,75.6,33.9,75.6,75.6v44.3c0,5,4.1,9.1,9.1,9.1s9.1-4.1,9.1-9.1v-44.3
			c0-51.7-42.1-93.8-93.8-93.8h-70.7l22-22c3.5-3.5,3.5-9.3,0-12.8S336.85-0.8,333.25,2.8z"/>
		<path d="M487.55,479.8V263.1c0-5-4.1-9.1-9.1-9.1h-216.8c-5,0-9.1,4.1-9.1,9.1v216.8c0,5,4.1,9.1,9.1,9.1h216.8
			C483.45,488.9,487.55,484.8,487.55,479.8z M469.35,470.8h-198.6V272.1h198.6V470.8z"/>
	</g>
</g>
<g>
</g>
<g>
</g>
<g>
</g>
<g>
</g>
<g>
</g>
<g>
</g>
<g>
</g>
<g>
</g>
<g>
</g>
<g>
</g>
<g>
</g>
<g>
</g>
<g>
</g>
<g>
</g>
<g>
</g>
</svg>
