<?xml version="1.0" encoding="iso-8859-1"?>
<!-- Generator: Adobe Illustrator 19.0.0, SVG Export Plug-In . SVG Version: 6.00 Build 0)  -->
<svg version="1.1" id="Layer_1" xmlns="http://www.w3.org/2000/svg" xmlns:xlink="http://www.w3.org/1999/xlink" x="0px" y="0px"
	 viewBox="0 0 488.9 488.9" style="enable-background:new 0 0 488.9 488.9;" xml:space="preserve">
<g>
	<g>
		<path id="XMLID_847_" style="fill:#A7A9AC;" d="M449.95,341.9h-88v-88c-48.6,0-88,39.4-88,88s39.4,88,88,88
			S449.95,390.5,449.95,341.9z"/>
		<path d="M265.65,180.5c9.3-8,14.8-19.6,14.8-32V75.2c0-41.4-33.7-75.2-75.2-75.2h-15.8c-41.4,0-75.2,33.7-75.2,75.2v73.3
			c0,12.4,5.4,24.1,14.8,32v62.7c-14.8,7.4-60.5,31.6-102.9,66.5c-10.3,8.5-16.2,21-16.2,34.5v50.3c0,5,4.1,9.1,9.1,9.1
			s9.1-4.1,9.1-9.1v-50.3c0-8,3.5-15.4,9.6-20.5c44.8-36.8,93.4-61.3,102.6-65.8c4.2-2.1,6.9-6.4,6.9-11.1v-70.7c0-3-1.5-5.9-4-7.5
			c-6.7-4.5-10.7-11.9-10.7-20V75.2c0-31.4,25.6-57,57-57h15.8c31.4,0,57,25.6,57,57v73.3c0,8-4,15.5-10.7,20c-2.5,1.7-4,4.5-4,7.5
			v70.7c0,5,4.1,9.1,9.1,9.1c5,0,9.1-4.1,9.1-9.1v-66.2H265.65z"/>
		<path d="M221.65,258.1c-5,0-9.1,4.1-9.1,9.1c0,4.4-1.9,8.4-5,11.2c-0.6,0.4-1.2,0.8-1.7,1.4c-2.4,1.7-5.4,2.6-8.5,2.6
			c-8.4,0-15.2-6.8-15.2-15.2c0-5-4.1-9.1-9.1-9.1s-9.1,4.1-9.1,9.1c0,8,2.8,15.4,7.6,21.1l-7.3,170.2c-0.1,2.7,1,5.3,3,7.1l23.3,21
			c1.7,1.6,3.9,2.3,6.1,2.3c2.2,0,4.4-0.8,6.1-2.3l23.7-21.4c2-1.8,3.1-4.4,3-7.1l-7.6-168.3c5.6-6,9-14,9-22.8
			C230.75,262.1,226.65,258.1,221.65,258.1z M196.55,467.7l-14.1-12.7l6.7-155.6c2.6,0.7,5.3,1,8.1,1c2.3,0,4.5-0.2,6.6-0.7l7,154.9
			L196.55,467.7z"/>
		<path d="M449.95,332.8h-78.9v-78.9c0-5-4.1-9.1-9.1-9.1c-53.5,0-97,43.5-97,97s43.5,97,97,97s97-43.5,97-97
			C458.95,336.9,454.95,332.8,449.95,332.8z M361.95,420.8c-43.5,0-78.9-35.4-78.9-78.9c0-40.4,30.6-73.9,69.8-78.4v78.4
			c0,5,4.1,9.1,9.1,9.1h78.4C435.85,390.2,402.35,420.8,361.95,420.8z"/>
		<path d="M400.85,226c-5,0-9.1,4.1-9.1,9.1v69c0,5,4.1,9.1,9.1,9.1h69c5,0,9.1-4.1,9.1-9.1c0-19.1-6.9-37.4-19.6-51.7
			C444.65,235.6,423.25,226,400.85,226z M409.95,295.1v-50.2c13.8,2.1,26.5,9,35.9,19.6c7.7,8.7,12.6,19.3,14.3,30.6H409.95z"/>
	</g>
</g>
<g>
</g>
<g>
</g>
<g>
</g>
<g>
</g>
<g>
</g>
<g>
</g>
<g>
</g>
<g>
</g>
<g>
</g>
<g>
</g>
<g>
</g>
<g>
</g>
<g>
</g>
<g>
</g>
<g>
</g>
</svg>
