<?xml version="1.0" encoding="iso-8859-1"?>
<!-- Generator: Adobe Illustrator 19.0.0, SVG Export Plug-In . SVG Version: 6.00 Build 0)  -->
<svg version="1.1" id="Layer_1" xmlns="http://www.w3.org/2000/svg" xmlns:xlink="http://www.w3.org/1999/xlink" x="0px" y="0px"
	 viewBox="0 0 489.7 489.7" style="enable-background:new 0 0 489.7 489.7;" xml:space="preserve">
<g>
	<g>
		<path id="XMLID_1801_" style="fill:#A7A9AC;" d="M456.8,185.75h-82l-44,42.2v-42.2h-18.7c-13.1,0-23.8-10.7-23.8-23.8v-88.3
			c0-13.1,10.7-23.8,23.8-23.8h144.7c13.1,0,23.8,10.7,23.8,23.8v88.3C480.6,175.05,469.9,185.75,456.8,185.75z"/>
		<path d="M237.4,161.45v-63.8c0-36.7-29.8-66.5-66.5-66.5h-13.7c-36.7,0-66.5,29.8-66.5,66.5v63.8c0,11,4.7,21.2,12.8,28.4v53.2
			c-13.5,6.8-52.7,27.7-89,57.6c-9.2,7.6-14.5,18.9-14.5,30.9v43.7c0,5,4.1,9.1,9.1,9.1s9.1-4.1,9.1-9.1v-43.7
			c0-6.6,2.9-12.7,7.9-16.9c38.8-31.9,80.9-53.1,89-57.1c4.1-2,6.7-6.1,6.7-10.7v-61.5c0-3-1.5-5.9-4-7.5c-5.5-3.7-8.8-9.8-8.8-16.4
			v-63.8c0-26.7,21.7-48.4,48.4-48.4h13.7c26.7,0,48.4,21.7,48.4,48.4v63.8c0,6.6-3.3,12.7-8.8,16.4c-2.5,1.7-4,4.5-4,7.5v61.5
			c0,4.6,2.6,8.7,6.7,10.7c8.1,3.9,50.2,25.2,89,57.1c5,4.1,7.9,10.3,7.9,16.9v43.7c0,5,4.1,9.1,9.1,9.1s9.1-4.1,9.1-9.1v-43.7
			c0-12-5.3-23.3-14.5-30.9c-36.4-29.9-75.5-50.8-89-57.6v-53.2C232.7,182.65,237.4,172.35,237.4,161.45z"/>
		<path d="M185.2,255.45c-5,0-9.1,4.1-9.1,9.1c0,3.5-1.5,6.6-3.9,8.8c-0.5,0.3-1,0.7-1.5,1.2c-1.9,1.3-4.2,2.1-6.7,2.1
			c-6.6,0-12.1-5.4-12.1-12.1c0-5-4.1-9.1-9.1-9.1s-9.1,4.1-9.1,9.1c0,7.1,2.5,13.6,6.6,18.8l-6.4,147.5c-0.1,2.7,1,5.3,3,7.1
			l20.3,18.3c1.7,1.6,3.9,2.3,6.1,2.3c2.2,0,4.4-0.8,6.1-2.3l20.6-18.6c2-1.8,3.1-4.4,3-7.1l-6.6-145.7c4.8-5.4,7.8-12.4,7.8-20.2
			C194.3,259.55,190.2,255.45,185.2,255.45z M163.4,437.25l-11-9.9l5.7-133.2c1.9,0.4,3.9,0.6,5.9,0.6c1.6,0,3.1-0.2,4.6-0.4
			l6,132.7L163.4,437.25z"/>
		<path d="M435.1,91.35H333.7c-5,0-9.1,4.1-9.1,9.1s4.1,9.1,9.1,9.1h101.4c5,0,9.1-4.1,9.1-9.1S440.1,91.35,435.1,91.35z"/>
		<path d="M435.1,127.55H333.7c-5,0-9.1,4.1-9.1,9.1s4.1,9.1,9.1,9.1h101.4c5,0,9.1-4.1,9.1-9.1S440.1,127.55,435.1,127.55z"/>
		<path d="M456.8,40.85H312.1c-18.1,0-32.9,14.7-32.9,32.9v88.3c0,18.1,14.7,32.9,32.9,32.9h9.6v33.1c0,3.6,2.2,6.9,5.5,8.3
			c1.1,0.5,2.4,0.7,3.6,0.7c2.3,0,4.6-0.9,6.3-2.5l41.4-39.6h78.3c18.1,0,32.9-14.7,32.9-32.9v-88.4
			C489.6,55.55,474.9,40.85,456.8,40.85z M471.5,161.95c0,8.1-6.6,14.7-14.7,14.7h-82c-2.3,0-4.6,0.9-6.3,2.5l-28.7,27.5v-20.9
			c0-5-4.1-9.1-9.1-9.1H312c-8.1,0-14.7-6.6-14.7-14.7v-88.3c0-8.1,6.6-14.7,14.7-14.7h144.8c8.1,0,14.7,6.6,14.7,14.7V161.95z"/>
	</g>
</g>
<g>
</g>
<g>
</g>
<g>
</g>
<g>
</g>
<g>
</g>
<g>
</g>
<g>
</g>
<g>
</g>
<g>
</g>
<g>
</g>
<g>
</g>
<g>
</g>
<g>
</g>
<g>
</g>
<g>
</g>
</svg>
