<?xml version="1.0" encoding="iso-8859-1"?>
<!-- Generator: Adobe Illustrator 19.0.0, SVG Export Plug-In . SVG Version: 6.00 Build 0)  -->
<svg version="1.1" id="Layer_1" xmlns="http://www.w3.org/2000/svg" xmlns:xlink="http://www.w3.org/1999/xlink" x="0px" y="0px"
	 viewBox="0 0 489.7 489.7" style="enable-background:new 0 0 489.7 489.7;" xml:space="preserve">
<g>
	<g>
		<rect id="XMLID_1120_" x="186.75" y="405.7" style="fill:#3C92CA;" width="116" height="74.8"/>
		<path d="M66.75,322.4c-10.7,8.8-16.8,21.7-16.8,35.6v52.3c0,5,4.1,9.1,9.1,9.1c5,0,9.1-4.1,9.1-9.1V358c0-8.4,3.7-16.3,10.2-21.6
			c46.7-38.4,97.3-63.9,106.9-68.6c4.2-2.1,7-6.5,7-11.2v-73.7c0-3-1.5-5.9-4-7.5c-7.1-4.7-11.3-12.6-11.3-21.1V77.9
			c0-32.9,26.8-59.7,59.7-59.7h16.4c32.9,0,59.7,26.8,59.7,59.7v76.4c0,8.5-4.2,16.4-11.3,21.1c-2.5,1.7-4,4.5-4,7.5v73.7
			c0,4.7,2.7,9.1,7,11.2c9.7,4.7,60.3,30.2,106.9,68.6c6.5,5.3,10.2,13.2,10.2,21.6v52.3c0,5,4.1,9.1,9.1,9.1s9.1-4.1,9.1-9.1V358
			c0-13.9-6.1-26.8-16.8-35.6c-44.4-36.5-92.2-61.7-107.3-69.3v-65.7c9.7-8.2,15.4-20.3,15.4-33.2V77.9c0-42.9-34.9-77.9-77.9-77.9
			h-16.4c-42.9,0-77.9,34.9-77.9,77.9v76.4c0,12.9,5.7,24.9,15.4,33.2v65.7C158.95,260.7,111.15,285.9,66.75,322.4z"/>
		<path d="M244.75,331.1c-25.2,0-45.8,20.5-45.8,45.8v19.8h-12.2c-5,0-9.1,4.1-9.1,9.1v74.8c0,5,4.1,9.1,9.1,9.1h116
			c5,0,9.1-4.1,9.1-9.1v-74.8c0-5-4.1-9.1-9.1-9.1h-12.2v-19.8C290.55,351.6,269.95,331.1,244.75,331.1z M217.05,376.9
			c0-15.2,12.4-27.7,27.7-27.7c15.2,0,27.7,12.4,27.7,27.7v19.8h-55.3v-19.8H217.05z M293.65,471.5h-97.9v-56.7h97.9V471.5z"/>
	</g>
</g>
<g>
</g>
<g>
</g>
<g>
</g>
<g>
</g>
<g>
</g>
<g>
</g>
<g>
</g>
<g>
</g>
<g>
</g>
<g>
</g>
<g>
</g>
<g>
</g>
<g>
</g>
<g>
</g>
<g>
</g>
</svg>
