<?xml version="1.0" encoding="iso-8859-1"?>
<!-- Generator: Adobe Illustrator 19.0.0, SVG Export Plug-In . SVG Version: 6.00 Build 0)  -->
<svg version="1.1" id="Layer_1" xmlns="http://www.w3.org/2000/svg" xmlns:xlink="http://www.w3.org/1999/xlink" x="0px" y="0px"
	 viewBox="0 0 489.425 489.425" style="enable-background:new 0 0 489.425 489.425;" xml:space="preserve">
<g>
	<g>
		<g id="XMLID_1186_">
			<path id="XMLID_1187_" style="fill:#A7A9AC;" d="M390.112,480.425v-40.8c0-8.6-3.8-16.8-10.5-22.3
				c-36.9-30.3-76.7-50.4-84.8-54.4c-0.9-0.4-1.5-1.4-1.5-2.4v-57.4c7.2-4.8,12-13,12-22.3v-59.6c0-29.6-24-53.7-53.7-53.7h-6.4
				h-6.4c-29.6,0-53.6,24-53.6,53.6v59.6c0,9.3,4.8,17.5,12,22.3v57.4c0,1-0.6,1.9-1.5,2.4c-8.1,4-47.9,24.1-84.8,54.4
				c-6.7,5.5-10.5,13.7-10.5,22.3v40.8"/>
		</g>
		<path d="M100.413,489.425c5,0,9.1-4.1,9.1-9.1v-40.8c0-6,2.6-11.5,7.2-15.3c36.2-29.8,75.5-49.6,83-53.2c4-2,6.6-6.1,6.6-10.5
			v-57.4c0-3-1.5-5.9-4-7.5c-5-3.3-8-8.9-8-14.8v-59.6c0-24.6,20-44.6,44.6-44.6h12.8c24.6,0,44.6,20,44.6,44.6v59.5
			c0,6-3,11.5-8,14.8c-2.5,1.7-4,4.5-4,7.5v57.4c0,4.4,2.6,8.6,6.6,10.5c7.5,3.7,46.8,23.5,83,53.2c4.6,3.8,7.2,9.3,7.2,15.3v40.8
			c0,5,4.1,9.1,9.1,9.1s9.1-4.1,9.1-9.1v-40.8c0-11.4-5-22.1-13.8-29.3c-33.7-27.7-70-47.2-82.9-53.7v-49.1c7.6-6.8,12-16.5,12-26.8
			v-59.6c0-34.6-28.1-62.7-62.7-62.7h-12.8c-34.6,0-62.7,28.1-62.7,62.7v59.8c0,10.3,4.4,20,12,26.8v49.1
			c-12.9,6.6-49.2,26-82.9,53.7c-8.8,7.2-13.8,17.9-13.8,29.3v40.8C91.413,485.425,95.413,489.425,100.413,489.425z"/>
		<path d="M244.713,126.025c5,0,9.1-4.1,9.1-9.1v-86l16.8,16.8c1.8,1.8,4.1,2.7,6.4,2.7s4.6-0.9,6.4-2.7c3.5-3.5,3.5-9.3,0-12.8
			l-32.3-32.3c-3.5-3.5-9.3-3.5-12.8,0l-32.3,32.3c-3.5,3.5-3.5,9.3,0,12.8s9.3,3.5,12.8,0l16.8-16.8v86
			C235.613,122.025,239.713,126.025,244.713,126.025z"/>
		<path d="M148.213,222.525c0-5-4.1-9.1-9.1-9.1h-86l16.8-16.8c3.5-3.5,3.5-9.3,0-12.8s-9.3-3.5-12.8,0l-32.3,32.3
			c-1.7,1.7-2.7,4-2.7,6.4s1,4.7,2.7,6.4l32.3,32.3c1.8,1.8,4.1,2.7,6.4,2.7s4.6-0.9,6.4-2.7c3.5-3.5,3.5-9.3,0-12.8l-16.8-16.8h86
			C144.113,231.625,148.213,227.525,148.213,222.525z"/>
		<path d="M341.212,222.525c0,5,4.1,9.1,9.1,9.1h86l-16.8,16.8c-3.5,3.5-3.5,9.3,0,12.8c1.8,1.8,4.1,2.7,6.4,2.7s4.6-0.9,6.4-2.7
			l32.3-32.3c1.7-1.7,2.7-4,2.7-6.4s-1-4.7-2.7-6.4l-32.3-32.3c-3.5-3.5-9.3-3.5-12.8,0s-3.5,9.3,0,12.8l16.8,16.8h-86
			C345.313,213.525,341.212,217.525,341.212,222.525z"/>
		<path d="M148.513,71.625c0-5-4.1-9.1-9.1-9.1h-45.7c-5,0-9.1,4.1-9.1,9.1v45.7c0,5,4.1,9.1,9.1,9.1s9.1-4.1,9.1-9.1v-23.8
			l60.8,60.8c1.8,1.8,4.1,2.7,6.4,2.7c2.3,0,4.6-0.9,6.4-2.7c3.5-3.5,3.5-9.3,0-12.8l-60.8-60.8h23.8
			C144.413,80.625,148.513,76.625,148.513,71.625z"/>
		<path d="M313.012,154.325c1.8,1.8,4.1,2.7,6.4,2.7s4.6-0.9,6.4-2.7l60.8-60.8v23.8c0,5,4.1,9.1,9.1,9.1s9.1-4.1,9.1-9.1v-45.7
			c0-5-4.1-9.1-9.1-9.1h-45.7c-5,0-9.1,4.1-9.1,9.1s4.1,9.1,9.1,9.1h23.8l-60.8,60.8
			C309.413,145.025,309.413,150.725,313.012,154.325z"/>
	</g>
</g>
<g>
</g>
<g>
</g>
<g>
</g>
<g>
</g>
<g>
</g>
<g>
</g>
<g>
</g>
<g>
</g>
<g>
</g>
<g>
</g>
<g>
</g>
<g>
</g>
<g>
</g>
<g>
</g>
<g>
</g>
</svg>
