<?xml version="1.0" encoding="iso-8859-1"?>
<!-- Generator: Adobe Illustrator 19.0.0, SVG Export Plug-In . SVG Version: 6.00 Build 0)  -->
<svg version="1.1" id="Layer_1" xmlns="http://www.w3.org/2000/svg" xmlns:xlink="http://www.w3.org/1999/xlink" x="0px" y="0px"
	 viewBox="0 0 489.3 489.3" style="enable-background:new 0 0 489.3 489.3;" xml:space="preserve">
<g>
	<g>
		<rect id="XMLID_468_" x="292.246" y="372.6" style="fill:#A7A9AC;" width="166.8" height="107.6"/>
		<path d="M173.846,18.4c-67.7,31.5-111.5,100.1-111.5,174.7v28.3l-36.4,69.5c-6,11.5-6.4,23.2-1,32.1c5.4,8.9,15.9,14,28.9,14h8.5
			v58.9c0,26.3,21.4,47.7,47.7,47.7c0.4,0,0.9,0,1.3-0.1l42.7-6.3l0.1,43c0,5,4.1,9.1,9.1,9.1l0,0c5,0,9.1-4.1,9.1-9.1l-0.1-53.5
			c0-2.6-1.2-5.1-3.1-6.9c-2-1.7-4.6-2.5-7.2-2.1l-52.3,7.8c-16-0.3-28.9-13.5-28.9-29.6v-68c0-5-4.1-9.1-9.1-9.1h-17.9
			c-6.5,0-11.3-1.9-13.4-5.3c-2-3.3-1.5-8.6,1.5-14.3l37.5-71.5c0.7-1.3,1-2.7,1-4.2V193c0-67.6,39.7-129.8,101.1-158.3
			c23.4-11.1,48.6-16.7,74.7-16.7c96.4,0,174.8,78.4,174.8,174.8c0,18-2.7,35.8-8.1,52.9c-1.5,4.8,1.1,9.9,5.9,11.4
			c4.8,1.5,9.9-1.1,11.4-5.9c6-18.8,9-38.4,9-58.3c0-106.4-86.5-192.9-192.9-192.9C227.446,0,199.746,6.2,173.846,18.4z"/>
		<path d="M292.246,363.5c-5,0-9.1,4.1-9.1,9.1v107.6c0,5,4.1,9.1,9.1,9.1h166.8c5,0,9.1-4.1,9.1-9.1V372.5c0-5-4.1-9.1-9.1-9.1
			h-21.5V331c0-34.1-27.8-61.9-61.9-61.9s-61.9,27.8-61.9,61.9c0,5,4.1,9.1,9.1,9.1s9.1-4.1,9.1-9.1c0-24.1,19.6-43.7,43.7-43.7
			s43.7,19.6,43.7,43.7v32.4h-127.1L292.246,363.5L292.246,363.5z M450.046,471.1h-148.7v-89.5h148.7L450.046,471.1L450.046,471.1z"
			/>
	</g>
</g>
<g>
</g>
<g>
</g>
<g>
</g>
<g>
</g>
<g>
</g>
<g>
</g>
<g>
</g>
<g>
</g>
<g>
</g>
<g>
</g>
<g>
</g>
<g>
</g>
<g>
</g>
<g>
</g>
<g>
</g>
</svg>
