<?xml version="1.0" encoding="iso-8859-1"?>
<!-- Generator: Adobe Illustrator 19.0.0, SVG Export Plug-In . SVG Version: 6.00 Build 0)  -->
<svg version="1.1" id="Layer_1" xmlns="http://www.w3.org/2000/svg" xmlns:xlink="http://www.w3.org/1999/xlink" x="0px" y="0px"
	 viewBox="0 0 489.525 489.525" style="enable-background:new 0 0 489.525 489.525;" xml:space="preserve">
<g>
	<g>
		<g id="XMLID_737_">
			<path id="XMLID_738_" style="fill:#A7A9AC;" d="M390.162,480.425v-40.8c0-8.6-3.8-16.8-10.5-22.3c-36.9-30.3-76.7-50.4-84.8-54.4
				c-0.9-0.4-1.5-1.4-1.5-2.4v-57.4c7.2-4.8,12-13,12-22.3v-59.6c0-29.6-24-53.7-53.7-53.7h-6.4h-6.4c-29.6,0-53.7,24-53.7,53.7
				v59.5c0,9.3,4.8,17.5,12,22.3v57.4c0,1-0.6,1.9-1.5,2.4c-8.1,4-47.9,24.1-84.8,54.4c-6.7,5.5-10.5,13.7-10.5,22.3v40.8"/>
		</g>
		<path d="M244.762,126.025c5,0,9.1-4.1,9.1-9.1v-86l16.8,16.8c1.8,1.8,4.1,2.7,6.4,2.7s4.6-0.9,6.4-2.7c3.5-3.5,3.5-9.3,0-12.8
			l-32.3-32.3c-3.5-3.5-9.3-3.5-12.8,0l-32.3,32.3c-3.5,3.5-3.5,9.3,0,12.8s9.3,3.5,12.8,0l16.8-16.8v86
			C235.662,122.025,239.762,126.025,244.762,126.025z"/>
		<path d="M69.962,261.325c3.5-3.5,3.5-9.3,0-12.8l-16.8-16.8h86c5,0,9.1-4.1,9.1-9.1s-4.1-9.1-9.1-9.1h-86l16.8-16.8
			c3.5-3.5,3.5-9.3,0-12.8s-9.3-3.5-12.8,0l-32.3,32.3c-1.7,1.7-2.7,4-2.7,6.4s1,4.7,2.7,6.4l32.3,32.3c1.8,1.8,4.1,2.7,6.4,2.7
			C65.862,264.025,68.162,263.025,69.962,261.325z"/>
		<path d="M350.362,231.625h86l-16.8,16.8c-3.5,3.5-3.5,9.3,0,12.8c1.8,1.8,4.1,2.7,6.4,2.7s4.6-0.9,6.4-2.7l32.3-32.3
			c1.7-1.7,2.7-4,2.7-6.4s-1-4.7-2.7-6.4l-32.3-32.3c-3.5-3.5-9.3-3.5-12.8,0s-3.5,9.3,0,12.8l16.8,16.8h-86c-5,0-9.1,4.1-9.1,9.1
			S345.362,231.625,350.362,231.625z"/>
		<path d="M84.762,71.625v45.7c0,5,4.1,9.1,9.1,9.1s9.1-4.1,9.1-9.1v-23.8l60.8,60.8c1.8,1.8,4.1,2.7,6.4,2.7s4.6-0.9,6.4-2.7
			c3.5-3.5,3.5-9.3,0-12.8l-60.8-60.8h23.8c5,0,9.1-4.1,9.1-9.1s-4.1-9.1-9.1-9.1h-45.8C88.762,62.525,84.762,66.625,84.762,71.625z
			"/>
		<path d="M319.462,156.925c2.3,0,4.6-0.9,6.4-2.7l60.8-60.8v23.8c0,5,4.1,9.1,9.1,9.1s9.1-4.1,9.1-9.1v-45.6c0-5-4.1-9.1-9.1-9.1
			h-45.7c-5,0-9.1,4.1-9.1,9.1s4.1,9.1,9.1,9.1h23.8l-60.8,60.8c-3.5,3.5-3.5,9.3,0,12.8
			C314.762,156.125,317.063,156.925,319.462,156.925z"/>
		<path d="M176.162,280.725c0,10.3,4.4,20,12,26.8v49.1c-12.9,6.6-49.2,26-82.9,53.7c-8.8,7.2-13.8,17.9-13.8,29.3v40.8
			c0,5,4.1,9.1,9.1,9.1s9.1-4.1,9.1-9.1v-40.8c0-6,2.6-11.5,7.2-15.3c36.2-29.8,75.5-49.6,83-53.2c4-2,6.6-6.1,6.6-10.5v-57.4
			c0-3-1.5-5.9-4-7.5c-5-3.3-8-8.9-8-14.8v-59.6c0-24.6,20-44.6,44.6-44.6h12.8c24.6,0,44.6,20,44.6,44.6v59.4c0,6-3,11.5-8,14.8
			c-2.5,1.7-4,4.5-4,7.5v57.4c0,4.4,2.6,8.6,6.6,10.5c7.5,3.7,46.8,23.5,83,53.2c4.6,3.8,7.2,9.3,7.2,15.3v40.8c0,5,4.1,9.1,9.1,9.1
			s9.1-4.1,9.1-9.1v-40.8c0-11.4-5-22.1-13.8-29.3c-33.7-27.7-70-47.2-82.9-53.7v-49.1c7.6-6.8,12-16.5,12-26.8v-59.6
			c0-34.6-28.1-62.7-62.7-62.7h-12.8c-34.6,0-62.7,28.1-62.7,62.7v59.8L176.162,280.725L176.162,280.725z"/>
	</g>
</g>
<g>
</g>
<g>
</g>
<g>
</g>
<g>
</g>
<g>
</g>
<g>
</g>
<g>
</g>
<g>
</g>
<g>
</g>
<g>
</g>
<g>
</g>
<g>
</g>
<g>
</g>
<g>
</g>
<g>
</g>
</svg>
