<?xml version="1.0" encoding="iso-8859-1"?>
<!-- Generator: Adobe Illustrator 19.0.0, SVG Export Plug-In . SVG Version: 6.00 Build 0)  -->
<svg version="1.1" id="Layer_1" xmlns="http://www.w3.org/2000/svg" xmlns:xlink="http://www.w3.org/1999/xlink" x="0px" y="0px"
	 viewBox="0 0 488.8 488.8" style="enable-background:new 0 0 488.8 488.8;" xml:space="preserve">
<g>
	<g>
		<g id="XMLID_546_">
			<path id="XMLID_547_" style="fill:#3C92CA;" d="M326.65,419.6c-13.9,10.8-29.8,13.4-40.3,11.8c-3.4-0.5-4.1-5.1-1-6.7
				c10-4.9,15.9-15.7,19.2-23.3c-31.6-35.7-30.4-90.4,3.8-124.5c35.5-35.5,93.1-35.5,128.6,0s35.5,93.1,0,128.6
				C407.05,435.4,361.45,440.1,326.65,419.6z"/>
		</g>
		<path d="M257.45,168.4c-2.5,1.7-4,4.5-4,7.5v70.7c0,5,4.1,9.1,9.1,9.1s9.1-4.1,9.1-9.1v-66.2c9.3-8,14.8-19.6,14.8-32V75.1
			c0-41.4-33.7-75.1-75.1-75.1h-15.8c-41.4,0-75.1,33.7-75.1,75.1v73.3c0,12.4,5.4,24.1,14.8,32v62.7
			c-14.8,7.4-60.5,31.6-102.9,66.5c-10.3,8.5-16.2,21-16.2,34.5v50.3c0,5,4.1,9.1,9.1,9.1s9.1-4.1,9.1-9.1v-50.3
			c0-8,3.5-15.4,9.6-20.5c44.8-36.8,93.3-61.3,102.6-65.8c4.3-2.1,6.9-6.3,6.9-11.1V176c0-3-1.5-5.9-4-7.5
			c-6.7-4.5-10.7-11.9-10.7-20V75.1c0-31.4,25.6-57,57-57h15.8c31.4,0,57,25.6,57,57v73.3C268.15,156.5,264.15,163.9,257.45,168.4z"
			/>
		<path d="M227.55,258c-5,0-9.1,4.1-9.1,9.1c0,4.4-1.9,8.4-5,11.2c-0.6,0.4-1.2,0.8-1.7,1.4c-2.4,1.7-5.4,2.6-8.5,2.6
			c-8.4,0-15.2-6.8-15.2-15.2c0-5-4.1-9.1-9.1-9.1s-9.1,4.1-9.1,9.1c0,8,2.8,15.4,7.6,21.1l-7.3,170.2c-0.1,2.7,1,5.3,3,7.1l23.3,21
			c1.7,1.6,3.9,2.3,6.1,2.3c2.2,0,4.4-0.8,6.1-2.3l23.7-21.4c2-1.8,3.1-4.4,3-7.1l-7.6-168.2c5.6-6,9-14,9-22.8
			C236.65,262,232.55,258,227.55,258z M202.45,467.6l-14.1-12.7l6.7-155.6c2.6,0.7,5.3,1,8.1,1c2.3,0,4.5-0.2,6.6-0.7l7,154.8
			L202.45,467.6z"/>
		<path d="M472.65,341.1c0-26.7-10.4-51.8-29.3-70.7s-44-29.3-70.7-29.3c-26.7,0-51.8,10.4-70.7,29.3c-35.9,35.9-39,92.9-8.1,132.3
			c-3.7,7-7.9,11.6-12.5,13.9c-5,2.4-7.7,7.7-6.9,13.2c0.8,5.5,5.1,9.7,10.5,10.6c2.3,0.4,4.8,0.5,7.4,0.5
			c11.8,0,24.3-3.8,34.9-10.6c14,7.1,29.6,10.9,45.5,10.9c26.7,0,51.8-10.4,70.7-29.3C462.25,393,472.65,367.9,472.65,341.1z
			 M372.65,423c-14.6,0-29-3.9-41.5-11.2c-1.4-0.8-3-1.3-4.6-1.3c-2,0-3.9,0.6-5.6,1.9c-6.2,4.8-12.5,7.4-17.7,8.8
			c3.5-4.4,6.7-9.8,9.5-16.2c1.4-3.2,0.8-7-1.5-9.6c-28.6-32.3-27.1-81.6,3.5-112.1c15.5-15.5,36-24,57.9-24s42.4,8.5,57.9,24
			s24,36,24,57.9s-8.5,42.4-24,57.9C415.15,414.5,394.55,423,372.65,423z"/>
		<path d="M372.65,332.1c-2.4,0-4.7,1-6.4,2.7c-1.7,1.7-2.7,4-2.7,6.4s1,4.7,2.7,6.4c1.7,1.7,4,2.7,6.4,2.7s4.7-1,6.4-2.7
			c1.7-1.7,2.6-4,2.6-6.4s-1-4.7-2.7-6.4C377.35,333,375.05,332.1,372.65,332.1z"/>
		<path d="M406.35,332.1c-2.4,0-4.7,1-6.4,2.7c-1.7,1.7-2.7,4-2.7,6.4s1,4.7,2.7,6.4c1.7,1.7,4,2.7,6.4,2.7s4.7-1,6.4-2.7
			c1.7-1.7,2.7-4,2.7-6.4s-1-4.7-2.7-6.4C411.05,333,408.75,332.1,406.35,332.1z"/>
		<path d="M338.85,332.1c-2.4,0-4.7,1-6.4,2.7c-1.7,1.7-2.7,4-2.7,6.4s1,4.7,2.7,6.4c1.7,1.7,4,2.7,6.4,2.7s4.7-1,6.4-2.7
			c1.7-1.7,2.6-4,2.6-6.4s-1-4.7-2.7-6.4C343.65,333,341.25,332.1,338.85,332.1z"/>
	</g>
</g>
<g>
</g>
<g>
</g>
<g>
</g>
<g>
</g>
<g>
</g>
<g>
</g>
<g>
</g>
<g>
</g>
<g>
</g>
<g>
</g>
<g>
</g>
<g>
</g>
<g>
</g>
<g>
</g>
<g>
</g>
</svg>
