<?xml version="1.0" encoding="iso-8859-1"?>
<!-- Generator: Adobe Illustrator 19.0.0, SVG Export Plug-In . SVG Version: 6.00 Build 0)  -->
<svg version="1.1" id="Layer_1" xmlns="http://www.w3.org/2000/svg" xmlns:xlink="http://www.w3.org/1999/xlink" x="0px" y="0px"
	 viewBox="0 0 490.3 490.3" style="enable-background:new 0 0 490.3 490.3;" xml:space="preserve">
<g>
	<g>
		<path id="XMLID_1407_" style="fill:#3C92CA;" d="M457.4,186.05h-82l-44.1,42.2v-42.2h-18.7c-13.1,0-23.8-10.7-23.8-23.8v-88.5
			c0-13.1,10.7-23.8,23.8-23.8h144.8c13.1,0,23.8,10.7,23.8,23.8v88.4C481.2,175.25,470.5,186.05,457.4,186.05z"/>
		<path d="M314.1,301.05c-36.4-29.9-75.6-50.8-89.1-57.7v-53.3c8.1-7.1,12.8-17.4,12.8-28.4v-63.8c0-36.7-29.9-66.6-66.6-66.6h-13.7
			c-36.7,0-66.6,29.9-66.6,66.6v63.8c0,11,4.7,21.3,12.8,28.4v53.3c-13.5,6.8-52.7,27.8-89.1,57.7c-9.3,7.6-14.6,18.9-14.6,30.9
			v43.7c0,5,4.1,9.1,9.1,9.1s9.1-4.1,9.1-9.1v-43.7c0-6.6,2.9-12.8,7.9-16.9c38.9-31.9,81-53.2,89.1-57.1c4.1-2,6.7-6.1,6.7-10.7
			v-61.6c0-3-1.5-5.9-4-7.5c-5.5-3.7-8.8-9.8-8.8-16.4v-63.8c0-26.7,21.7-48.4,48.4-48.4h13.7c26.7,0,48.4,21.7,48.4,48.4v63.8
			c0,6.6-3.3,12.7-8.8,16.4c-2.5,1.7-4,4.5-4,7.5v61.5c0,4.5,2.6,8.7,6.7,10.7c8.1,3.9,50.2,25.2,89.1,57.1c5,4.1,7.9,10.3,7.9,16.9
			v43.7c0,5,4.1,9.1,9.1,9.1s9.1-4.1,9.1-9.1v-43.7C328.7,319.85,323.4,308.65,314.1,301.05z"/>
		<path d="M185.5,255.75c-5,0-9.1,4.1-9.1,9.1c0,3.5-1.5,6.6-3.9,8.8c-0.5,0.3-1,0.7-1.5,1.2c-1.9,1.3-4.2,2.1-6.7,2.1
			c-6.7,0-12.1-5.4-12.1-12.1c0-5-4.1-9.1-9.1-9.1s-9.1,4.1-9.1,9.1c0,7.1,2.5,13.6,6.6,18.8l-6.4,147.7c-0.1,2.7,1,5.3,3,7.1
			l20.3,18.3c1.7,1.6,3.9,2.3,6.1,2.3c2.2,0,4.4-0.8,6.1-2.3l20.6-18.6c2-1.8,3.1-4.4,3-7.1l-6.6-145.9c4.9-5.4,7.8-12.4,7.8-20.2
			C194.6,259.85,190.5,255.75,185.5,255.75z M163.7,437.75l-11-10l5.8-133.4c1.9,0.4,3.9,0.6,6,0.6c1.6,0,3.1-0.2,4.7-0.4l6,132.9
			L163.7,437.75z"/>
		<path d="M457.4,40.95H312.6c-18.1,0-32.9,14.8-32.9,32.9v88.3c0,18.1,14.8,32.9,32.9,32.9h9.6v33.1c0,3.6,2.2,6.9,5.5,8.3
			c1.1,0.5,2.4,0.7,3.6,0.7c2.3,0,4.6-0.9,6.3-2.5l41.4-39.7h78.4c18.1,0,32.9-14.8,32.9-32.9v-88.3
			C490.3,55.65,475.5,40.95,457.4,40.95z M472.2,162.15c0,8.1-6.6,14.8-14.8,14.8h-82c-2.3,0-4.6,0.9-6.3,2.5l-28.7,27.5v-21
			c0-5-4.1-9.1-9.1-9.1h-18.7c-8.1,0-14.8-6.6-14.8-14.8v-88.3c0-8.1,6.6-14.8,14.8-14.8h144.8c8.1,0,14.8,6.6,14.8,14.8V162.15z"/>
		<path d="M385,111.55c-2.4,0-4.7,1-6.4,2.7c-1.7,1.7-2.6,4-2.6,6.4s1,4.7,2.7,6.4s4,2.7,6.4,2.7s4.7-1,6.4-2.7
			c1.7-1.7,2.7-4,2.7-6.4s-1-4.7-2.7-6.4C389.7,112.45,387.4,111.55,385,111.55z"/>
		<path d="M418.7,111.55c-2.4,0-4.7,1-6.4,2.7c-1.7,1.7-2.6,4-2.6,6.4s1,4.7,2.7,6.4s4,2.7,6.4,2.7s4.7-1,6.4-2.7
			c1.7-1.7,2.7-4,2.7-6.4s-1-4.7-2.7-6.4C423.4,112.45,421.1,111.55,418.7,111.55z"/>
		<path d="M351.3,111.55c-2.4,0-4.7,1-6.4,2.7c-1.7,1.7-2.7,4-2.7,6.4s1,4.7,2.7,6.4s4,2.7,6.4,2.7s4.7-1,6.4-2.7
			c1.7-1.7,2.7-4,2.7-6.4s-1-4.7-2.7-6.4C356,112.45,353.6,111.55,351.3,111.55z"/>
	</g>
</g>
<g>
</g>
<g>
</g>
<g>
</g>
<g>
</g>
<g>
</g>
<g>
</g>
<g>
</g>
<g>
</g>
<g>
</g>
<g>
</g>
<g>
</g>
<g>
</g>
<g>
</g>
<g>
</g>
<g>
</g>
</svg>
