<?xml version="1.0" encoding="iso-8859-1"?>
<!-- Generator: Adobe Illustrator 19.0.0, SVG Export Plug-In . SVG Version: 6.00 Build 0)  -->
<svg version="1.1" id="Layer_1" xmlns="http://www.w3.org/2000/svg" xmlns:xlink="http://www.w3.org/1999/xlink" x="0px" y="0px"
	 viewBox="0 0 490 490" style="enable-background:new 0 0 490 490;" xml:space="preserve">
<g>
	<g>
		<circle id="XMLID_1215_" style="fill:#3C92CA;" cx="245.023" cy="446.3" r="34.6"/>
		<path d="M399.323,103.2c-26-62.7-86.6-103.2-154.4-103.2c-21.9,0-43.4,4.3-63.8,12.7c-85.1,35.3-125.7,133.1-90.5,218.2
			c24.8,59.8,81.1,99.4,145.2,102.9v69.8c-19.7,4.2-34.6,21.7-34.6,42.7c0,24.1,19.6,43.7,43.7,43.7s43.7-19.6,43.7-43.7
			c0-21-14.9-38.5-34.6-42.7v-69.8c18.8-1,37.2-5.2,54.8-12.5c41.2-17.1,73.3-49.2,90.4-90.4
			C416.323,189.8,416.323,144.4,399.323,103.2z M384.723,218.3h-46.2c4-17.2,6.2-34.8,6.2-51.6c0-17.1-1.8-34.4-5.3-51h45.3
			C397.023,149.1,397.023,185,384.723,218.3z M105.223,218.3c-12.6-34.3-11.7-70.5,0.1-102.6h46.9c-3.4,16.6-5.3,33.9-5.3,51
			c0,16.8,2.2,34.4,6.2,51.6L105.223,218.3L105.223,218.3z M165.023,166.8c0-17.6,2-34.8,5.6-51h65.3v102.6h-64
			C167.523,201.1,165.023,183.4,165.023,166.8z M254.023,19.7c25.8,5.5,49.3,36.6,62.2,78h-62.2V19.7z M235.923,20.1v77.6h-60.5
			C188.023,57.1,210.723,26.6,235.923,20.1z M235.923,236.5v76.9c-24.1-7.1-45.8-39.1-58.7-76.9H235.923z M254.023,313.8v-77.3h60.3
			C301.223,275.1,278.823,307.7,254.023,313.8z M254.023,218.3V115.8h67c3.6,16.1,5.6,33.4,5.6,51c0,16.6-2.5,34.4-6.8,51.6h-65.8
			L254.023,218.3L254.023,218.3z M376.623,97.6h-41.6c-4.5-15.7-10.4-30.4-17.7-43.6c-5.5-9.9-11.5-18.4-17.9-25.7
			C332.223,41.2,359.823,65.6,376.623,97.6z M188.023,29.5c1.6-0.7,3.2-1.3,4.9-1.9c-6.6,7.4-12.9,16.2-18.5,26.5
			c-7.3,13.1-13.2,27.9-17.7,43.6h-43.3C129.023,67.9,154.623,43.3,188.023,29.5z M113.323,236.5h44.8c8.9,28.1,22.5,53.9,39.2,71.7
			C161.523,296.1,131.323,270.7,113.323,236.5z M270.523,446.3c0,14.1-11.5,25.5-25.5,25.5s-25.5-11.5-25.5-25.5
			c0-14.1,11.5-25.5,25.5-25.5S270.523,432.3,270.523,446.3z M301.923,304.6c-2.2,0.9-4.4,1.8-6.7,2.6
			c16.2-17.8,29.5-43.1,38.2-70.7h43.2C360.523,267.2,334.423,291.2,301.923,304.6z"/>
		<path d="M172.023,446.3c0,5,4,9.1,9.1,9.1c5,0,9.1-4,9.1-9.1c0-5-4.1-9.1-9.1-9.1C176.123,437.3,172.023,441.3,172.023,446.3z"/>
		<path d="M113.523,446.3c0,5,4,9.1,9.1,9.1c5,0,9.1-4,9.1-9.1c0-5-4.1-9.1-9.1-9.1C117.523,437.3,113.523,441.3,113.523,446.3z"/>
		<path d="M142.723,446.3c0,5,4,9.1,9.1,9.1c5,0,9.1-4,9.1-9.1c0-5-4-9.1-9.1-9.1C146.823,437.3,142.723,441.3,142.723,446.3z"/>
		<path d="M86.823,439.9c-1.7,1.7-2.7,4-2.7,6.4s1,4.7,2.7,6.4c1.7,1.7,4,2.7,6.4,2.7s4.7-1,6.4-2.7c1.7-1.7,2.7-4,2.7-6.4
			s-1-4.7-2.7-6.4c-1.7-1.7-4-2.7-6.4-2.7C90.923,437.3,88.523,438.2,86.823,439.9z"/>
		<path d="M390.223,439.9c-1.7,1.7-2.7,4-2.7,6.4s1,4.7,2.7,6.4c1.7,1.7,4,2.7,6.4,2.7s4.7-1,6.4-2.7c1.7-1.7,2.7-4,2.7-6.4
			s-1-4.7-2.7-6.4c-1.7-1.7-4-2.7-6.4-2.7C394.323,437.3,391.923,438.2,390.223,439.9z"/>
		<path d="M367.423,437.3c-5,0-9.1,4.1-9.1,9.1s4,9.1,9.1,9.1c5,0,9.1-4,9.1-9.1C376.423,441.3,372.423,437.3,367.423,437.3z"/>
		<path d="M338.123,437.3c-5,0-9.1,4.1-9.1,9.1s4.1,9.1,9.1,9.1s9.1-4,9.1-9.1S343.123,437.3,338.123,437.3z"/>
		<path d="M299.823,446.3c0,5,4,9.1,9.1,9.1c5,0,9.1-4,9.1-9.1c0-5-4-9.1-9.1-9.1C303.823,437.3,299.823,441.3,299.823,446.3z"/>
	</g>
</g>
<g>
</g>
<g>
</g>
<g>
</g>
<g>
</g>
<g>
</g>
<g>
</g>
<g>
</g>
<g>
</g>
<g>
</g>
<g>
</g>
<g>
</g>
<g>
</g>
<g>
</g>
<g>
</g>
<g>
</g>
</svg>
