<?xml version="1.0" encoding="iso-8859-1"?>
<!-- Generator: Adobe Illustrator 19.0.0, SVG Export Plug-In . SVG Version: 6.00 Build 0)  -->
<svg version="1.1" id="Layer_1" xmlns="http://www.w3.org/2000/svg" xmlns:xlink="http://www.w3.org/1999/xlink" x="0px" y="0px"
	 viewBox="0 0 489.825 489.825" style="enable-background:new 0 0 489.825 489.825;" xml:space="preserve">
<g>
	<g>
		<g id="XMLID_1350_">
			<path id="XMLID_1351_" style="fill:#A7A9AC;" d="M287.813,348.525c-57.3,23.7-122.9-3.5-146.6-60.8s3.5-122.9,60.8-146.6
				s122.9,3.5,146.6,60.8S345.113,324.825,287.813,348.525z"/>
		</g>
		<path d="M244.912,97.025c5,0,9.1-4.1,9.1-9.1v-57l20.2,20.2c1.8,1.8,4.1,2.7,6.4,2.7s4.6-0.9,6.4-2.7c3.5-3.5,3.5-9.3,0-12.8
			l-35.7-35.7c-3.5-3.5-9.3-3.5-12.8,0l-35.7,35.7c-3.5,3.5-3.5,9.3,0,12.8s9.3,3.5,12.8,0l20.2-20.2v57.1
			C235.812,93.025,239.912,97.025,244.912,97.025z"/>
		<path d="M244.912,392.625c-5,0-9.1,4.1-9.1,9.1v57.1l-20.2-20.2c-3.5-3.5-9.3-3.5-12.8,0s-3.5,9.3,0,12.8l35.7,35.7
			c1.8,1.8,4.1,2.7,6.4,2.7c2.3,0,4.6-0.9,6.4-2.7l35.7-35.7c3.5-3.5,3.5-9.3,0-12.8s-9.3-3.5-12.8,0l-20.2,20.2v-57.1
			C254.012,396.625,249.912,392.625,244.912,392.625z"/>
		<path d="M97.112,244.825c0-5-4.1-9.1-9.1-9.1h-57l20.2-20.2c3.5-3.5,3.5-9.3,0-12.8s-9.3-3.5-12.8,0l-35.7,35.7
			c-3.5,3.5-3.5,9.3,0,12.8l35.7,35.7c1.8,1.8,4.1,2.7,6.4,2.7s4.6-0.9,6.4-2.7c3.5-3.5,3.5-9.3,0-12.8l-20.2-20.2h57.1
			C93.112,253.925,97.112,249.825,97.112,244.825z"/>
		<path d="M451.413,202.725c-3.5-3.5-9.3-3.5-12.8,0s-3.5,9.3,0,12.8l20.2,20.2h-57.1c-5,0-9.1,4.1-9.1,9.1s4.1,9.1,9.1,9.1h57.1
			l-20.2,20.2c-3.5,3.5-3.5,9.3,0,12.8c1.8,1.8,4.1,2.7,6.4,2.7s4.6-0.9,6.4-2.7l35.7-35.7c3.5-3.5,3.5-9.3,0-12.8L451.413,202.725z
			"/>
		<path d="M69.112,78.125v50.5c0,5,4.1,9.1,9.1,9.1s9.1-4.1,9.1-9.1v-28.6l40.4,40.4c1.8,1.8,4.1,2.7,6.4,2.7s4.6-0.9,6.4-2.7
			c3.5-3.5,3.5-9.3,0-12.8l-40.4-40.4h28.6c5,0,9.1-4.1,9.1-9.1s-4.1-9.1-9.1-9.1h-50.5C73.212,69.025,69.112,73.125,69.112,78.125z
			"/>
		<path d="M352.113,411.525c0,5,4.1,9.1,9.1,9.1h50.5c5,0,9.1-4.1,9.1-9.1v-50.5c0-5-4.1-9.1-9.1-9.1s-9.1,4.1-9.1,9.1v28.6
			l-40.4-40.4c-3.5-3.5-9.3-3.5-12.8,0s-3.5,9.3,0,12.8l40.4,40.4h-28.6C356.212,402.525,352.113,406.525,352.113,411.525z"/>
		<path d="M140.412,349.325c-3.5-3.5-9.3-3.5-12.8,0l-40.4,40.4v-28.6c0-5-4.1-9.1-9.1-9.1s-9.1,4.1-9.1,9.1v50.5
			c0,5,4.1,9.1,9.1,9.1h50.5c5,0,9.1-4.1,9.1-9.1s-4.1-9.1-9.1-9.1h-28.6l40.4-40.4
			C143.912,358.625,143.912,352.825,140.412,349.325z"/>
		<path d="M411.613,137.625c5,0,9.1-4.1,9.1-9.1v-50.4c0-5-4.1-9.1-9.1-9.1h-50.5c-5,0-9.1,4.1-9.1,9.1s4.1,9.1,9.1,9.1h28.6
			l-40.4,40.4c-3.5,3.5-3.5,9.3,0,12.8c1.8,1.8,4.1,2.7,6.4,2.7s4.6-0.9,6.4-2.7l40.4-40.4v28.6
			C402.613,133.525,406.613,137.625,411.613,137.625z"/>
		<path d="M244.912,123.525c-15.9,0-31.5,3.1-46.3,9.2c-61.8,25.6-91.2,96.7-65.7,158.4c18.8,45.5,62.8,74.9,112.1,74.9
			c15.9,0,31.5-3.1,46.3-9.3c61.8-25.6,91.2-96.7,65.7-158.4C338.113,152.925,294.113,123.525,244.912,123.525z M147.512,278.625
			c-7.9-22.6-7.3-46.4,0.1-67.6h28.2c-2.1,11-3.2,22.4-3.2,33.6c0,10.5,1.4,22.2,4,34H147.512z M190.712,244.625
			c0-11.5,1.3-22.9,3.5-33.6h41.6v67.6h-40.7C192.312,267.225,190.712,255.525,190.712,244.625z M254.012,143.625
			c15.2,5.3,29.2,24.4,37.8,49.3h-37.8L254.012,143.625L254.012,143.625z M235.812,144.025v48.8h-36.6
			C207.612,168.625,221.112,149.925,235.812,144.025z M235.812,296.725v48.2c-14-6.3-26.8-25.5-35.2-48.2H235.812z M254.012,345.425
			v-48.7h36.4C281.813,320.125,268.413,339.725,254.012,345.425z M254.012,278.625v-67.6h42.7c2.3,10.7,3.5,22.1,3.5,33.6
			c0,10.9-1.6,22.6-4.4,34H254.012z M315.212,211.025h27.1c7.9,22.6,7.3,46.4-0.1,67.6h-27.9c2.6-11.8,4-23.5,4-34
			C318.413,233.325,317.313,222.025,315.212,211.025z M334.013,192.925h-23.2c-3.2-10.6-7.3-20.6-12.2-29.6c-2-3.6-4.2-7-6.4-10.2
			C309.413,161.925,324.013,175.625,334.013,192.925z M199.312,152.325c-2.4,3.4-4.7,7-6.9,11c-5,8.9-9.1,19-12.2,29.6h-24.3
			C165.812,175.825,180.612,161.525,199.312,152.325z M155.812,296.725h25.8c5.1,15.5,12.2,30.3,20.9,42.2
			C183.212,330.225,166.712,315.625,155.812,296.725z M289.113,338.025c8.5-11.7,15.3-26.2,20.3-41.3h24.5
			C323.813,314.225,308.513,328.825,289.113,338.025z"/>
	</g>
</g>
<g>
</g>
<g>
</g>
<g>
</g>
<g>
</g>
<g>
</g>
<g>
</g>
<g>
</g>
<g>
</g>
<g>
</g>
<g>
</g>
<g>
</g>
<g>
</g>
<g>
</g>
<g>
</g>
<g>
</g>
</svg>
