<?xml version="1.0" encoding="iso-8859-1"?>
<!-- Generator: Adobe Illustrator 19.0.0, SVG Export Plug-In . SVG Version: 6.00 Build 0)  -->
<svg version="1.1" id="Layer_1" xmlns="http://www.w3.org/2000/svg" xmlns:xlink="http://www.w3.org/1999/xlink" x="0px" y="0px"
	 viewBox="0 0 489.74 489.74" style="enable-background:new 0 0 489.74 489.74;" xml:space="preserve">
<g>
	<g>
		<circle id="XMLID_2136_" style="fill:#3C92CA;" cx="244.557" cy="244.92" r="106.9"/>
		<path d="M61.557,253.82c0.3,6.1-1.5,12.2-5.2,17.3l-47.7,66.6c-13.2,18.4-11.1,43.3,4.9,59.3l79.2,79.2
			c8.7,8.7,20.3,13.5,32.6,13.5c9.6,0,18.9-3,26.7-8.6l66.8-47.7c5.1-3.6,11.1-5.5,17.2-5.2c3,0.1,6,0.2,9,0.2l0,0
			c49,0,95.1-19.1,129.7-53.7c36.5-36.5,56-87.1,53.5-138.7c-0.3-6,1.5-12.1,5.2-17.2l47.7-66.8c13.1-18.4,11-43.3-4.9-59.3
			l-79.2-79.2c-8.7-8.7-20.3-13.5-32.6-13.5c-9.7,0-18.9,3-26.8,8.6l-66.6,47.7c-5.1,3.7-11.2,5.5-17.3,5.2
			c-3.1-0.2-6.3-0.2-9.4-0.2c-48.8,0-94.7,19-129.3,53.6C78.357,151.62,58.857,202.22,61.557,253.82z M79.657,252.92
			c-2.4-46.5,15.1-92.1,48.1-125c31.2-31.2,72.5-48.3,116.5-48.3c2.8,0,5.7,0.1,8.5,0.2c10.3,0.5,20.3-2.5,28.8-8.5l66.6-47.7
			c4.8-3.4,10.4-5.2,16.2-5.2c7.5,0,14.5,2.9,19.7,8.2l79.2,79.2c9.7,9.7,10.9,24.8,3,35.9l-47.7,66.8c-6,8.4-9,18.5-8.5,28.6
			c2.3,46.5-15.3,92.1-48.2,125c-31.2,31.2-72.7,48.4-116.9,48.4c-2.7,0-5.4-0.1-8.1-0.2c-10.2-0.5-20.1,2.5-28.6,8.5l-66.8,47.7
			c-4.8,3.4-10.4,5.2-16.2,5.2c-7.5,0-14.5-2.9-19.7-8.2l-79.2-79.2c-9.7-9.7-10.9-24.8-3-36l47.7-66.6
			C77.157,273.22,80.157,263.02,79.657,252.92z"/>
		<path d="M294.757,160.72c1.4,0.9,3,1.3,4.6,1.3c3.1,0,6.1-1.6,7.8-4.4c2.6-4.3,1.1-9.9-3.2-12.4c-4.3-2.6-9.8-1.1-12.4,3.2
			C289.057,152.62,290.457,158.22,294.757,160.72z"/>
		<path d="M294.957,329.22L294.957,329.22c-4.3,2.5-5.7,8.1-3.2,12.4c1.7,2.9,4.7,4.4,7.8,4.4c1.6,0,3.2-0.4,4.6-1.3
			c4.3-2.6,5.7-8.1,3.1-12.4C304.757,328.02,299.257,326.62,294.957,329.22z"/>
		<path d="M151.557,298.22c-4.1,2.8-5.2,8.5-2.3,12.6c1.8,2.6,4.6,3.9,7.5,3.9c1.8,0,3.5-0.5,5.1-1.6c4.1-2.8,5.2-8.5,2.3-12.6
			C161.357,296.42,155.657,295.42,151.557,298.22z"/>
		<path d="M140.057,222.02c0.9,0.3,1.8,0.4,2.7,0.4c3.9,0,7.5-2.5,8.7-6.4c1.5-4.8-1.2-9.9-6-11.3c-4.8-1.5-9.9,1.2-11.3,6
			C132.557,215.52,135.257,220.52,140.057,222.02z"/>
		<path d="M137.957,254.12c5,0,9.1-4.1,9.1-9.1s-4.1-9.1-9.1-9c-5,0-9.1,4.1-9,9.1C128.957,250.12,132.957,254.12,137.957,254.12z"
			/>
		<path d="M206.357,154.22c1.1,0,2.2-0.2,3.2-0.6c4.7-1.8,7-7,5.2-11.7s-7-7-11.7-5.2s-7,7-5.2,11.7
			C199.257,152.02,202.757,154.22,206.357,154.22z"/>
		<path d="M184.257,322.02c-3.9-3.1-9.6-2.4-12.7,1.5s-2.4,9.6,1.5,12.7c1.7,1.3,3.6,2,5.6,2c2.7,0,5.3-1.2,7.1-3.5
			C188.857,330.82,188.157,325.12,184.257,322.02z"/>
		<path d="M178.457,170.12c2,0,4-0.6,5.6-2l0,0c3.9-3.1,4.6-8.8,1.5-12.7s-8.8-4.6-12.7-1.5s-4.6,8.8-1.5,12.7
			C173.157,168.92,175.857,170.12,178.457,170.12z"/>
		<path d="M151.457,191.92c1.6,1.1,3.3,1.6,5.1,1.6c2.9,0,5.7-1.4,7.5-3.9c2.8-4.1,1.8-9.8-2.3-12.6s-9.8-1.8-12.6,2.4
			C146.257,183.42,147.357,189.12,151.457,191.92z"/>
		<path d="M267.757,340.22c-4.9,1.2-7.9,6.1-6.7,10.9c1,4.2,4.7,7,8.8,7c0.7,0,1.4-0.1,2.1-0.2c4.9-1.2,7.9-6.1,6.7-10.9
			C277.457,342.12,272.557,339.02,267.757,340.22z"/>
		<path d="M267.557,149.72c0.7,0.2,1.4,0.3,2.1,0.3c4.1,0,7.8-2.8,8.8-7c1.1-4.9-1.9-9.7-6.7-10.9c-4.9-1.2-9.8,1.9-10.9,6.7
			S262.757,148.62,267.557,149.72z"/>
		<path d="M151.357,274.12c-1.5-4.8-6.5-7.5-11.3-6s-7.5,6.5-6,11.3c1.2,3.9,4.8,6.4,8.7,6.4c0.9,0,1.8-0.1,2.7-0.4
			C150.157,284.02,152.857,278.92,151.357,274.12z"/>
		<path d="M209.757,336.42c-4.7-1.8-9.9,0.6-11.7,5.2c-1.8,4.7,0.6,9.9,5.2,11.7c1.1,0.4,2.2,0.6,3.2,0.6c3.7,0,7.1-2.2,8.5-5.8
			C216.757,343.52,214.457,338.22,209.757,336.42z"/>
		<path d="M238.457,342.72L238.457,342.72c-5-0.3-9.3,3.5-9.6,8.5s3.5,9.3,8.5,9.6c0.2,0,0.4,0,0.6,0c4.7,0,8.7-3.7,9-8.5
			C247.257,347.32,243.457,343.02,238.457,342.72z"/>
		<path d="M237.657,147.32c0.2,0,0.4,0,0.6,0c5-0.3,8.8-4.7,8.4-9.6c-0.3-5-4.7-8.8-9.6-8.4c-5,0.3-8.8,4.7-8.4,9.6
			C228.957,143.62,232.957,147.32,237.657,147.32z"/>
		<path d="M318.257,323.32c1.7,1.6,3.9,2.3,6.1,2.3c2.5,0,4.9-1,6.7-3c39.3-43.6,39.3-111.8,0-155.4c-3.4-3.7-9.1-4-12.8-0.7
			c-3.7,3.4-4,9.1-0.7,12.8c33.2,36.7,33.2,94.3,0,131.1C314.257,314.22,314.557,320.02,318.257,323.32z"/>
	</g>
</g>
<g>
</g>
<g>
</g>
<g>
</g>
<g>
</g>
<g>
</g>
<g>
</g>
<g>
</g>
<g>
</g>
<g>
</g>
<g>
</g>
<g>
</g>
<g>
</g>
<g>
</g>
<g>
</g>
<g>
</g>
</svg>
